<svg width="26" height="26" viewBox="0 0 26 26" fill="none" xmlns="http://www.w3.org/2000/svg">
<path d="M19.5 3.89458V3.25H17.2304C16.4809 3.25099 15.7421 3.42855 15.0739 3.76827C14.4057 4.108 13.827 4.60034 13.3846 5.20542C13.1198 4.18219 12.5231 3.27567 11.688 2.62778C10.8529 1.9799 9.82653 1.62723 8.76958 1.625H6.5V2.26958C6.50143 3.53478 7.00467 4.74774 7.89929 5.64237C8.79392 6.537 10.0069 7.04023 11.2721 7.04167H12.4583V11.375H13.5417V8.81833L22.0783 10.9525L13 14.5871L3.56958 11.4075L10.9904 9.20833L10.6762 8.125L1.625 10.8333V11.9167L13 15.7408L23.2917 11.635V14.7983L13 18.9204L1.625 14.9446V20.4263L13 24.4129L24.375 19.7654V18.59L13 23.2538L2.70833 19.6571V16.4721L13 20.0796L24.375 15.535V10.4108L16.3042 8.39583C17.2372 8.06849 18.0456 7.45973 18.618 6.65351C19.1904 5.8473 19.4986 4.88334 19.5 3.89458ZM17.2304 4.33333H18.4167C18.3082 5.22865 17.876 6.05337 17.2015 6.65203C16.527 7.25069 15.6569 7.58194 14.755 7.58333H13.5688C13.6772 6.68802 14.1094 5.8633 14.7839 5.26464C15.4584 4.66597 16.3286 4.33473 17.2304 4.33333ZM11.2721 5.95833C10.3702 5.95694 9.50004 5.62569 8.82554 5.02703C8.15105 4.42837 7.71885 3.60364 7.61042 2.70833H8.76958C9.6761 2.70309 10.5529 3.03135 11.2331 3.63063C11.9133 4.22991 12.3494 5.05838 12.4583 5.95833H11.2721Z" fill="#7A7A7A"/>
</svg>
