<svg id="Layer_1" height="512" viewBox="0 0 64 64" width="512" xmlns="http://www.w3.org/2000/svg" data-name="Layer 1"><g fill="#333"><path d="m50 41a1 1 0 0 1 -1-1v-2h-12a1 1 0 0 1 -1-1v-6a1 1 0 0 1 1-1h26a1 1 0 0 1 0 2h-25v4h12a1 1 0 0 1 1 1v3a1 1 0 0 1 -1 1z"/><path d="m50 60h-36a1 1 0 0 1 -1-1v-22a1 1 0 0 1 1-1h12v-4h-25a1 1 0 0 1 0-2h26a1 1 0 0 1 1 1v6a1 1 0 0 1 -1 1h-12v20h34v-15a1 1 0 0 1 2 0v16a1 1 0 0 1 -1 1z"/><path d="m7 36h-6a1 1 0 0 1 0-2h6a1 1 0 0 1 0 2z"/><path d="m21 35h-5a1 1 0 0 1 0-2h5a1 1 0 0 1 0 2z"/><path d="m11 42h-5a1 1 0 0 1 0-2h5a1 1 0 0 1 0 2z"/><path d="m8 48h-7a1 1 0 0 1 0-2h7a1 1 0 0 1 0 2z"/><path d="m63 36h-6a1 1 0 0 1 0-2h6a1 1 0 0 1 0 2z"/><path d="m48 35h-5a1 1 0 0 1 0-2h5a1 1 0 0 1 0 2z"/><path d="m58 42h-5a1 1 0 0 1 0-2h5a1 1 0 0 1 0 2z"/><path d="m63 48h-7a1 1 0 0 1 0-2h7a1 1 0 0 1 0 2z"/><path d="m44.193 46a6.564 6.564 0 0 1 -3.7-1.139 4.625 4.625 0 0 0 -2.686-.861 3.366 3.366 0 0 0 -2.326.815 5.711 5.711 0 0 1 -6.967 0 3.347 3.347 0 0 0 -2.321-.815 4.633 4.633 0 0 0 -2.685.861 6.565 6.565 0 0 1 -3.701 1.139 5.334 5.334 0 0 1 -3.484-1.186 3.363 3.363 0 0 0 -2.323-.814 1 1 0 0 1 0-2 5.329 5.329 0 0 1 3.483 1.186 3.365 3.365 0 0 0 2.324.814 4.633 4.633 0 0 0 2.685-.861 6.565 6.565 0 0 1 3.701-1.139 5.33 5.33 0 0 1 3.483 1.186 3.718 3.718 0 0 0 4.645 0 5.344 5.344 0 0 1 3.486-1.186 6.564 6.564 0 0 1 3.7 1.139 4.625 4.625 0 0 0 2.686.861 3.354 3.354 0 0 0 2.323-.814 5.328 5.328 0 0 1 3.484-1.186 1 1 0 0 1 0 2 3.354 3.354 0 0 0 -2.323.814 5.328 5.328 0 0 1 -3.484 1.186z"/><path d="m32 29a9.121 9.121 0 0 1 -9-9 10.232 10.232 0 0 1 3.182-7.7 1 1 0 0 1 1.436 1.4 8.287 8.287 0 0 0 -2.618 6.3 7 7 0 0 0 14 0c0-3.884-1.866-5.635-3.842-7.49a14.566 14.566 0 0 1 -3.158-3.733 12.011 12.011 0 0 1 -2.3 2.917 1 1 0 0 1 -1.4-1.429 7.464 7.464 0 0 0 2.7-5.318 1 1 0 0 1 2 0c.157 2.943 1.719 4.408 3.527 6.105 2.096 1.968 4.473 4.198 4.473 8.948a9.121 9.121 0 0 1 -9 9z"/><path d="m36 21a1 1 0 0 1 -1-1c0-2.153-.755-2.861-2.58-4.572a1 1 0 1 1 1.369-1.459c1.934 1.814 3.211 3.012 3.211 6.031a1 1 0 0 1 -1 1z"/><path d="m11 55h-4a1 1 0 0 1 0-2h4a1 1 0 0 1 0 2z"/><path d="m57 55h-4a1 1 0 0 1 0-2h4a1 1 0 0 1 0 2z"/></g></svg>