<?xml version="1.0"?>
<svg xmlns="http://www.w3.org/2000/svg" viewBox="0 0 64 64" width="512" height="512"><g id="outline"><path fill="currentColor" d="M50.1944,56H39.6726c-.0065-.02-.0081-.0415-.0153-.0615l-5.52-16.25A.9689.9689,0,0,0,34,39.4516V37a.9915.9915,0,0,0-.2735-.6787,5.9628,5.9628,0,0,0,.45-1.9708l9.001-4.5741a1.0034,1.0034,0,0,0,.58.497,1.0243,1.0243,0,0,0,.31.0489.9967.9967,0,0,0,.4532-.1084L51.6544,26.59a1.0005,1.0005,0,0,0,.4385-1.3447L46.6583,14.5469a1.0014,1.0014,0,0,0-1.3447-.4385l-7.1328,3.623a1.0006,1.0006,0,0,0-.4385,1.3448l4.5293,8.917-8.3434,4.24a5.9915,5.9915,0,0,0-10.5814-1.7543l-.7442-1.469,14.0528-7.1407a1,1,0,0,0-.9063-1.7832L20.8067,27.6787a1,1,0,0,0-.44,1.3421l-4.46,2.2673a1.0005,1.0005,0,0,0-.4385,1.3447l.4561.8982L2.5479,40.3184a.9989.9989,0,0,0-.4394,1.3437l1.81,3.57a1,1,0,0,0,1.3447.44l13.3761-6.7956.4491.8844a1,1,0,0,0,1.3457.4405L22,39.4058v1.6781L16.961,55.918c-.01.0268-.0124.0549-.0209.082H15a1,1,0,0,0,0,2h2.9068c.014.0006.0273.0059.0414.0059.0086,0,.0171-.0057.0257-.0059h32.22a1,1,0,0,1,0,2h-44a1,1,0,0,1,0-2H8a1,1,0,1,0,0-2H6.1944a3,3,0,0,0,0,6h44a3,3,0,0,0,0-6Zm-12.62,0H35.4475L31.3761,44H33a.9782.9782,0,0,0,.4507-.12ZM24,38.2829a5.9839,5.9839,0,0,0,8,.3519V42H24ZM29.2636,44,33.335,56H23.2755l4.0714-12ZM45.3282,16.3447,49.8565,25.26l-5.3453,2.7155-4.5283-8.916ZM28.1944,30a3.9942,3.9942,0,0,1,3.98,3.7973l.0031.0305c.0026.0584.0174.1132.0174.1722a4,4,0,1,1-4-4ZM5.2491,43.4355l-.9053-1.7861L16.83,35.3138l.9032,1.7789ZM20.421,37.9648l-.4472-.88-.002-.0074-.0047-.0059-2.2619-4.453,3.565-1.8127,1.0369,2.0487a5.89,5.89,0,0,0,.2736,3.2446A.9948.9948,0,0,0,22,37v.1627ZM23.1222,44h2.1122L21.163,56H19.0451Z"/><path fill="currentColor" d="M12,58a1,1,0,1,0,0-2H11a1,1,0,0,0,0,2Z"/><path fill="currentColor" d="M28.1944,36a2,2,0,1,0-2-2A2.0026,2.0026,0,0,0,28.1944,36Zm.001-2-.001,1-.001-.999Z"/><path fill="currentColor" d="M56,14a6.0066,6.0066,0,0,0,6-6,5.9032,5.9032,0,0,0-.168-1.3643.9987.9987,0,0,0-.9424-.7705c-.01-.0009-.02-.0009-.0312-.0009a1,1,0,0,0-.957.71,1.9918,1.9918,0,1,1-2.4756-2.4756,1,1,0,0,0-.0616-1.9306A5.9017,5.9017,0,0,0,56,2a6,6,0,0,0,0,12ZM54.3526,4.3555a4.0022,4.0022,0,0,0,5.292,5.292,4,4,0,1,1-5.292-5.292Z"/><path fill="currentColor" d="M31.6905,8.4219l2.7383,1.1494L35.5782,12.31a1,1,0,0,0,1.8438,0l1.1494-2.7383L41.31,8.4219a1,1,0,0,0,0-1.8438L38.5714,5.4287,37.422,2.69a1,1,0,0,0-1.8438,0L34.4288,5.4287,31.6905,6.5781a1,1,0,0,0,0,1.8438Zm3.8887-1.3076a.9971.9971,0,0,0,.5351-.5352l.3858-.918.3857.918a.9977.9977,0,0,0,.5352.5352l.918.3857-.918.3857a.9977.9977,0,0,0-.5352.5352l-.3857.918-.3858-.918a.9971.9971,0,0,0-.5351-.5352L34.6612,7.5Z"/><path fill="currentColor" d="M61.31,29.5781l-2.7383-1.1494L57.422,25.69a1,1,0,0,0-1.8438,0l-1.1494,2.7383-2.7383,1.1494a1,1,0,0,0,0,1.8438l2.7383,1.1494L55.5782,35.31a1,1,0,0,0,1.8438,0l1.1494-2.7383L61.31,31.4219a1,1,0,0,0,0-1.8438ZM57.421,30.8857a.9977.9977,0,0,0-.5352.5352l-.3857.918-.3858-.918a.9971.9971,0,0,0-.5351-.5352l-.918-.3857.918-.3857a.9971.9971,0,0,0,.5351-.5352l.3858-.918.3857.918a.9977.9977,0,0,0,.5352.5352l.918.3857Z"/></g></svg>
