<svg id="Слой_1" enable-background="new 0 0 56 56" height="512" viewBox="0 0 56 56" width="512" xmlns="http://www.w3.org/2000/svg"><g id="XMLID_4535_"><path id="XMLID_8_" d="m43.297 51.04c-.553 0-1-.448-1-1l.001-9.975c0-2.095.609-4.087 1.761-5.762 2.006-2.917 3.066-6.338 3.066-9.892 0-9.623-7.869-17.452-17.542-17.452-2.572 0-5.07.563-7.425 1.673-5.536 2.655-9.335 8.042-9.909 14.056-.067.699-.094 1.405-.079 2.099.038 1.82-.346 3.697-1.141 5.581l-2.127 5.036c-.051.121-.018.225.007.275.025.052.086.144.216.18l2.532.703c.91.254 1.574 1.021 1.694 1.957l1.091 6.802c.008.052.013.104.013.156.002.997.815 1.809 1.813 1.809h6.345c2.435 0 4.417-1.981 4.417-4.417 0-.553.448-1 1-1s1 .447 1 1c0 3.538-2.878 6.417-6.417 6.417h-6.345c-2.069 0-3.762-1.661-3.812-3.72l-1.084-6.762c-.022-.167-.119-.278-.25-.315l-2.532-.701c-.648-.181-1.189-.631-1.481-1.236-.292-.604-.31-1.307-.048-1.926l2.126-5.035c.686-1.623 1.017-3.224.984-4.76-.016-.771.013-1.556.087-2.333.641-6.708 4.872-12.712 11.042-15.671 2.63-1.24 5.415-1.867 8.284-1.867 10.775 0 19.542 8.726 19.542 19.452 0 3.96-1.182 7.773-3.418 11.026-.922 1.34-1.409 2.939-1.409 4.628l-.001 9.975c-.001.552-.449.999-1.001.999z"/><path id="XMLID_7_" d="m39.432 23.945c-.181 0-.364-.049-.528-.152-.469-.292-.611-.909-.319-1.377.409-.656.626-1.413.626-2.189 0-2.283-1.857-4.141-4.141-4.141-.216 0-.428.017-.635.048-.447.072-.883-.17-1.066-.582-.807-1.814-2.575-2.986-4.505-2.986-2.717 0-4.928 2.21-4.928 4.928 0 .21.013.417.039.621.069.548-.319 1.048-.867 1.117-.542.068-1.047-.319-1.117-.867-.036-.285-.054-.576-.054-.871 0-3.82 3.108-6.928 6.928-6.928 2.479 0 4.764 1.361 6.003 3.523.067-.002.136-.003.203-.003 3.386 0 6.141 2.755 6.141 6.141 0 1.151-.321 2.274-.929 3.248-.191.304-.517.47-.851.47z"/><path id="XMLID_6_" d="m22.24 27.804c-3.386 0-6.141-2.755-6.141-6.141s2.755-6.141 6.141-6.141c.105 0 .21.002.315.008.552.027.977.497.949 1.048-.027.552-.493.984-1.048.949-.071-.003-.143-.005-.215-.005-2.283 0-4.141 1.857-4.141 4.141s1.857 4.141 4.141 4.141c.552 0 1 .448 1 1s-.449 1-1.001 1z"/><path id="XMLID_5_" d="m38.172 30.629c-2.9 0-5.261-2.36-5.261-5.261 0-.552.447-1 1-1s1 .448 1 1c0 1.798 1.463 3.261 3.261 3.261s3.261-1.463 3.261-3.261c0-1.145-.612-2.219-1.598-2.806-.475-.282-.63-.896-.348-1.371s.895-.63 1.371-.348c1.588.945 2.574 2.679 2.574 4.524.001 2.902-2.36 5.262-5.26 5.262z"/><path id="XMLID_4_" d="m32.876 26.25c-1.208 0-2.401-.553-3.172-1.598-.328-.445-.233-1.071.211-1.398.444-.328 1.07-.233 1.398.211.633.858 1.846 1.042 2.704.41.601-.442.89-1.173.756-1.906-.1-.543.26-1.064.804-1.164.544-.093 1.064.261 1.163.804.273 1.491-.315 2.976-1.535 3.875-.701.516-1.518.766-2.329.766z"/><path id="XMLID_3_" d="m32.057 21.703c-.05 0-.101-.003-.151-.011-.546-.083-.921-.593-.838-1.139.077-.511-.049-1.021-.355-1.437-.307-.416-.757-.688-1.268-.765-.736-.113-1.458.2-1.881.813-.314.454-.938.567-1.391.254-.455-.314-.568-.937-.254-1.391.862-1.248 2.333-1.878 3.826-1.654 1.039.157 1.955.709 2.579 1.555.623.846.88 1.884.722 2.923-.077.497-.503.852-.989.852z"/><path id="XMLID_2_" d="m31.864 37.443c-.553 0-1-.447-1-1v-2.85c0-1.351-1.099-2.449-2.449-2.449h-2.167c-2.378 0-4.313-1.935-4.313-4.313s1.935-4.313 4.313-4.313c.552 0 1 .448 1 1s-.448 1-1 1c-1.275 0-2.313 1.038-2.313 2.313s1.038 2.313 2.313 2.313h2.167c2.453 0 4.449 1.996 4.449 4.449v2.85c0 .553-.447 1-1 1z"/></g></svg>