<svg id="Layer_1" enable-background="new 0 0 509.924 509.924" height="512" viewBox="0 0 509.924 509.924" width="512" xmlns="http://www.w3.org/2000/svg"><g><path d="m496.433 232.893c-8.51-11.93-20.48-20.54-34.75-25.21 16.876-39.468 24.703-86.534 15.31-128.72-19.04-85.474-98.636-104.896-163.75-41.81-39.41-45.488-99.381-22.504-110.72 76.91-1.41-3.91-2.69-7.94-3.83-12.08-13.12-47.514-78.788-52.617-99-7.69-12.002 8.42-9.535 26.968 4.28 31.93 13.441 4.816 27.051-7.113 23.81-21.13 9.736-17.921 36.512-14.92 41.99 4.86 8.93 32.446 21.384 48.694 32.9 65.31.53 4.71 1.19 9.38 1.96 14-5.9-5.95-11.45-12.6-16.59-19.9-9.89-14.03-26.03-22.41-43.17-22.41-27.71 0-50.48 21.47-52.6 48.64-8.427 11.895.073 28.59 14.82 28.59 14.265 0 23.015-15.82 15.27-27.93 3.077-20.1 29.299-26.44 41.15-9.62 11.69 16.62 25.29 30.53 40.4 41.34 214.094 152.901 197.611 142.408 203.69 142.84 10.315 1.258 36.336-4.723 57.8-20.04 39.632-28.234 57.645-80.571 31.03-117.88zm-248.27-10.18-5.21-3.73c-14.927-42.427-17.056-102.865-.51-143.91 7.41-18.37 17.63-29.7 27.35-30.3 7.34-.47 15.62 5.02 23.43 15.26-33.54 44.839-52.402 107.71-45.06 162.68zm164.83 117.72-126.52-90.36c-13.94-31.09-13-76.45 2.67-119.53 38.337-105.231 137.448-139.796 158.57-45.06 6.59 29.61 3.3 64.9-9.26 99.39-9.656 26.553-14.958 27.677-13.42 36.38 1.093 6.545 6.493 11.937 13.83 12.47 11.262 0 25.384 5.702 33.15 16.59 22.191 31.104-11.271 83.979-59.02 90.12z"/><path d="m234.172 320.443c-2.174-.524-18.53-4.177-35.933-.131-6.396-7.634-11.955-12.304-12.761-12.967-5.539-4.563-13.533-4.563-19.072 0-.806.663-6.365 5.332-12.76 12.967-4.246-.987-8.427-1.514-12.358-1.742 3.429-19.776.682-38.79.181-41.917-.958-5.977-5.414-10.792-11.298-12.21-2.174-.524-18.53-4.177-35.933-.131-6.396-7.634-11.955-12.304-12.761-12.967-5.539-4.563-13.533-4.563-19.072 0-.806.663-6.365 5.332-12.76 12.967-17.404-4.048-33.76-.394-35.934.131-5.884 1.418-10.34 6.233-11.298 12.21-.78 4.874-7.045 48.333 13.18 73.135 11.584 14.205 32.189 21.821 41.348 26.404v86.119l-31.238-26.776c-6.291-5.392-15.759-4.663-21.15 1.627s-4.663 15.759 1.627 21.15c1.613 1.382 55.571 47.637 56.112 48.087 7.542 6.347 18.938 3.788 23.162-4.995 2.126-4.427 1.488 3.959 1.488-125.212 10.102-5.055 10.549-4.543 18.636-8.927 1.381 13.213 5.156 27.659 14.016 38.523 11.584 14.205 32.189 21.821 41.348 26.404v62.732c0 8.284 6.716 15 15 15s15-6.716 15-15v-62.732c9.572-4.789 29.824-12.273 41.348-26.404 20.225-24.802 13.96-68.261 13.18-73.135-.958-5.977-5.414-10.792-11.298-12.21zm-129.131 10.386c-6.351 7.786-19.942 12.739-33.098 19.322-12.706-6.358-26.782-11.577-33.098-19.322-7.213-8.845-8.282-26.112-7.793-38.357 5.604-.123 12.244.502 17.667 3.05 6.688 3.146 14.675.947 18.812-5.178 1.449-2.146 2.953-4.128 4.412-5.911 1.46 1.784 2.963 3.766 4.412 5.911 4.137 6.125 12.123 8.322 18.812 5.178 5.427-2.55 12.068-3.174 17.665-3.052.49 12.253-.581 29.516-7.791 38.359zm103.999 56c-6.351 7.786-19.942 12.739-33.098 19.322-12.706-6.358-26.782-11.577-33.098-19.322-7.213-8.845-8.282-26.112-7.793-38.357 5.608-.125 12.244.501 17.667 3.05 6.689 3.146 14.675.947 18.812-5.178 1.449-2.146 2.953-4.128 4.412-5.911 1.46 1.784 2.963 3.766 4.412 5.911 4.138 6.125 12.123 8.322 18.812 5.178 5.426-2.551 12.063-3.172 17.665-3.052.491 12.253-.58 29.516-7.791 38.359z"/><path d="m367.943 95.923c-25.916 0-47 21.084-47 47s21.084 47 47 47 47-21.084 47-47-21.084-47-47-47zm0 64c-9.374 0-17-7.626-17-17s7.626-17 17-17 17 7.626 17 17-7.626 17-17 17z"/></g></svg>