<svg height="512pt" viewBox="0 0 512 512" width="512pt" xmlns="http://www.w3.org/2000/svg"><path d="m466.679688 450.179688c3.902343 3.902343 10.230468 3.902343 14.136718 0 3.902344-3.902344 3.902344-10.234376 0-14.140626l-34.175781-34.175781-64.34375-64.339843c2.828125-17.609376-2.515625-36.285157-16.0625-49.832032-5.515625-5.515625-11.640625-10.011718-18.0625-13.671875-1.152344-1.011719-2.492187-1.722656-3.914063-2.113281-9.75-4.976562-20.035156-8.171875-29.84375-10.183594 1.011719-7.496094 1.53125-14.695312 1.53125-21.476562 0-7.171875-.613281-13.878906-1.722656-20.1875.050782-1.507813-.226562-3.039063-.886718-4.480469-8.699219-39.414063-37.566407-62.320313-61.53125-81.320313-17.496094-13.875-32.609376-25.855468-32.609376-39.363281v-33.542969c0-11.070312 4.175782-21.613281 11.757813-29.679687l13.933594-14.832031c2.730469-2.902344 3.472656-7.152344 1.890625-10.8125-1.582032-3.65625-5.1875-6.027344-9.175782-6.027344h-159.257812c-3.984375 0-7.589844 2.371094-9.171875 6.027344-1.585937 3.660156-.84375 7.910156 1.890625 10.8125l13.957031 14.859375c7.566407 8.050781 11.730469 18.566406 11.730469 29.613281v33.582031c0 13.507813-15.109375 25.488281-32.609375 39.363281-28.578125 22.660157-64.140625 50.859376-64.140625 105.988282 0 70.597656 54.726562 160.960937 78.691406 197.144531h-58.363281c-5.523437 0-10 4.476563-10 9.996094v54.457031c0 5.519531 4.476563 9.996094 10 9.996094h275.289063c5.523437 0 10-4.476563 10-9.996094v-54.457031c0-5.519531-4.476563-9.996094-10-9.996094h-58.386719c10.605469-16.054687 27.316406-42.863281 42.675781-73.984375 1.578125 1.925781 3.25 3.792969 5.035156 5.582031 11.207032 11.203125 25.929688 16.808594 40.648438 16.808594 2.757812 0 5.519531-.199219 8.253906-.59375l123.765625 123.765625c1.949219 1.953125 4.507813 2.929688 7.066406 2.929688 2.558594 0 5.117188-.976563 7.070313-2.929688 3.902344-3.902344 3.902344-10.234375 0-14.136719l-51.96875-51.96875 19.792968-19.792969zm-181.007813-115.578126c-8.839844-20.152343-9.777344-43.691406-9.546875-55.917968 10.617188-.378906 29.859375.085937 48.171875 6.445312-5.640625 6.980469-11.855469 16.792969-14.464844 28.382813-2.023437 9.011719-8.890625 16.289062-17.910156 18.996093-2.257813.679688-4.359375 1.398438-6.25 2.09375zm-20.367187-75.179687c-4.601563.59375-8.191407 4.273437-8.664063 8.890625-.050781.492188-.296875 3.050781-.453125 7.101562l-2.121094 3.53125c-.019531.035157-.042968.074219-.0625.109376-2.554687 4.375-7.101562 6.988281-12.167968 6.988281-5.066407 0-9.613282-2.613281-12.167969-6.988281-6.175781-10.585938-17.179688-16.902344-29.433594-16.902344-12.257813 0-23.261719 6.316406-29.4375 16.902344-2.554687 4.375-7.101563 6.988281-12.167969 6.988281s-9.613281-2.613281-12.167968-6.988281c-6.175782-10.585938-17.179688-16.902344-29.433594-16.902344s-23.257813 6.316406-29.4375 16.902344c-2.550782 4.375-7.101563 6.988281-12.164063 6.988281-5.066406 0-9.617187-2.613281-12.167969-6.988281-5.320312-9.117188-14.347656-15.164063-24.761718-16.585938-5.652344-.773438-11.246094-.148438-16.386719 1.71875-1.359375-8.210938-2.117187-16.234375-2.117187-23.941406 0-5.164063.40625-10.039063 1.132812-14.675782.1875-.257812.363281-.523437.527344-.804687 2.554687-4.375 7.101562-6.988281 12.167968-6.988281 5.066407 0 9.613282 2.613281 12.167969 6.988281 6.175781 10.585937 17.179688 16.90625 29.433594 16.902344 12.257813 0 23.261719-6.316407 29.433594-16.902344 2.554687-4.375 7.105469-6.988281 12.167969-6.988281 5.066406 0 9.617187 2.613281 12.167968 6.988281 6.175782 10.585937 17.179688 16.902344 29.433594 16.902344h.003906c12.253906 0 23.257813-6.316407 29.433594-16.902344 2.554688-4.375 7.101562-6.988281 12.167969-6.988281 5.066406 0 9.613281 2.613281 12.167969 6.988281 6.175781 10.585937 17.179687 16.90625 29.4375 16.902344 12.253906 0 23.257812-6.316407 29.433593-16.902344 2.550781-4.375 7.101563-6.988281 12.164063-6.988281 4.335937 0 8.289062 1.921875 10.941406 5.214844 1.011719 5.390624 1.574219 11.121093 1.574219 17.253906 0 5.882812-.457031 12.171875-1.347657 18.765625-16.183593-1.195313-28.175781.261719-29.296874.410156zm-148.558594-164.527344v-23.585937h82.453125v23.585937c0 3.773438.523437 7.335938 1.480469 10.738281h-85.414063c.953125-3.402343 1.480469-6.964843 1.480469-10.738281zm97.820312-74.902343c-7.726562 8.953124-12.71875 19.769531-14.558594 31.324218h-84.066406c-1.835937-11.558594-6.828125-22.375-14.558594-31.324218zm-138.003906 129.933593c10.070312-7.984375 19.855469-15.753906 27.257812-24.300781h108.304688c7.402344 8.546875 17.1875 16.316406 27.257812 24.300781 16.742188 13.273438 34.882813 27.671875 45.988282 47.921875-.640625-.035156-1.285156-.0625-1.933594-.0625-12.253906 0-23.261719 6.316406-29.4375 16.902344-2.550781 4.375-7.101562 6.988281-12.164062 6.988281-5.066407 0-9.617188-2.613281-12.167969-6.988281-6.179688-10.585938-17.183594-16.902344-29.4375-16.902344-12.253907 0-23.257813 6.316406-29.433594 16.902344-2.554687 4.375-7.101563 6.988281-12.167969 6.988281s-9.613281-2.613281-12.167968-6.988281c-6.175782-10.585938-17.179688-16.902344-29.433594-16.902344-12.257813 0-23.261719 6.316406-29.4375 16.902344-2.550782 4.375-7.101563 6.988281-12.167969 6.988281-5.0625 0-9.613281-2.613281-12.167969-6.988281-6.175781-10.585938-17.179687-16.902344-29.433594-16.902344-1.113281 0-2.214843.070313-3.304687.171875 11.097656-20.304687 29.277344-34.734375 46.046875-48.03125zm209.058594 341.917969h-255.296875v-34.460938h255.296875zm-182.746094-54.453125c-3.597656-5.199219-10.246094-15.039063-18.265625-27.992187h73.363281c5.519532 0 9.996094-4.476563 9.996094-9.996094 0-5.519532-4.476562-9.996094-9.996094-9.996094h-85.304687c-17.109375-29.738281-36.410157-68.332031-46.214844-105.222656 2.730469-1.667969 6-2.359375 9.332031-1.90625 2.515625.34375 7.1875 1.691406 10.199219 6.851562 6.175781 10.585938 17.183594 16.90625 29.4375 16.90625s23.257813-6.320312 29.433594-16.90625c2.554687-4.375 7.101562-6.984375 12.167969-6.984375 5.0625 0 9.613281 2.609375 12.167968 6.984375 6.175782 10.585938 17.179688 16.90625 29.433594 16.90625s23.261719-6.320312 29.4375-16.90625c2.550781-4.375 7.101562-6.984375 12.164062-6.984375 5.066407 0 9.617188 2.609375 12.167969 6.984375 6.179688 10.585938 17.183594 16.90625 29.4375 16.90625 5.46875 0 10.6875-1.265625 15.339844-3.601562 1.386719 12.546875 4.347656 26.992187 10.347656 40.539062-20.417969 43.988282-45.945312 82.140625-54.449219 94.414063h-110.195312zm196.207031-82.542969c-.910156-.90625-1.769531-1.855468-2.605469-2.820312.390626-.125.789063-.246094 1.195313-.367188 15.925781-4.78125 28.058594-17.71875 31.667969-33.761718 2.257812-10.035157 8.816406-18.59375 13.496094-23.667969 3.28125 2.21875 6.394531 4.734375 9.261718 7.601562 14.617188 14.617188 14.617188 38.398438 0 53.015625-14.617187 14.617188-38.398437 14.617188-53.015625 0zm67.152344 14.140625c3.316406-3.316406 6.128906-6.949219 8.464844-10.789062l50.734375 50.734375-19.792969 19.792968-50.859375-50.863281c4.089844-2.40625 7.945312-5.367187 11.453125-8.875zm0 0"/><path d="m197.957031 389.40625c-2.628906 0-5.207031 1.070312-7.066406 2.929688-1.859375 1.859374-2.929687 4.4375-2.929687 7.066406s1.070312 5.210937 2.929687 7.066406c1.859375 1.859375 4.4375 2.929688 7.066406 2.929688 2.628907 0 5.210938-1.066407 7.070313-2.929688 1.859375-1.855469 2.925781-4.4375 2.925781-7.066406s-1.066406-5.207032-2.925781-7.066406c-1.863282-1.859376-4.429688-2.929688-7.070313-2.929688zm0 0"/><path d="m502.003906 481.378906c-2.632812 0-5.210937-1.070312-7.070312-2.929687s-2.925782-4.4375-2.925782-7.070313c0-2.628906 1.066407-5.207031 2.925782-7.066406 1.863281-1.859375 4.4375-2.929688 7.070312-2.929688 2.628906 0 5.207032 1.070313 7.066406 2.929688 1.859376 1.859375 2.929688 4.4375 2.929688 7.066406 0 2.632813-1.070312 5.210938-2.929688 7.070313-1.859374 1.859375-4.4375 2.929687-7.066406 2.929687zm0 0"/><path d="m378.21875 101.644531c-5.519531 0-9.996094-4.476562-9.996094-9.996093v-12.644532c0-5.519531 4.476563-9.996094 9.996094-9.996094s9.996094 4.476563 9.996094 9.996094v12.644532c0 5.523437-4.476563 9.996093-9.996094 9.996093zm0 0"/><path d="m378.21875 162.25c-5.519531 0-9.996094-4.476562-9.996094-9.996094v-12.644531c0-5.519531 4.476563-9.996094 9.996094-9.996094s9.996094 4.476563 9.996094 9.996094v12.644531c0 5.519532-4.476563 9.996094-9.996094 9.996094zm0 0"/><path d="m414.84375 125.625h-12.644531c-5.519531 0-9.996094-4.476562-9.996094-9.996094 0-5.519531 4.476563-9.996094 9.996094-9.996094h12.644531c5.523438 0 10 4.476563 10 9.996094 0 5.519532-4.476562 9.996094-10 9.996094zm0 0"/><path d="m354.242188 125.625h-12.648438c-5.519531 0-9.996094-4.476562-9.996094-9.996094 0-5.519531 4.476563-9.996094 9.996094-9.996094h12.648438c5.519531 0 9.996093 4.476563 9.996093 9.996094 0 5.519532-4.476562 9.996094-9.996093 9.996094zm0 0"/></svg>