<svg width="27" height="26" viewBox="0 0 27 26" fill="none" xmlns="http://www.w3.org/2000/svg">
<path d="M20.3952 16.2236L20.2652 16.1226C19.662 15.6263 19.1391 15.0399 18.7147 14.3841C17.7688 13.0646 16.7933 11.7 13.5 11.7C10.2067 11.7 9.23124 13.0646 8.28744 14.3841C7.86311 15.0399 7.34014 15.6263 6.73697 16.1226L6.60481 16.2236C4.41907 17.8967 3.10001 18.9037 3.10001 21.6667C3.10001 24.3395 4.76054 26 7.43334 26C8.53241 25.9977 9.61893 25.7663 10.6235 25.3205C11.5273 24.9115 12.508 24.7 13.5 24.7C14.492 24.7 15.4727 24.9115 16.3765 25.3205C17.3811 25.7663 18.4676 25.9977 19.5667 26C22.2395 26 23.9 24.3395 23.9 21.6667C23.9 18.9037 22.5809 17.8967 20.3952 16.2236ZM19.5667 25.1333C18.575 25.13 17.5951 24.9186 16.6902 24.5128C15.6863 24.0649 14.5993 23.8334 13.5 23.8334C12.4007 23.8334 11.3137 24.0649 10.3098 24.5128C9.40495 24.9186 8.42501 25.13 7.43334 25.1333C5.23027 25.1333 3.96667 23.8697 3.96667 21.6667C3.96667 19.3319 4.95814 18.5735 7.13001 16.9121L7.26001 16.8107C7.93511 16.265 8.52005 15.6163 8.99334 14.8885C9.92024 13.5911 10.6534 12.5667 13.5 12.5667C16.3466 12.5667 17.0798 13.5911 18.0067 14.8885C18.4788 15.616 19.0624 16.2646 19.7361 16.8107L19.8661 16.9121C22.0419 18.5735 23.0333 19.3319 23.0333 21.6667C23.0333 23.8697 21.7697 25.1333 19.5667 25.1333Z" fill="#7A7A7A"/>
<path d="M13.5 11.2667C14.9339 11.2667 16.1 9.80893 16.1 8.01667C16.1159 7.11213 15.7926 6.23441 15.1939 5.5562C15.46 3.55073 13.9572 0.384799 13.89 0.245699C13.8545 0.172435 13.7991 0.110647 13.7301 0.0674141C13.6612 0.0241811 13.5814 0.00125122 13.5 0.00125122C13.4186 0.00125122 13.3388 0.0241811 13.2699 0.0674141C13.2009 0.110647 13.1455 0.172435 13.11 0.245699C13.0433 0.384799 11.5405 3.55073 11.8065 5.5562C11.2076 6.23434 10.8843 7.11207 10.9 8.01667C10.9 9.80893 12.0661 11.2667 13.5 11.2667ZM13.5 10.4C12.5441 10.4 11.7667 9.33097 11.7667 8.01667C11.7667 6.70237 12.5441 5.63333 13.5 5.63333C14.4559 5.63333 15.2333 6.70237 15.2333 8.01667C15.2333 9.33097 14.4559 10.4 13.5 10.4ZM13.5 1.52577C13.964 2.61555 14.2532 3.77176 14.3567 4.9517C14.0876 4.82974 13.7955 4.76666 13.5 4.76666C13.2045 4.76666 12.9124 4.82974 12.6433 4.9517C12.7468 3.77176 13.0359 2.61555 13.5 1.52577Z" fill="#7A7A7A"/>
<path d="M18.7 12.5667C19.8947 12.5667 20.8667 11.3031 20.8667 9.75001C20.8722 9.13986 20.7117 8.53968 20.4026 8.01364C20.6114 6.17674 19.1459 3.3852 19.0826 3.26344C19.0422 3.19841 18.9858 3.14477 18.9189 3.10758C18.8519 3.07039 18.7766 3.05087 18.7 3.05087C18.6234 3.05087 18.5481 3.07039 18.4811 3.10758C18.4142 3.14477 18.3578 3.19841 18.3174 3.26344C18.2528 3.3852 16.7886 6.17674 16.9974 8.01364C16.6883 8.53968 16.5278 9.13986 16.5333 9.75001C16.5333 11.3031 17.5053 12.5667 18.7 12.5667ZM18.7 11.7C17.9954 11.7 17.4 10.8069 17.4 9.75001C17.4 8.69311 17.9954 7.80001 18.7 7.80001C19.4046 7.80001 20 8.69311 20 9.75001C20 10.8069 19.4046 11.7 18.7 11.7ZM18.7 4.47114C19.0914 5.32323 19.3692 6.223 19.5264 7.14741C19.2736 7.00702 18.9892 6.93335 18.7 6.93335C18.4108 6.93335 18.1264 7.00702 17.8736 7.14741C18.0308 6.223 18.3086 5.32323 18.7 4.47114Z" fill="#7A7A7A"/>
<path d="M23.416 7.59675C23.3755 7.53173 23.3191 7.47809 23.2522 7.44089C23.1852 7.4037 23.1099 7.38419 23.0333 7.38419C22.9567 7.38419 22.8814 7.4037 22.8145 7.44089C22.7475 7.47809 22.6912 7.53173 22.6507 7.59675C22.5861 7.71852 21.1219 10.5101 21.3308 12.347C21.0216 12.873 20.8612 13.4732 20.8667 14.0833C20.8667 15.6364 21.8386 16.9 23.0333 16.9C24.228 16.9 25.2 15.6364 25.2 14.0833C25.2055 13.4732 25.0451 12.873 24.7359 12.347C24.9448 10.5101 23.4805 7.71852 23.416 7.59675ZM23.0333 8.80445C23.4247 9.65654 23.7025 10.5563 23.8597 11.4807C23.6069 11.3403 23.3225 11.2667 23.0333 11.2667C22.7442 11.2667 22.4598 11.3403 22.207 11.4807C22.3641 10.5563 22.642 9.65654 23.0333 8.80445ZM23.0333 16.0333C22.3287 16.0333 21.7333 15.1402 21.7333 14.0833C21.7333 13.0264 22.3287 12.1333 23.0333 12.1333C23.7379 12.1333 24.3333 13.0264 24.3333 14.0833C24.3333 15.1402 23.7379 16.0333 23.0333 16.0333Z" fill="#7A7A7A"/>
<path d="M8.3 12.5667C9.4947 12.5667 10.4667 11.3031 10.4667 9.75001C10.4722 9.13986 10.3117 8.53968 10.0026 8.01364C10.2114 6.17674 8.7459 3.3852 8.68263 3.26344C8.64217 3.19841 8.5858 3.14477 8.51885 3.10758C8.4519 3.07039 8.37658 3.05087 8.3 3.05087C8.22341 3.05087 8.14809 3.07039 8.08114 3.10758C8.01419 3.14477 7.95783 3.19841 7.91736 3.26344C7.8528 3.3852 6.38856 6.17674 6.59743 8.01364C6.28825 8.53968 6.12784 9.13986 6.13333 9.75001C6.13333 11.3031 7.1053 12.5667 8.3 12.5667ZM8.3 11.7C7.5954 11.7 7 10.8069 7 9.75001C7 8.69311 7.5954 7.80001 8.3 7.80001C9.0046 7.80001 9.6 8.69311 9.6 9.75001C9.6 10.8069 9.0046 11.7 8.3 11.7ZM8.3 4.47114C8.69136 5.32323 8.96918 6.223 9.12636 7.14741C8.87356 7.00702 8.58916 6.93335 8.3 6.93335C8.01083 6.93335 7.72643 7.00702 7.47363 7.14741C7.63081 6.223 7.90864 5.32323 8.3 4.47114Z" fill="#7A7A7A"/>
<path d="M6.13334 14.0833C6.13883 13.4732 5.97841 12.873 5.66924 12.347C5.8781 10.5101 4.41257 7.71852 4.3493 7.59675C4.30884 7.53173 4.25247 7.47809 4.18552 7.44089C4.11858 7.4037 4.04325 7.38419 3.96667 7.38419C3.89008 7.38419 3.81476 7.4037 3.74781 7.44089C3.68086 7.47809 3.6245 7.53173 3.58404 7.59675C3.51947 7.71852 2.05524 10.5101 2.2641 12.347C1.95493 12.873 1.79451 13.4732 1.8 14.0833C1.8 15.6364 2.77197 16.9 3.96667 16.9C5.16137 16.9 6.13334 15.6364 6.13334 14.0833ZM3.96667 8.80445C4.35803 9.65654 4.63586 10.5563 4.79304 11.4807C4.54023 11.3403 4.25583 11.2667 3.96667 11.2667C3.6775 11.2667 3.3931 11.3403 3.1403 11.4807C3.29748 10.5563 3.57531 9.65654 3.96667 8.80445ZM2.66667 14.0833C2.66667 13.0264 3.26207 12.1333 3.96667 12.1333C4.67127 12.1333 5.26667 13.0264 5.26667 14.0833C5.26667 15.1402 4.67127 16.0333 3.96667 16.0333C3.26207 16.0333 2.66667 15.1402 2.66667 14.0833Z" fill="#7A7A7A"/>
</svg>
