<svg height="511pt" viewBox="-81 0 511 511.99905" width="511pt" xmlns="http://www.w3.org/2000/svg"><path d="m345.867188 329.429688c-16.203126-26.652344-24.421876-54.660157-24.421876-83.242188 0-4.132812-3.347656-7.480469-7.480468-7.480469h-1.601563l32.53125-66.445312c2.929688-5.984375 3.351563-12.75 1.1875-19.046875-2.164062-6.296875-6.652343-11.375-12.640625-14.296875l-33.328125-16.257813c-12.347656-6.023437-27.3125-.886718-33.355469 11.457032l-51.203124 104.589843h-19.15625c-.046876 0-.097657.003907-.144532.003907-.050781 0-.097656-.003907-.144531-.003907h-2.726563v-45.628906c0-9.652344-14.964843-9.652344-14.964843 0v45.628906h-12.96875v-45.628906c0-9.652344-14.964844-9.652344-14.964844 0v45.628906h-31.375l-21.578125-63.414062c-.433594-1.273438-1.234375-2.449219-2.269531-3.316407l-57.28125-48.132812c-2.015625-1.691406-4.773438-2.203125-7.257813-1.34375-2.488281.859375-4.339844 2.964844-4.878906 5.539062l-15.558594 74.46875c-.269531 1.296876-.1875 2.691407.238282 3.941407l10.976562 32.257812h-6.957031c-3.398438 0-6.371094 2.289063-7.238281 5.574219-.273438 1.039062-6.707032 25.828125-6.804688 58.777344-.128906 44.101562 11.402344 81.699218 33.339844 108.726562 6.144531 7.566406 17.671875-1.976562 11.617187-9.429687-41.179687-50.734375-29.253906-127.503907-24.925781-148.6875h167.800781c-2.152343 27.128906-15.671875 43.003906-23.175781 49.832031-9.382812-9.21875-21.453125-13.417969-30.402344-13.417969-23.101562 0-41.898437 18.796875-41.898437 41.902344 0 19.488281 13.371093 35.910156 31.425781 40.574219-17.355469 34.554687-47.105469 50.453125-54.496094 53.976562-4.011718.136719-7.226562 3.421875-7.226562 7.46875v70.511719c0 4.132813 3.351562 7.484375 7.480468 7.484375h117.730469c4.132813 0 7.484375-3.351562 7.484375-7.484375v-33.171875h19.191406c60.191407 0 109.535157-47.335938 112.761719-106.738281 8.058594-.304688 15.171875-4.683594 19.121094-11.804688 4.105469-7.40625 3.933594-16.144531-.460937-23.371093zm-65.671876-188.730469c2.421876-4.945313 8.414063-7 13.359376-4.589844l33.328124 16.257813c4.882813 2.386718 6.960938 8.433593 4.570313 13.3125l-5.871094 11.988281-13.140625-6.410157c-8.675781-4.230468-15.238281 9.21875-6.5625 13.449219l13.125 6.402344-11.449218 23.386719-21.335938-10.40625c-8.671875-4.234375-15.234375 9.21875-6.558594 13.445312l21.316406 10.402344-5.273437 10.769531h-63.488281zm-202.519531 98.007812-9.808593-29.601562 19.234374-18.011719 16.199219 47.613281zm-42.851562-80.484375 14.898437-4.960937 29.457032 24.75-22.523438 21.089843-29.964844-1.964843zm-6.523438 54.015625 25.394531 1.667969 8.214844 24.800781h-24.605468zm304.9375 133.308594c-.675781 1.21875-2.695312 4.0625-6.824219 4.113281h-6.519531c-4.742187 0-7.761719 4.332032-7.484375 8.753906 0 54.019532-43.949218 97.964844-97.964844 97.964844h-26.675781c-4.132812 0-7.480469 3.351563-7.480469 7.484375v33.171875h-102.765624v-57.597656c11.710937-5.738281 47.027343-26.128906 64.675781-70.257812 1.539062-3.835938-.328125-8.1875-4.167969-9.722657-1.011719-.40625-2.058594-.566406-3.082031-.527343-.066407 0-.128907-.007813-.195313-.007813-14.851562 0-26.933594-12.085937-26.933594-26.9375s12.082032-26.9375 26.933594-26.9375c6.867188 0 17.105469 4.515625 23.378906 13.144531 2.324219 3.191406 6.722657 4.035156 10.054688 1.921875 1.371094-.867187 32.03125-20.84375 35.128906-66.441406h103.335938c1.308594 28.75 10.183594 56.8125 26.429687 83.53125 1.566407 2.578125 1.625 5.695313.15625 8.34375zm0 0"/><path d="m254.25 276.796875c-15.125 0-27.429688 12.308594-27.429688 27.433594 0 9.652343 14.964844 9.652343 14.964844 0 0-6.875 5.589844-12.46875 12.464844-12.46875 6.878906 0 12.46875 5.59375 12.46875 12.46875 0 9.652343 14.964844 9.652343 14.964844 0 0-15.125-12.304688-27.433594-27.433594-27.433594zm0 0"/><path d="m45.320312 67.15625h7.757813v7.757812c0 9.652344 14.964844 9.652344 14.964844 0v-7.757812h7.757812c9.652344 0 9.652344-14.964844 0-14.964844h-7.757812v-7.757812c0-9.652344-14.964844-9.652344-14.964844 0v7.757812h-7.757813c-9.652343 0-9.652343 14.964844 0 14.964844zm0 0"/><path d="m240.238281 30.246094h7.757813v7.753906c0 9.652344 14.964844 9.652344 14.964844 0v-7.753906h7.761718c9.648438 0 9.648438-14.964844 0-14.964844h-7.761718v-7.761719c0-9.652343-14.964844-9.652343-14.964844 0v7.757813h-7.757813c-9.648437.003906-9.648437 14.96875 0 14.96875zm0 0"/><path d="m292.117188 86.113281h7.757812v7.753907c0 9.652343 14.964844 9.652343 14.964844 0v-7.753907h7.757812c9.652344 0 9.652344-14.964843 0-14.964843h-7.757812v-7.761719c0-9.648438-14.964844-9.648438-14.964844 0v7.761719h-7.757812c-9.652344 0-9.652344 14.964843 0 14.964843zm0 0"/><path d="m117.121094 186.257812c2.828125 1.015626 6.429687.011719 8.328125-2.328124.3125-.382813 7.429687-9.164063 14.96875-19.308594 8.289062 7.796875 19.203125 12.164062 30.867187 12.164062h.117188c11.695312-.027344 22.6875-4.453125 31.074218-12.3125 7.410157 10.082032 14.402344 18.792969 14.707032 19.175782 4.265625 5.304687 13.277344 2.226562 13.316406-4.648438l.253906-46.671875c.035156-6.046875-2.308594-11.746094-6.597656-16.050781-2.070312-2.074219-4.476562-3.691406-7.09375-4.832032l.175781-31.828124c.15625-28.609376-14.117187-56.261719-40.195312-77.859376-7.433594-6.160156-16.976563 5.367188-9.546875 11.523438 17.480468 14.480469 28.828125 31.871094 32.992187 50.15625l-57.046875.136719c2.003906-8.414063 5.53125-16.648438 10.570313-24.621094 5.15625-8.160156-7.492188-16.152344-12.652344-7.996094-9.761719 15.441407-14.757813 31.847657-14.847656 48.765625l-.175781 31.902344c-8.140626 3.554688-13.871094 11.578125-13.921876 20.878906l-.253906 46.671875c-.019531 3.171875 1.96875 6.015625 4.960938 7.082031zm10.257812-53.671874c.023438-4.371094 3.746094-7.933594 8.292969-7.945313h.023437c2.230469 0 4.300782.84375 5.832032 2.382813 1.359375 1.363281 2.140625 3.132812 2.226562 5.015624-1.027344 3.5-8.015625 13.84375-16.511718 25.222657zm88.277344 24.554687c-8.363281-11.324219-15.234375-21.628906-16.234375-25.125.234375-4.1875 3.867187-7.542969 8.28125-7.554687h.019531c2.230469 0 4.304688.847656 5.835938 2.386718 1.449218 1.453125 2.242187 3.375 2.234375 5.402344zm-13.394531-78.742187c.003906.378906.011719.757812.011719 1.140624l-.167969 30.644532c-10.074219 2.484375-17.601563 11.476562-17.660157 22.144531-.015624 2.867187.824219 7.058594 9.28125 19.742187-5.792968 6.199219-13.800781 9.730469-22.363281 9.75-.027343 0-.050781 0-.078125 0-8.488281 0-16.378906-3.453124-22.054687-9.546874 8.59375-12.71875 9.476562-16.90625 9.496093-19.765626.03125-6.050781-2.3125-11.75-6.601562-16.050781-3.015625-3.027343-6.746094-5.085937-10.816406-6.082031l.167968-30.570312c0-.421876.019532-.839844.027344-1.257813zm0 0"/><path d="m132.757812 324.101562c-9.628906 0-9.644531 14.964844 0 14.964844 9.628907 0 9.644532-14.964844 0-14.964844zm0 0"/></svg>