<?xml version="1.0" encoding="UTF-8" standalone="no"?>
<!-- Created with Inkscape (http://www.inkscape.org/) -->

<svg
   version="1.1"
   id="svg1191"
   xml:space="preserve"
   width="682.66669"
   height="682.66669"
   viewBox="0 0 682.66669 682.66669"
   xmlns="http://www.w3.org/2000/svg"
   xmlns:svg="http://www.w3.org/2000/svg"><defs
     id="defs1195"><clipPath
       clipPathUnits="userSpaceOnUse"
       id="clipPath1205"><path
         d="M 0,512 H 512 V 0 H 0 Z"
         id="path1203" /></clipPath></defs><g
     id="g1197"
     transform="matrix(1.3333333,0,0,-1.3333333,0,682.66667)"><g
       id="g1199"><g
         id="g1201"
         clip-path="url(#clipPath1205)"><g
           id="g1207"
           transform="translate(7.5,43.5728)"><path
             d="M 0,0 H 497"
             style="fill:none;stroke:#000000;stroke-width:15;stroke-linecap:round;stroke-linejoin:round;stroke-miterlimit:10;stroke-dasharray:none;stroke-opacity:1"
             id="path1209" /></g><g
           id="g1211"
           transform="translate(304.0967,107.7017)"><path
             d="m 0,0 h -120.242 c 0,26.563 21.534,48.097 48.097,48.097 h 24.048 C -21.534,48.097 0,26.563 0,0 Z"
             style="fill:none;stroke:#000000;stroke-width:15;stroke-linecap:round;stroke-linejoin:round;stroke-miterlimit:10;stroke-dasharray:none;stroke-opacity:1"
             id="path1213" /></g><g
           id="g1215"
           transform="translate(231.9517,107.7017)"><path
             d="M 0,0 -8.016,-64.129"
             style="fill:none;stroke:#000000;stroke-width:15;stroke-linecap:round;stroke-linejoin:round;stroke-miterlimit:10;stroke-dasharray:none;stroke-opacity:1"
             id="path1217" /></g><g
           id="g1219"
           transform="translate(256,107.7017)"><path
             d="M 0,0 8.016,-64.129"
             style="fill:none;stroke:#000000;stroke-width:15;stroke-linecap:round;stroke-linejoin:round;stroke-miterlimit:10;stroke-dasharray:none;stroke-opacity:1"
             id="path1221" /></g><g
           id="g1223"
           transform="translate(111.71,43.5728)"><path
             d="M 0,0 V 208.376"
             style="fill:none;stroke:#000000;stroke-width:15;stroke-linecap:round;stroke-linejoin:round;stroke-miterlimit:10;stroke-dasharray:none;stroke-opacity:1"
             id="path1225" /></g><g
           id="g1227"
           transform="translate(143.7744,211.9114)"><path
             d="M 0,0 -32.064,-32.065"
             style="fill:none;stroke:#000000;stroke-width:15;stroke-linecap:round;stroke-linejoin:round;stroke-miterlimit:10;stroke-dasharray:none;stroke-opacity:1"
             id="path1229" /></g><g
           id="g1231"
           transform="translate(207.542,275.679)"><path
             d="m 0,0 c -14.717,1.965 -32.124,-4.102 -45.714,-17.692 -13.59,-13.59 -19.656,-30.997 -17.692,-45.714 14.717,-1.964 32.124,4.102 45.714,17.692 C -4.102,-32.124 1.964,-14.717 0,0 Z"
             style="fill:none;stroke:#000000;stroke-width:15;stroke-linecap:round;stroke-linejoin:round;stroke-miterlimit:10;stroke-dasharray:none;stroke-opacity:1"
             id="path1233" /></g><g
           id="g1235"
           transform="translate(55.915,307.7869)"><path
             d="m 0,0 c -1.73,-12.961 3.613,-28.29 15.581,-40.258 11.967,-11.967 27.296,-17.31 40.257,-15.58 1.729,12.961 -3.613,28.29 -15.581,40.257 C 28.29,-3.613 12.96,1.729 0,0 Z"
             style="fill:none;stroke:#000000;stroke-width:15;stroke-linecap:round;stroke-linejoin:round;stroke-miterlimit:10;stroke-dasharray:none;stroke-opacity:1"
             id="path1237" /></g><g
           id="g1239"
           transform="translate(79.645,155.7983)"><path
             d="M 0,0 32.064,-32.064"
             style="fill:none;stroke:#000000;stroke-width:15;stroke-linecap:round;stroke-linejoin:round;stroke-miterlimit:10;stroke-dasharray:none;stroke-opacity:1"
             id="path1241" /></g><g
           id="g1243"
           transform="translate(15.8774,219.5662)"><path
             d="M 0,0 C 14.717,1.964 32.124,-4.102 45.714,-17.692 59.304,-31.282 65.371,-48.689 63.406,-63.406 48.689,-65.37 31.282,-59.304 17.692,-45.714 4.102,-32.124 -1.964,-14.717 0,0 Z"
             style="fill:none;stroke:#000000;stroke-width:15;stroke-linecap:round;stroke-linejoin:round;stroke-miterlimit:10;stroke-dasharray:none;stroke-opacity:1"
             id="path1245" /></g><g
           id="g1247"
           transform="translate(348.1172,147.7822)"><path
             d="M 0,0 H 20.108"
             style="fill:none;stroke:#000000;stroke-width:15;stroke-linecap:round;stroke-linejoin:round;stroke-miterlimit:10;stroke-dasharray:none;stroke-opacity:1"
             id="path1249" /></g><g
           id="g1251"
           transform="translate(392.2744,147.7822)"><path
             d="M 0,0 H 0.08"
             style="fill:none;stroke:#000000;stroke-width:15;stroke-linecap:round;stroke-linejoin:round;stroke-miterlimit:10;stroke-dasharray:none;stroke-opacity:1"
             id="path1253" /></g><g
           id="g1255"
           transform="translate(437.2651,122.5198)"><path
             d="m 0,0 -22.117,18.205 c 0.693,2.245 1.175,4.584 1.175,7.057 0,13.282 -10.767,24.049 -24.049,24.049 -13.281,0 -24.049,-10.767 -24.049,-24.049"
             style="fill:none;stroke:#000000;stroke-width:15;stroke-linecap:round;stroke-linejoin:round;stroke-miterlimit:10;stroke-dasharray:none;stroke-opacity:1"
             id="path1257" /></g><g
           id="g1259"
           transform="translate(364.269,139.7661)"><path
             d="m 0,0 c -0.567,-14.515 4.684,-29.214 15.765,-40.296 21.089,-21.089 60.822,-21.021 84.385,8.232"
             style="fill:none;stroke:#000000;stroke-width:15;stroke-linecap:round;stroke-linejoin:round;stroke-miterlimit:10;stroke-dasharray:none;stroke-opacity:1"
             id="path1261" /></g><g
           id="g1263"
           transform="translate(416.3228,83.6533)"><path
             d="M 0,0 -16.032,-40.081"
             style="fill:none;stroke:#000000;stroke-width:15;stroke-linecap:round;stroke-linejoin:round;stroke-miterlimit:10;stroke-dasharray:none;stroke-opacity:1"
             id="path1265" /></g><g
           id="g1267"
           transform="translate(411.4648,371.0574)"><path
             d="m 0,0 c 3.122,-6.986 4.858,-14.726 4.858,-22.872 0,-30.99 -25.123,-56.113 -56.113,-56.113 -30.991,0 -56.113,25.123 -56.113,56.113 0,30.99 25.122,56.113 56.113,56.113 10.577,0 20.471,-2.927 28.916,-8.014"
             style="fill:none;stroke:#000000;stroke-width:15;stroke-linecap:round;stroke-linejoin:round;stroke-miterlimit:10;stroke-dasharray:none;stroke-opacity:1"
             id="path1269" /></g><g
           id="g1271"
           transform="translate(360.2095,468.4275)"><path
             d="M 0,0 V -32.065"
             style="fill:none;stroke:#000000;stroke-width:15;stroke-linecap:round;stroke-linejoin:round;stroke-miterlimit:10;stroke-dasharray:none;stroke-opacity:1"
             id="path1273" /></g><g
           id="g1275"
           transform="translate(360.2095,260.0081)"><path
             d="M 0,0 V -32.064"
             style="fill:none;stroke:#000000;stroke-width:15;stroke-linecap:round;stroke-linejoin:round;stroke-miterlimit:10;stroke-dasharray:none;stroke-opacity:1"
             id="path1277" /></g><g
           id="g1279"
           transform="translate(480.4517,348.1855)"><path
             d="M 0,0 H -32.064"
             style="fill:none;stroke:#000000;stroke-width:15;stroke-linecap:round;stroke-linejoin:round;stroke-miterlimit:10;stroke-dasharray:none;stroke-opacity:1"
             id="path1281" /></g><g
           id="g1283"
           transform="translate(272.0322,348.1855)"><path
             d="M 0,0 H -32.064"
             style="fill:none;stroke:#000000;stroke-width:15;stroke-linecap:round;stroke-linejoin:round;stroke-miterlimit:10;stroke-dasharray:none;stroke-opacity:1"
             id="path1285" /></g><g
           id="g1287"
           transform="translate(297.8589,285.8347)"><path
             d="M 0,0 -11.336,-11.337"
             style="fill:none;stroke:#000000;stroke-width:15;stroke-linecap:round;stroke-linejoin:round;stroke-miterlimit:10;stroke-dasharray:none;stroke-opacity:1"
             id="path1289" /></g><g
           id="g1291"
           transform="translate(433.897,421.8728)"><path
             d="M 0,0 -11.336,-11.336"
             style="fill:none;stroke:#000000;stroke-width:15;stroke-linecap:round;stroke-linejoin:round;stroke-miterlimit:10;stroke-dasharray:none;stroke-opacity:1"
             id="path1293" /></g><g
           id="g1295"
           transform="translate(297.8589,410.5364)"><path
             d="M 0,0 -11.336,11.336"
             style="fill:none;stroke:#000000;stroke-width:15;stroke-linecap:round;stroke-linejoin:round;stroke-miterlimit:10;stroke-dasharray:none;stroke-opacity:1"
             id="path1297" /></g><g
           id="g1299"
           transform="translate(433.897,274.498)"><path
             d="M 0,0 -11.336,11.337"
             style="fill:none;stroke:#000000;stroke-width:15;stroke-linecap:round;stroke-linejoin:round;stroke-miterlimit:10;stroke-dasharray:none;stroke-opacity:1"
             id="path1301" /></g></g></g></g></svg>
