<?xml version="1.0" encoding="UTF-8" standalone="no"?>
<!-- Created with Inkscape (http://www.inkscape.org/) -->

<svg
   version="1.1"
   id="svg3681"
   xml:space="preserve"
   width="682.66669"
   height="682.66669"
   viewBox="0 0 682.66669 682.66669"
   xmlns="http://www.w3.org/2000/svg"
   xmlns:svg="http://www.w3.org/2000/svg"><defs
     id="defs3685"><clipPath
       clipPathUnits="userSpaceOnUse"
       id="clipPath3699"><path
         d="M 0,512 H 512 V 0 H 0 Z"
         id="path3697" /></clipPath></defs><g
     id="g3687"
     transform="matrix(1.3333333,0,0,-1.3333333,0,682.66667)"><g
       id="g3689"
       transform="translate(104.2915,174.3359)"><path
         d="m 0,0 100.321,-120.989 h 44.866 l -32.263,24.197 -69.065,94.02"
         style="fill:none;stroke:#000000;stroke-width:15;stroke-linecap:round;stroke-linejoin:round;stroke-miterlimit:10;stroke-dasharray:none;stroke-opacity:1"
         id="path3691" /></g><g
       id="g3693"><g
         id="g3695"
         clip-path="url(#clipPath3699)"><g
           id="g3701"
           transform="translate(136.5557,246.9297)"><path
             d="m 0,0 h -48.396 l -80.66,-25.649 c 4.286,-1.698 8.576,-3.391 11.817,-6.115 7.17,-6.022 10.258,-18.011 18.409,-22.728 8.078,-4.674 19.997,-1.387 28.882,-4.622 8.729,-3.178 15.734,-13.386 25.093,-15.026 9.103,-1.594 19.163,5.579 28.723,5.579 9.557,0 19.616,-7.174 28.716,-5.58 9.358,1.639 16.364,11.847 25.093,15.024 8.883,3.234 20.802,-0.054 28.878,4.619 6.319,3.656 9.612,11.655 14.105,17.883 l -48.376,21.96"
             style="fill:none;stroke:#000000;stroke-width:15;stroke-linecap:round;stroke-linejoin:round;stroke-miterlimit:10;stroke-dasharray:none;stroke-opacity:1"
             id="path3703" /></g><g
           id="g3705"
           transform="translate(118.9111,117.3701)"><path
             d="m 0,0 -19.863,-27.808 c -1.736,-2.431 -1.987,-5.623 -0.651,-8.296 l 13.96,-27.919 H 17.645 L 4.537,-34.784 32.012,-2.269"
             style="fill:none;stroke:#000000;stroke-width:15;stroke-linecap:round;stroke-linejoin:round;stroke-miterlimit:10;stroke-dasharray:none;stroke-opacity:1"
             id="path3707" /></g><g
           id="g3709"
           transform="translate(88.1597,246.9297)"><path
             d="M 0,0 8.066,48.396"
             style="fill:none;stroke:#000000;stroke-width:15;stroke-linecap:round;stroke-linejoin:round;stroke-miterlimit:10;stroke-dasharray:none;stroke-opacity:1"
             id="path3711" /></g><g
           id="g3713"
           transform="translate(136.5557,246.9297)"><path
             d="M 0,0 24.198,48.396"
             style="fill:none;stroke:#000000;stroke-width:15;stroke-linecap:round;stroke-linejoin:round;stroke-miterlimit:10;stroke-dasharray:none;stroke-opacity:1"
             id="path3715" /></g><g
           id="g3717"
           transform="translate(144.6216,367.9194)"><path
             d="m 0,0 c 0,-13.364 -10.834,-24.198 -24.198,-24.198 -13.364,0 -24.198,10.834 -24.198,24.198 0,13.364 10.834,24.198 24.198,24.198 C -10.834,24.198 0,13.364 0,0 Z"
             style="fill:none;stroke:#000000;stroke-width:15;stroke-linecap:round;stroke-linejoin:round;stroke-miterlimit:10;stroke-dasharray:none;stroke-opacity:1"
             id="path3719" /></g><g
           id="g3721"
           transform="translate(104.2915,392.1172)"><path
             d="m 0,0 c 0,-8.909 -7.222,-16.132 -16.132,-16.132 -8.909,0 -16.132,7.223 -16.132,16.132 0,8.91 7.223,16.132 16.132,16.132 C -7.222,16.132 0,8.91 0,0 Z"
             style="fill:none;stroke:#000000;stroke-width:15;stroke-linecap:round;stroke-linejoin:round;stroke-miterlimit:10;stroke-dasharray:none;stroke-opacity:1"
             id="path3723" /></g><g
           id="g3725"
           transform="translate(217.2153,319.5234)"><path
             d="M 0,0 V -24.198"
             style="fill:none;stroke:#000000;stroke-width:15;stroke-linecap:round;stroke-linejoin:round;stroke-miterlimit:10;stroke-dasharray:none;stroke-opacity:1"
             id="path3727" /></g><g
           id="g3729"
           transform="translate(330.1392,347.1782)"><path
             d="M 0,0 -64.528,-27.655 H -229.88 c -6.682,0 -12.099,-5.417 -12.099,-12.098 0,-6.683 5.417,-12.1 12.099,-12.1 h 173.418 l 48.396,16.132 40.329,-64.528 h 56.462"
             style="fill:none;stroke:#000000;stroke-width:15;stroke-linecap:round;stroke-linejoin:round;stroke-miterlimit:10;stroke-dasharray:none;stroke-opacity:1"
             id="path3731" /></g><g
           id="g3733"
           transform="translate(364.7065,214.665)"><path
             d="m 0,0 -25.754,-36.055 c -5.391,-7.547 -5.994,-17.51 -1.553,-25.653 l 41.135,-75.413 -24.198,-24.197 h 56.462 v 32.263 l -40.33,80.66 47.153,47.153 c 5.804,5.804 8.271,14.155 6.55,22.181 L 38.026,120.99 85.337,148.025 c 5.999,3.429 11.018,8.341 14.573,14.267 l 38.184,63.64 c 2.815,4.691 2.075,10.696 -1.793,14.564 -5.071,5.071 -13.438,4.55 -17.841,-1.111 L 70.29,177.452 -2.305,146.34"
             style="fill:none;stroke:#000000;stroke-width:15;stroke-linecap:round;stroke-linejoin:round;stroke-miterlimit:10;stroke-dasharray:none;stroke-opacity:1"
             id="path3735" /></g><g
           id="g3737"
           transform="translate(378.5347,77.5444)"><path
             d="M 0,0 32.264,8.066"
             style="fill:none;stroke:#000000;stroke-width:15;stroke-linecap:round;stroke-linejoin:round;stroke-miterlimit:10;stroke-dasharray:none;stroke-opacity:1"
             id="path3739" /></g><g
           id="g3741"
           transform="translate(362.4023,246.9297)"><path
             d="m 0,0 -80.66,-64.528 -64.527,-104.857"
             style="fill:none;stroke:#000000;stroke-width:15;stroke-linecap:round;stroke-linejoin:round;stroke-miterlimit:10;stroke-dasharray:none;stroke-opacity:1"
             id="path3743" /></g><g
           id="g3745"
           transform="translate(241.4131,61.4126)"><path
             d="M 0,0 64.528,88.726"
             style="fill:none;stroke:#000000;stroke-width:15;stroke-linecap:round;stroke-linejoin:round;stroke-miterlimit:10;stroke-dasharray:none;stroke-opacity:1"
             id="path3747" /></g><g
           id="g3749"
           transform="translate(346.2705,392.1172)"><path
             d="m 0,0 c 0,-13.364 -10.833,-24.198 -24.198,-24.198 -13.364,0 -24.198,10.834 -24.198,24.198 0,13.364 10.834,24.198 24.198,24.198 C -10.833,24.198 0,13.364 0,0 Z"
             style="fill:none;stroke:#000000;stroke-width:15;stroke-linecap:round;stroke-linejoin:round;stroke-miterlimit:10;stroke-dasharray:none;stroke-opacity:1"
             id="path3751" /></g><g
           id="g3753"
           transform="translate(469.5537,431.9707)"><path
             d="M 0,0 17.476,-13.443"
             style="fill:none;stroke:#000000;stroke-width:15;stroke-linecap:round;stroke-linejoin:round;stroke-miterlimit:10;stroke-dasharray:none;stroke-opacity:1"
             id="path3755" /></g></g></g></g></svg>
