<?xml version="1.0" encoding="UTF-8"?>
<svg xmlns="http://www.w3.org/2000/svg" id="Layer_1" data-name="Layer 1" viewBox="0 0 64 64" width="512" height="512"><path d="M43.84033,38.19629A14.82369,14.82369,0,0,0,47,29a15.00055,15.00055,0,1,0-26.5,9.61621A15.81952,15.81952,0,0,1,24,48.81445v.46375A1.99369,1.99369,0,0,0,23,51v2a1.99369,1.99369,0,0,0,1,1.7218V55a4,4,0,0,0,3.08954,3.8858,4.98751,4.98751,0,0,0,9.82092,0A4,4,0,0,0,40,55v-.2782A1.99369,1.99369,0,0,0,41,53V51a1.99369,1.99369,0,0,0-1-1.7218v-.49793A17.19423,17.19423,0,0,1,43.84033,38.19629ZM32,61a2.995,2.995,0,0,1-2.81567-2h5.6314A2.99507,2.99507,0,0,1,32,61Zm4-4H28a2.00229,2.00229,0,0,1-2-2H38A2.00229,2.00229,0,0,1,36,57ZM25,53V51H39l.00146,2Zm13-4.21973V49H26v-.18555a17.81637,17.81637,0,0,0-3.96777-11.4834,12.99964,12.99964,0,1,1,20.231-.36523A19.17393,19.17393,0,0,0,38,48.78027Z"/><path d="M37.5,22.44629a2.41253,2.41253,0,0,0-.5.05176V21.5a2.5,2.5,0,0,0-3.38818-2.33691,2.4984,2.4984,0,0,0-4.2251.00293A2.4375,2.4375,0,0,0,28.5,19,2.531,2.531,0,0,0,26,21.55469v6.624l-.26465-.32617a2.45292,2.45292,0,0,0-4.08594,2.668l4.23243,8.03515A5.25189,5.25189,0,0,0,30.30273,41h4.39454a5.25189,5.25189,0,0,0,4.42089-2.44434A5.55364,5.55364,0,0,0,40,35.542V25A2.53015,2.53015,0,0,0,37.5,22.44629ZM38,35.542a3.56222,3.56222,0,0,1-.56348,1.93164A3.26058,3.26058,0,0,1,34.69727,39H30.30273a3.23562,3.23562,0,0,1-2.69531-1.45117l-4.18115-7.94629a.45287.45287,0,0,1,.75537-.49024l2.0415,2.51758A1.00019,1.00019,0,0,0,28,31V21.55469a.5027.5027,0,1,1,1,0V29h2V20.5a.5.5,0,0,1,1,0V29h2V21.5a.5.5,0,0,1,1,0V29h2V25a.5026.5026,0,1,1,1,0Z"/><path d="M16,13a6,6,0,1,0-6-6A6.00657,6.00657,0,0,0,16,13ZM16,3a4,4,0,1,1-4,4A4.00427,4.00427,0,0,1,16,3Z"/><path d="M61,26H53a.99974.99974,0,0,0-1,1v8a.99974.99974,0,0,0,1,1h8a.99974.99974,0,0,0,1-1V27A.99974.99974,0,0,0,61,26Zm-1,8H54V28h6Z"/><path d="M13.94824,32.502a1,1,0,0,0-.79736-.6709l-2.92725-.44726L8.90527,28.5752a1,1,0,0,0-1.81054,0L5.77637,31.38379l-2.92725.44726a.99978.99978,0,0,0-.56494,1.68653l2.14746,2.20117-.50879,3.12012A.99976.99976,0,0,0,5.39355,39.875L8,38.43457,10.60645,39.875a.99976.99976,0,0,0,1.4707-1.03613l-.50879-3.12012,2.14746-2.20117A.9995.9995,0,0,0,13.94824,32.502ZM9.78418,34.68359a.99948.99948,0,0,0-.271.85938L9.772,37.12891,8.48389,36.417a.9991.9991,0,0,0-.96778,0L6.228,37.12891,6.48682,35.543a.99948.99948,0,0,0-.271-.85938L5.0752,33.51465,6.606,33.28027a.99907.99907,0,0,0,.75439-.56347L8,31.35352l.63965,1.36328a.99907.99907,0,0,0,.75439.56347l1.53076.23438Z"/><path d="M44.12549,10.48438A.99912.99912,0,0,0,45,11H55a1.00054,1.00054,0,0,0,.84814-1.53027l-5-8a1.04018,1.04018,0,0,0-1.69628,0l-5,8A1.00037,1.00037,0,0,0,44.12549,10.48438ZM50,3.88672,53.1958,9H46.8042Z"/><path d="M5.02783,26.05273l1.99707-.10546C7.0083,25.63379,7,25.31738,7,25a18.574,18.574,0,0,1,3.99707-11.38965l-1.584-1.2207A20.55092,20.55092,0,0,0,5,25C5,25.35254,5.00928,25.7041,5.02783,26.05273Z"/><path d="M21.36768,44.00977a25.6436,25.6436,0,0,1-6.58887-3.791l-1.248,1.5625a27.62525,27.62525,0,0,0,7.10156,4.08789Z"/><path d="M53.75684,38.62793l-1.51368-1.30859a24.69036,24.69036,0,0,1-9.61084,6.69043l.73536,1.85937A26.6934,26.6934,0,0,0,53.75684,38.62793Z"/><path d="M53.00293,13.61035A18.71884,18.71884,0,0,1,56.9751,24.05273l1.99707-.10546a20.70694,20.70694,0,0,0-4.38526-11.55762Z"/><path d="M23.73633,3.09668l.52734,1.92969a29.74381,29.74381,0,0,1,19.333,1.36718l.80664-1.83007A31.75952,31.75952,0,0,0,23.73633,3.09668Z"/><path d="M52.13617,61.22015a12.25142,12.25142,0,0,0,.42487,1.18317A.99935.99935,0,0,0,53.47559,63c.03271,0,.06591-.002.09912-.00488.24511-.02442,6.02685-.63672,8.35107-4.32129,2.34668-3.71973.13037-8.85938.03467-9.07617a1.00857,1.00857,0,0,0-1.01367-.59278c-.21814.02173-4.81671.5152-7.46533,3.22-2.48639-2.08654-6.42371-2.12622-6.60987-2.12622h-.00146a1.00035,1.00035,0,0,0-.95313.69727c-.06054.1914-1.459,4.7168.88086,7.67285A8.72814,8.72814,0,0,0,52.13617,61.22015Zm2.15094-6.82757c1.377-2.18262,4.62939-3.01074,6.106-3.28223.44922,1.35156,1.19287,4.35352-.15869,6.49707-1.04328,1.65363-3.16028,2.52783-4.76868,2.97345a55.04763,55.04763,0,0,1,4.47473-7.26056l-1.61621-1.17773a57.16929,57.16929,0,0,0-4.56561,7.38269A7.03128,7.03128,0,0,1,54.28711,54.39258Zm-6.64356-2.2461a8.55777,8.55777,0,0,1,4.66388,1.70881,6.92451,6.92451,0,0,0-.56665,1.56768c-.07794-.08221-.15173-.169-.23053-.25012-.58154-.59961-1.20166-1.18359-1.84277-1.7373l-1.30664,1.51367c.59668.51562,1.17334,1.05957,1.71484,1.61621.51929.535,1.012,1.10052,1.48359,1.67786.02185.2843.0509.5625.0899.83056a6.042,6.042,0,0,1-3.283-1.84533C47.15039,55.69141,47.40625,53.33887,47.64355,52.14648Z"/></svg>
