<?xml version="1.0" encoding="UTF-8" standalone="no"?>
<!-- Created with Inkscape (http://www.inkscape.org/) -->

<svg
   version="1.1"
   id="svg4419"
   xml:space="preserve"
   width="682.66669"
   height="682.66669"
   viewBox="0 0 682.66669 682.66669"
   xmlns="http://www.w3.org/2000/svg"
   xmlns:svg="http://www.w3.org/2000/svg"><defs
     id="defs4423"><clipPath
       clipPathUnits="userSpaceOnUse"
       id="clipPath4441"><path
         d="M 0,512 H 512 V 0 H 0 Z"
         id="path4439" /></clipPath></defs><g
     id="g4425"
     transform="matrix(1.3333333,0,0,-1.3333333,0,682.66667)"><g
       id="g4427"
       transform="translate(282.5972,282.5361)"><path
         d="M 0,0 70.229,70.229"
         style="fill:none;stroke:#000000;stroke-width:15;stroke-linecap:round;stroke-linejoin:round;stroke-miterlimit:10;stroke-dasharray:none;stroke-opacity:1"
         id="path4429" /></g><g
       id="g4431"
       transform="translate(168.8291,168.7676)"><path
         d="M 0,0 65.434,65.435"
         style="fill:none;stroke:#000000;stroke-width:15;stroke-linecap:round;stroke-linejoin:round;stroke-miterlimit:10;stroke-dasharray:none;stroke-opacity:1"
         id="path4433" /></g><g
       id="g4435"><g
         id="g4437"
         clip-path="url(#clipPath4441)"><g
           id="g4443"
           transform="translate(133.8984,464.1924)"><path
             d="m 0,0 -66.297,-66.298 c -5.07,-5.069 -5.07,-13.289 0,-18.359 l 51.193,-51.195 c 4.838,-4.836 12.681,-4.836 17.518,0 l 52.411,52.412 c 8.952,8.952 12.375,21.912 9.441,34.226 -10.226,42.906 34.088,54.467 55.276,57.524 4.206,0.606 5.698,5.923 2.399,8.602 C 85.172,46.774 40.34,40.34 0,0 Z"
             style="fill:none;stroke:#000000;stroke-width:15;stroke-linecap:round;stroke-linejoin:round;stroke-miterlimit:10;stroke-dasharray:none;stroke-opacity:1"
             id="path4445" /></g><g
           id="g4447"
           transform="translate(27.3101,357.6045)"><path
             d="m 0,0 -16.048,-16.048 c -5.016,-5.016 -5.016,-13.15 0,-18.167 l 50.966,-50.966 c 5.017,-5.016 13.15,-5.016 18.167,0 l 16.048,16.048 c 5.016,5.017 5.016,13.15 0,18.166 L 18.167,0 C 13.15,5.016 5.017,5.016 0,0 Z"
             style="fill:none;stroke:#000000;stroke-width:15;stroke-linecap:round;stroke-linejoin:round;stroke-miterlimit:10;stroke-dasharray:none;stroke-opacity:1"
             id="path4449" /></g><g
           id="g4451"
           transform="translate(496.0781,85.1611)"><path
             d="M 0,0 -313.291,289.654 -354.095,248.851 -64.44,-64.44 c 10.106,-10.931 27.273,-11.267 37.8,-0.741 L 0.741,-37.8 C 11.267,-27.273 10.931,-10.105 0,0 Z"
             style="fill:none;stroke:#000000;stroke-width:15;stroke-linecap:round;stroke-linejoin:round;stroke-miterlimit:10;stroke-dasharray:none;stroke-opacity:1"
             id="path4453" /></g><g
           id="g4455"
           transform="translate(126.4082,70.0586)"><path
             d="m 0,0 -14.931,-14.932 c -2.684,-2.683 -6.325,-4.191 -10.121,-4.191 h -21.115 c -3.796,0 -7.437,1.508 -10.121,4.191 L -71.219,0 c -2.684,2.684 -4.193,6.324 -4.192,10.121 l -0.001,21.115 c 0,3.796 1.509,7.437 4.193,10.121 l 14.93,14.931 c 2.685,2.685 6.326,4.192 10.122,4.192 h 21.115 c 3.796,0 7.437,-1.507 10.121,-4.192 L 0,41.357 C 2.684,38.673 4.192,35.032 4.192,31.236 V 10.121 C 4.192,6.324 2.684,2.684 0,0 Z M 58.091,166.652 44.334,152.895 15.051,123.612 c -21.28,-21.281 -49.576,-19.531 -64.035,-21.92 -16.36,-2.702 -32.167,-10.31 -44.748,-22.891 -32.378,-32.378 -32.098,-85.048 0.841,-117.074 31.214,-30.35 81.47,-30.899 113.303,-1.201 13.767,12.844 22.062,29.424 24.953,46.599 2.458,14.604 0.695,42.95 21.959,64.215 l 29.282,29.282 11.638,11.638"
             style="fill:none;stroke:#000000;stroke-width:15;stroke-linecap:round;stroke-linejoin:round;stroke-miterlimit:10;stroke-dasharray:none;stroke-opacity:1"
             id="path4457" /></g><g
           id="g4459"
           transform="translate(334.7646,282.4307)"><path
             d="M 0,0 7.271,7.271 44.56,44.56 c 12.188,12.188 29.82,16.745 46.601,12.805 20.835,-4.89 42.464,4.23 53.498,22.597 l 19.217,31.988 c 5.818,9.686 6.333,21.659 1.368,31.808 -5.909,5.909 -15.577,5.909 -21.486,0 l -32.713,-32.713 c -2.738,-2.738 -6.413,-4.338 -10.283,-4.479 l -9.452,-0.339 c -4.253,-0.155 -8.379,1.468 -11.388,4.477 l -20.551,20.551 c -2.792,2.793 -4.399,6.556 -4.485,10.504 l -0.233,10.757 c -0.09,4.177 1.53,8.212 4.485,11.167 l 32.348,32.347 c 5.909,5.909 5.909,15.577 0,21.486 -10.15,4.965 -22.123,4.451 -31.808,-1.368 L 27.69,196.932 C 9.173,185.809 0.197,163.956 5.209,142.944 9.181,126.297 4.23,108.774 -7.878,96.667 l -37.123,-37.123 -9.76,-9.76"
             style="fill:none;stroke:#000000;stroke-width:15;stroke-linecap:round;stroke-linejoin:round;stroke-miterlimit:10;stroke-dasharray:none;stroke-opacity:1"
             id="path4461" /></g><g
           id="g4463"
           transform="translate(90.2417,312.8389)"><path
             d="M 0,0 22.027,22.028"
             style="fill:none;stroke:#000000;stroke-width:15;stroke-linecap:round;stroke-linejoin:round;stroke-miterlimit:10;stroke-dasharray:none;stroke-opacity:1"
             id="path4465" /></g><g
           id="g4467"
           transform="translate(72.0469,375.0898)"><path
             d="M 0,0 -22.028,-22.028"
             style="fill:none;stroke:#000000;stroke-width:15;stroke-linecap:round;stroke-linejoin:round;stroke-miterlimit:10;stroke-dasharray:none;stroke-opacity:1"
             id="path4469" /></g><g
           id="g4471"
           transform="translate(373.835,198.1816)"><path
             d="M 0,0 -55.217,-55.218"
             style="fill:none;stroke:#000000;stroke-width:15;stroke-linecap:round;stroke-linejoin:round;stroke-miterlimit:10;stroke-dasharray:none;stroke-opacity:1"
             id="path4473" /></g><g
           id="g4475"
           transform="translate(297.1841,166.1465)"><path
             d="M 0,0 53.469,53.469"
             style="fill:none;stroke:#000000;stroke-width:15;stroke-linecap:round;stroke-linejoin:round;stroke-miterlimit:10;stroke-dasharray:none;stroke-opacity:1"
             id="path4477" /></g></g></g></g></svg>
