<svg id="Icons" height="512" viewBox="0 0 512 512" width="512" xmlns="http://www.w3.org/2000/svg"><path d="m241.64 72.14c-51.87 6-105.4 38.27-134.18 84.67a6 6 0 1 0 10.13 6.44c26.41-42.55 73.75-72.34 121.26-78.64l8.82 19c1.37 3 1.46 4.14 1.42 4.51-3.14.63-6.85-1.33-10.44-1.45-12.36-1.06-23.31 9.48-22.45 21.93-13.25 3.21-27.55 8.62-40.69 8.45l-24.88-.35a6 6 0 0 0 -5.5 3.41c-4.68 9.78 4.48 19.33 13.79 22.68 8.19 3.5 9.54 4.78 7.6 13.43-2.11 8.52-.3 17.56 5.73 21.08 6.11 3.91 12.67 1.52 17.46-.22 2.74-1 5.85-2.13 7.26-1.47s2.26 3.8 3.07 6.84c1.39 6.39 5.51 17.09 17.65 16.87 5.67.18 10.7-2.89 15.34-6.29 4-2.65 8.56-5.66 11.64-10.43 3.38-5.23 4.69-13.19 0-19.18a33.87 33.87 0 0 0 -5.59-5.14c4.22-3.38 14.4 11.47 26 9.21 5.42-.84 15.72-1.38 23.79 4.36a6 6 0 0 0 9.47-5.34l-1.34-17.11c12.11-12.24 14.93-13.47 20.77-16a6 6 0 0 0 2.74-2.41c3.82-6.33 1.1-14-3.29-18.75-3.09-3.6-8.5-6.39-10.12-10.39a1.82 1.82 0 0 1 -.06-1.45c.41-.7 3.06-.68 5-.67a39.84 39.84 0 0 0 33.26-16.8 174.91 174.91 0 0 1 57.26 48.91c-9.75-1.76-23.05 0-29.64 7.21-4.21 4.55-5.39 10.24-6.44 15.25-.76 3.61-1.47 7-3.16 9.24-5.16 5.88-13.95 4.52-20.4 4.1-16.81-1.8-30.22.59-32 19.45l-2 14.18c-.62 4.5-2.08 15 5.52 20.92 4.76 3.61 9.53 3.26 14.3 4a14.86 14.86 0 0 1 11.26 9.81c1.35 4.44 1.25 9.39 2.92 14.07a26.5 26.5 0 0 0 24.43 17.51c1.52 0 4.88 3.67 6.89 9.64 1.31 3.88.49 8.31-2 10.78s-6.36 3.43-11.28 4.55c-17.17 3.32-28.72 10.46-34 29.85-2.8 8.43 10 17.21 17.9 24.4-12.48-1.43-18.27 7.74-15.32 21.54a10.34 10.34 0 0 1 .21 4c-6.11 1-14.86-3-19.13 4.28-9.66 17.42-22.78 28.35-39 32.53a184.92 184.92 0 0 1 -45.06-3.69c-14.12-8.45-21.35-19.8-21.45-33.76-.11-14.37 7.66-26.59 10.31-28.19 4.32-2.16 8.27-2.11 14.25-2 50.73 1.51 57.79-26.19 61.7-66.89 2.6-18.38 17.94-29.25 18.08-29.34 4.13-2.69 3.07-9.47-1.74-10.72-1.95-.56-48.2-13.35-84.17 16-36.13 29.44-30.59 75.66-30.33 77.61a6 6 0 0 0 11.48 1.56c9.49-22.53 24.4-38.3 45.56-48.21a6 6 0 1 0 -5.09-10.87 98.63 98.63 0 0 0 -38.5 31.19c8.46-44.36 49.21-62.78 86.54-57.7-8.25 9.11-13.7 21.22-14.71 36.85-3.6 38.58-14.51 49.3-48.68 48.56-6.6-.09-12.84-.16-19.75 3.3-7.56 3.78-16.41 20.4-16.93 37a47.65 47.65 0 0 0 7.31 27.33c-11.53-5-24.48-13.28-32.76-41-4.4-14.66.26-23 7.31-35.61 32.54-53.45 21-117.89-49.35-139.36-30.33-10-32.7-32.24-32.78-33.13-.25-5-6.74-7.44-10.2-3.82-.93.91-22.58 23-19.67 82.07 1.63 33 17.53 59.62 46 77.12a126.68 126.68 0 0 0 42.55 16.45 6 6 0 0 0 6.91-5.46c2.49-31.95-4.37-58.07-21.6-82.19-4.8-6.31-14.17.37-9.76 7 14.24 19.95 20.6 41.5 19.78 67.37-37.47-9.32-70.94-38.2-71.88-80.85-.92-33 2.68-46.68 9.94-63.25 4.73 9.92 15 22.87 37 30.12 19.84 6.53 34.91 16.08 44.8 28.38 21.82 25.77 14.46 67.55-2.18 93.73-7.29 13-14.18 25.38-8.33 44.91 10.35 34.57 27.9 44 45 50.77 120.35 44.36 251.3-48.42 248.19-177.65-.23-108.35-103.01-194.4-207.77-180.64zm71.85 35.58c-5.15.07-12.26-.63-16.75 6.51a13.57 13.57 0 0 0 -.83 11.93c2 5.18 5.83 8.39 8.91 11 2.17 1.8 4.87 4 5.42 6.5-6.58 3.1-11.26 6.57-23.72 19.33a6 6 0 0 0 -1.69 4.65l.71 9.4a49.31 49.31 0 0 0 -22.33-1.39c-2.22.36-5.46-1.87-8.58-4-5.79-4-16.58-11.44-26.74 1.07a7.72 7.72 0 0 0 -1.68 3.69c-1 6.2 3.7 10 6.51 12.21a17.37 17.37 0 0 1 2.5 2.23c.82 1.05.54 3.47-.63 5.28-2.39 3.71-7.9 6.53-11.85 9.44a8.38 8.38 0 0 1 -5.71 1.76c-2.86-.3-3.67-1.48-5.39-7.94-3.14-14.48-12.26-19.28-26-13.55-2.71 1-5.78 2.1-6.89 1.39-.86-.54-1.42-3.1-.78-6.75.11-.65.24-1.3.37-2 3.29-14-1.65-21.56-14.56-26.67a20.69 20.69 0 0 1 -5.45-3l17 .24c16.65.26 33.13-6.78 49.09-10a6 6 0 0 0 4.37-8.2 9.13 9.13 0 0 1 1-8.6c2.6-3.6 7.21-4.31 11.31-3 4.71 1.41 12.28 1.73 16.32-2.51 6.63-6.35 2.47-15.29 1.11-18.23l-7.11-15.29a174 174 0 0 1 82.89 14.34 27.61 27.61 0 0 1 -20.82 10.16zm75.25 268.62a173.05 173.05 0 0 1 -84.74 48.3 87.21 87.21 0 0 0 16.16-20.58c6 .23 13.19 2 18.51-3.64 3-3.3 3.83-8 2.63-14.35-1-5.12-.33-6.95-.16-7.32 3.37-.67 9.2 1.62 12.79 1.46 5 0 7.51-3.13 8.17-6 3-10.14-17.37-21.29-23.33-29.57 4.27-14.39 11.83-17.69 24.88-20.42 5.07-1.16 12-2.75 17-7.72 5.72-5.66 7.7-15 4.93-23.16-2.91-8.59-9.22-17.78-18.25-17.79a14.36 14.36 0 0 1 -13.08-9.38c-1.39-4.36-1.29-9.3-2.88-13.93a26.81 26.81 0 0 0 -20.37-17.83c-2.74-.61-7.23-.42-9.11-1.71-1.4-1.09-1.73-4.38-1-9.79l2-14.19c.71-4.93 1-8.51 6.73-9.22 6.07-1 13.11.45 19.59.56 10.55.25 19-3 23.7-9.26 3.34-4.38 4.41-9.52 5.36-14.05.84-4 1.56-7.45 3.51-9.56 6.95-6.15 21.3-4.54 29.05.09a6 6 0 0 0 2.66.78c39.23 64.66 29 154.41-24.75 208.28z"/></svg>