<svg width="27" height="26" viewBox="0 0 27 26" fill="none" xmlns="http://www.w3.org/2000/svg">
<g clip-path="url(#clip0_20_16)">
<path fill-rule="evenodd" clip-rule="evenodd" d="M0.937591 13.9295C0.794641 13.7225 0.846591 13.4387 1.05363 13.2957C1.26066 13.1528 1.54443 13.2047 1.68738 13.4118C2.44737 14.5153 4.01077 15.4764 6.08625 16.1648C10.4749 17.6204 16.5252 17.6204 20.9137 16.1648C22.9892 15.4764 24.5525 14.5153 25.3126 13.4118C25.4555 13.2047 25.7393 13.1528 25.9463 13.2957C26.1534 13.4387 26.2053 13.7225 26.0624 13.9295C25.1894 15.197 23.4619 16.2784 21.1994 17.0289C16.6108 18.5508 10.3891 18.5508 5.80061 17.0289C3.53805 16.2784 1.81057 15.197 0.937591 13.9295ZM16.7031 7.2935L16.7045 12.3224C16.7046 12.6489 16.3582 12.9015 16.016 12.7165L13.4416 11.4438L10.9614 12.7277C10.6627 12.8819 10.3157 12.6686 10.2972 12.3494C10.2083 10.7705 10.2955 8.90515 10.2955 7.2935C10.2955 7.01832 10.5294 6.80174 10.8334 6.84363C11.2596 6.88517 11.6949 6.91711 12.1381 6.93869C13.4774 7.0039 14.8803 6.97059 16.2029 6.84013C16.4686 6.81382 16.7029 7.02665 16.7031 7.2935ZM15.7905 11.5879V7.79192C14.2644 7.91476 12.7357 7.91476 11.2096 7.79192V11.5724C11.8784 11.2262 12.5639 10.8479 13.2391 10.5221C13.3611 10.4635 13.5078 10.4595 13.6386 10.5241L15.7905 11.5879ZM3.97025 4.98834C5.45839 5.78043 7.27854 6.30225 9.04405 6.60405C9.45726 6.67468 9.44726 7.02614 9.36662 7.32697L8.05474 12.2232C7.97003 12.5399 7.57023 12.6907 7.29032 12.4274L5.13202 10.5309L2.40238 11.1295C2.07362 11.201 1.76944 10.8993 1.86882 10.5512L3.28724 5.25758C3.36712 4.95909 3.71213 4.82701 3.97025 4.98834ZM5.97463 6.80047C5.27147 6.5752 4.61806 6.3185 4.02402 6.03484L2.94106 10.0765L5.10394 9.60217C5.27101 9.56556 5.41634 9.56861 5.55843 9.69297L7.36279 11.2785L8.39822 7.41416C7.5422 7.24897 6.73036 7.04259 5.97463 6.80047ZM23.7375 5.25758L25.1559 10.5512C25.2553 10.8993 24.9511 11.201 24.6223 11.1295L21.8927 10.5309L19.7344 12.4274C19.4545 12.6907 19.0547 12.5399 18.97 12.2232L17.6155 7.16777C17.547 6.91031 17.717 6.64513 17.9796 6.60008C18.9709 6.42926 19.8973 6.2047 20.741 5.9347C21.5811 5.66581 22.3407 5.35254 23.0019 5.00302C23.2641 4.83747 23.6484 4.9242 23.7375 5.25758ZM22.9979 6.02423C21.6658 6.66336 20.1398 7.11572 18.6253 7.40969L19.662 11.2785L21.4663 9.69297C21.579 9.5944 21.7265 9.56129 21.8624 9.59054L24.0837 10.0765L22.9979 6.02423ZM0.937591 1.97051C1.81057 3.23806 3.53805 4.31945 5.80061 5.06989C10.3891 6.59181 16.6108 6.59181 21.1994 5.06989C23.462 4.31945 25.1894 3.23806 26.0624 1.97051C26.2053 1.76348 26.1534 1.47971 25.9463 1.33676C25.7393 1.19381 25.4555 1.24576 25.3126 1.4528C24.5526 2.55632 22.9892 3.51746 20.9137 4.20585C16.5251 5.66139 10.4748 5.66139 6.08625 4.20585C4.01082 3.51746 2.44742 2.55632 1.68743 1.4528C1.54448 1.24576 1.26071 1.19381 1.05368 1.33676C0.846641 1.47971 0.794641 1.76348 0.937591 1.97051ZM16.7046 19.4078V24.2814C16.7046 24.6079 16.3582 24.8605 16.016 24.6755L13.4416 23.4027L10.9614 24.6866C10.6045 24.871 10.2955 24.5834 10.2955 24.2143V19.2525C10.2955 18.9774 10.5295 18.7608 10.8335 18.8027C11.2597 18.8442 11.695 18.8762 12.1381 18.8977C13.4775 18.9629 14.8803 18.9296 16.2029 18.7992C16.6145 18.7584 16.7046 19.0979 16.7046 19.4078ZM15.7905 23.5469V19.7509C14.2644 19.8737 12.7357 19.8737 11.2096 19.7509V23.5314L13.185 22.5088C13.3352 22.4311 13.4744 22.402 13.6386 22.483L15.7905 23.5469ZM3.97025 16.9473C3.71213 16.786 3.36712 16.9181 3.28724 17.2166L1.86887 22.5102C1.76949 22.8583 2.07367 23.16 2.40243 23.0885L5.13207 22.4899L7.29038 24.3864C7.57033 24.6497 7.97008 24.4989 8.05479 24.1822L9.38266 19.2263C9.46077 18.9349 9.40105 18.6241 9.04411 18.563C7.27854 18.2612 5.45844 17.7394 3.97025 16.9473ZM5.97463 18.7595C5.27147 18.5342 4.61806 18.2775 4.02402 17.9938L2.94106 22.0355L5.10556 21.5608C5.27197 21.5243 5.41726 21.5285 5.55843 21.652L7.36279 23.2375L8.39822 19.3731C7.5422 19.208 6.73036 19.0016 5.97463 18.7595ZM23.7375 17.2166C23.6484 16.8832 23.2641 16.7965 23.0018 16.962C22.3406 17.3115 21.581 17.6248 20.7409 17.8937C19.8973 18.1637 18.9708 18.3882 17.9795 18.5591C17.672 18.6118 17.5531 18.8945 17.6279 19.1735L18.9699 24.1822C19.0546 24.4989 19.4544 24.6498 19.7343 24.3865L21.8926 22.4899L24.6222 23.0885C24.951 23.1601 25.2552 22.8583 25.1558 22.5102L23.7375 17.2166ZM22.9979 17.9832C21.6658 18.6223 20.1398 19.0747 18.6253 19.3687L19.662 23.2375L21.4663 21.652C21.5991 21.5358 21.7446 21.5225 21.9053 21.5578L24.0837 22.0355L22.9979 17.9832Z" fill="#7A7A7A"/>
</g>
<defs>
<clipPath id="clip0_20_16">
<rect width="26" height="26" fill="white" transform="translate(0.5)"/>
</clipPath>
</defs>
</svg>
