<?xml version="1.0" encoding="UTF-8" standalone="no"?>
<!-- Created with Inkscape (http://www.inkscape.org/) -->

<svg
   version="1.1"
   id="svg4743"
   xml:space="preserve"
   width="682.66669"
   height="682.66669"
   viewBox="0 0 682.66669 682.66669"
   xmlns="http://www.w3.org/2000/svg"
   xmlns:svg="http://www.w3.org/2000/svg"><defs
     id="defs4747"><clipPath
       clipPathUnits="userSpaceOnUse"
       id="clipPath4757"><path
         d="M 0,512 H 512 V 0 H 0 Z"
         id="path4755" /></clipPath></defs><g
     id="g4749"
     transform="matrix(1.3333333,0,0,-1.3333333,0,682.66667)"><g
       id="g4751"><g
         id="g4753"
         clip-path="url(#clipPath4757)"><g
           id="g4759"
           transform="translate(220.7617,351.3965)"><path
             d="m 0,0 c 0,5.523 -4.478,10 -10,10 -5.522,0 -10,-4.477 -10,-10 0,-5.522 4.478,-10 10,-10 5.522,0 10,4.478 10,10"
             style="fill:#000000;fill-opacity:1;fill-rule:nonzero;stroke:none"
             id="path4761" /></g><g
           id="g4763"
           transform="translate(172.4258,337.7314)"><path
             d="m 0,0 c 0,6.217 -5.039,11.256 -11.256,11.256 -6.216,0 -11.255,-5.039 -11.255,-11.256 0,-6.216 5.039,-11.255 11.255,-11.255 C -5.039,-11.255 0,-6.216 0,0"
             style="fill:#000000;fill-opacity:1;fill-rule:nonzero;stroke:none"
             id="path4765" /></g><g
           id="g4767"
           transform="translate(174.0566,290.3047)"><path
             d="m 0,0 c 0,6.038 -4.895,10.934 -10.934,10.934 -6.038,0 -10.932,-4.896 -10.932,-10.934 0,-6.038 4.894,-10.933 10.932,-10.933 C -4.895,-10.933 0,-6.038 0,0"
             style="fill:#000000;fill-opacity:1;fill-rule:nonzero;stroke:none"
             id="path4769" /></g><g
           id="g4771"
           transform="translate(226.5898,274.3398)"><path
             d="M 0,0 C 0,6.066 -4.918,10.984 -10.984,10.984 -17.052,10.984 -21.97,6.066 -21.97,0 c 0,-6.067 4.918,-10.985 10.986,-10.985 C -4.918,-10.985 0,-6.067 0,0"
             style="fill:#000000;fill-opacity:1;fill-rule:nonzero;stroke:none"
             id="path4773" /></g><g
           id="g4775"
           transform="translate(211.0898,313.2412)"><path
             d="m 0,0 c 0,6.629 -5.374,12.003 -12.003,12.003 -6.629,0 -12.003,-5.374 -12.003,-12.003 0,-6.629 5.374,-12.003 12.003,-12.003 C -5.374,-12.003 0,-6.629 0,0"
             style="fill:#000000;fill-opacity:1;fill-rule:nonzero;stroke:none"
             id="path4777" /></g><g
           id="g4779"
           transform="translate(254.2559,317.4336)"><path
             d="m 0,0 c 0,6.058 -4.911,10.969 -10.97,10.969 -6.057,0 -10.968,-4.911 -10.968,-10.969 0,-6.059 4.911,-10.97 10.968,-10.97 C -4.911,-10.97 0,-6.059 0,0"
             style="fill:#000000;fill-opacity:1;fill-rule:nonzero;stroke:none"
             id="path4781" /></g><g
           id="g4783"
           transform="translate(88.5078,10)"><path
             d="M 0,0 C 7.605,80.92 37.164,155.455 82.657,217.589"
             style="fill:none;stroke:#000000;stroke-width:20;stroke-linecap:round;stroke-linejoin:round;stroke-miterlimit:10;stroke-dasharray:none;stroke-opacity:1"
             id="path4785" /></g><g
           id="g4787"
           transform="translate(225.6055,228.7158)"><path
             d="m 0,0 14.813,-27.149 c 10.538,-19.313 7.09,-43.26 -8.466,-58.817 -19.367,-19.366 -50.764,-19.366 -70.13,0 -15.557,15.557 -19.004,39.504 -8.467,58.817 l 14.987,27.466"
             style="fill:none;stroke:#000000;stroke-width:20;stroke-linecap:round;stroke-linejoin:round;stroke-miterlimit:10;stroke-dasharray:none;stroke-opacity:1"
             id="path4789" /></g><g
           id="g4791"
           transform="translate(225.6055,401.5088)"><path
             d="m 0,0 14.813,27.149 c 10.538,19.314 7.09,43.261 -8.466,58.818 -19.367,19.365 -50.764,19.365 -70.13,0 C -79.34,70.41 -82.787,46.463 -72.25,27.149 l 14.987,-27.465"
             style="fill:none;stroke:#000000;stroke-width:20;stroke-linecap:round;stroke-linejoin:round;stroke-miterlimit:10;stroke-dasharray:none;stroke-opacity:1"
             id="path4793" /></g><g
           id="g4795"
           transform="translate(110.4902,286.3945)"><path
             d="m 0,0 -27.149,-14.813 c -19.313,-10.538 -43.26,-7.091 -58.817,8.466 -19.366,19.366 -19.366,50.764 0,70.13 15.557,15.557 39.504,19.004 58.817,8.466 L 0.317,57.263"
             style="fill:none;stroke:#000000;stroke-width:20;stroke-linecap:round;stroke-linejoin:round;stroke-miterlimit:10;stroke-dasharray:none;stroke-opacity:1"
             id="path4797" /></g><g
           id="g4799"
           transform="translate(283.2832,286.3945)"><path
             d="m 0,0 27.149,-14.813 c 19.314,-10.538 43.261,-7.091 58.818,8.466 19.366,19.366 19.366,50.764 0,70.13 C 70.41,79.34 46.463,82.787 27.149,72.249 L -0.316,57.263"
             style="fill:none;stroke:#000000;stroke-width:20;stroke-linecap:round;stroke-linejoin:round;stroke-miterlimit:10;stroke-dasharray:none;stroke-opacity:1"
             id="path4801" /></g><g
           id="g4803"
           transform="translate(156.1025,233.7148)"><path
             d="m 0,0 -8.724,-29.673 c -6.205,-21.107 -25.575,-35.602 -47.576,-35.602 -27.388,0 -49.589,22.201 -49.589,49.588 0,22.001 14.495,41.372 35.603,47.577 l 30.019,8.825"
             style="fill:none;stroke:#000000;stroke-width:20;stroke-linecap:round;stroke-linejoin:round;stroke-miterlimit:10;stroke-dasharray:none;stroke-opacity:1"
             id="path4805" /></g><g
           id="g4807"
           transform="translate(278.2852,355.8975)"><path
             d="M 0,0 29.672,8.723 C 50.78,14.928 65.275,34.299 65.275,56.299 V 56.3 c 0,27.387 -22.202,49.589 -49.588,49.589 -22.001,0 -41.373,-14.495 -47.578,-35.604 l -8.824,-30.018"
             style="fill:none;stroke:#000000;stroke-width:20;stroke-linecap:round;stroke-linejoin:round;stroke-miterlimit:10;stroke-dasharray:none;stroke-opacity:1"
             id="path4809" /></g><g
           id="g4811"
           transform="translate(115.4893,355.8975)"><path
             d="M 0,0 -29.673,8.723 C -50.78,14.928 -65.275,34.299 -65.275,56.299 V 56.3 c 0,27.387 22.201,49.589 49.588,49.589 22.001,0 41.372,-14.495 47.577,-35.604 l 8.825,-30.018"
             style="fill:none;stroke:#000000;stroke-width:20;stroke-linecap:round;stroke-linejoin:round;stroke-miterlimit:10;stroke-dasharray:none;stroke-opacity:1"
             id="path4813" /></g><g
           id="g4815"
           transform="translate(237.6719,233.7148)"><path
             d="m 0,0 8.723,-29.673 c 6.205,-21.107 25.576,-35.602 47.577,-35.602 27.387,0 49.589,22.201 49.589,49.588 0,22.001 -14.495,41.372 -35.604,47.577 l -30.018,8.825"
             style="fill:none;stroke:#000000;stroke-width:20;stroke-linecap:round;stroke-linejoin:round;stroke-miterlimit:10;stroke-dasharray:none;stroke-opacity:1"
             id="path4817" /></g><g
           id="g4819"
           transform="translate(286.21,315.1123)"><path
             d="m 0,0 c 0,-49.331 -39.991,-89.322 -89.323,-89.322 -49.331,0 -89.323,39.991 -89.323,89.322 0,49.332 39.992,89.323 89.323,89.323 C -39.991,89.323 0,49.332 0,0 Z"
             style="fill:none;stroke:#000000;stroke-width:20;stroke-linecap:round;stroke-linejoin:round;stroke-miterlimit:10;stroke-dasharray:none;stroke-opacity:1"
             id="path4821" /></g><g
           id="g4823"
           transform="translate(396.1787,433.5186)"><path
             d="M 0,0 V 0"
             style="fill:none;stroke:#000000;stroke-width:20;stroke-linecap:round;stroke-linejoin:round;stroke-miterlimit:10;stroke-dasharray:none;stroke-opacity:1"
             id="path4825" /></g><g
           id="g4827"
           transform="translate(421.8945,502)"><path
             d="M 0,0 V 0"
             style="fill:none;stroke:#000000;stroke-width:20;stroke-linecap:round;stroke-linejoin:round;stroke-miterlimit:10;stroke-dasharray:none;stroke-opacity:1"
             id="path4829" /></g><g
           id="g4831"
           transform="translate(368.3984,486.4512)"><path
             d="M 0,0 V 0"
             style="fill:none;stroke:#000000;stroke-width:20;stroke-linecap:round;stroke-linejoin:round;stroke-miterlimit:10;stroke-dasharray:none;stroke-opacity:1"
             id="path4833" /></g><g
           id="g4835"
           transform="translate(478.7695,467.6807)"><path
             d="M 0,0 V 0"
             style="fill:none;stroke:#000000;stroke-width:20;stroke-linecap:round;stroke-linejoin:round;stroke-miterlimit:10;stroke-dasharray:none;stroke-opacity:1"
             id="path4837" /></g><g
           id="g4839"
           transform="translate(480.9766,425.459)"><path
             d="M 0,0 C 11.611,0 21.023,-9.412 21.023,-21.023 21.023,-32.634 11.611,-42.046 0,-42.046 h -75.788"
             style="fill:none;stroke:#000000;stroke-width:20;stroke-linecap:round;stroke-linejoin:round;stroke-miterlimit:10;stroke-dasharray:none;stroke-opacity:1"
             id="path4841" /></g><g
           id="g4843"
           transform="translate(440.4775,336.2861)"><path
             d="M 0,0 H 33.411"
             style="fill:none;stroke:#000000;stroke-width:20;stroke-linecap:round;stroke-linejoin:round;stroke-miterlimit:10;stroke-dasharray:none;stroke-opacity:1"
             id="path4845" /></g></g></g></g></svg>
