<svg version="1.1" id="Capa_1" xmlns="http://www.w3.org/2000/svg" xmlns:xlink="http://www.w3.org/1999/xlink" x="0px" y="0px" viewBox="0 0 512 512" style="enable-background:new 0 0 512 512;" xml:space="preserve">
<g>
	<path style="fill:none;stroke:#000000;stroke-width:15;stroke-linecap:round;stroke-linejoin:round;stroke-miterlimit:10;" d="&#10;&#9;&#9;M226.766,128.387l-94.311,66.719c-11.871,8.398-28.302,5.583-36.7-6.288l0,0c-3.149-4.452-2.093-10.613,2.358-13.763l49.465-34.993&#10;&#9;&#9;"/>
	<path style="fill:none;stroke:#000000;stroke-width:15;stroke-linecap:round;stroke-linejoin:round;stroke-miterlimit:10;" d="&#10;&#9;&#9;M248.912,124.906l-57.029,82.802c-8.248,11.976-24.643,14.997-36.618,6.749l0,0c-4.491-3.093-5.624-9.241-2.531-13.732&#10;&#9;&#9;l26.21-38.055"/>
	<path style="fill:none;stroke:#000000;stroke-width:15;stroke-linecap:round;stroke-linejoin:round;stroke-miterlimit:10;" d="&#10;&#9;&#9;M397.692,114.368l0.565-5.006c1.105-11.278,14.157-63.162,73.369-88.785"/>
	<path style="fill:none;stroke:#000000;stroke-width:15;stroke-linecap:round;stroke-linejoin:round;stroke-miterlimit:10;" d="&#10;&#9;&#9;M131.334,101.995l-42.835,9.713c-3.268,0.741-5.401,3.891-4.875,7.201l0.063,0.396c2.469,15.547,16.991,26.199,32.552,23.879&#10;&#9;&#9;c44.346-6.61,129.963-19.324,173.141-25.734c16.172-2.401,32.346,4.29,42.102,17.411l0,0c9.707,13.056,11.581,30.345,4.895,45.177&#10;&#9;&#9;l-7.402,16.422c-7.096,15.742-5.33,34.064,4.643,48.16l0,0c7.542,10.661,22.298,13.189,32.958,5.646l0,0&#10;&#9;&#9;c2.464-1.744,3.479-4.906,2.49-7.758l-3.799-10.953c-3.407-9.822-2.12-20.665,3.493-29.417l10.866-16.943&#10;&#9;&#9;c6.665-10.392,11.365-21.884,13.903-33.904l0.217-1.922"/>
	<path style="fill:none;stroke:#000000;stroke-width:15;stroke-linecap:round;stroke-linejoin:round;stroke-miterlimit:10;" d="&#10;&#9;&#9;M341.578,20.504c-9.736,7.293-20.164,13.644-31.146,18.956l-54.618,26.422c-20.388,9.863-41.834,17.372-63.922,22.38l-26.346,5.974&#10;&#9;&#9;"/>
	<path style="fill:none;stroke:#000000;stroke-width:15;stroke-linecap:round;stroke-linejoin:round;stroke-miterlimit:10;" d="&#10;&#9;&#9;M289.3,289.162c2.276,8.805,11.259,14.099,20.064,11.823s14.099-11.259,11.823-20.064c-3.928-15.2-23.809-26.312-23.809-26.312&#10;&#9;&#9;S285.372,273.963,289.3,289.162z"/>
	<path style="fill:none;stroke:#000000;stroke-width:15;stroke-linecap:round;stroke-linejoin:round;stroke-miterlimit:10;" d="&#10;&#9;&#9;M201.303,260.242c-6.431,6.431-6.431,16.857,0,23.288c6.431,6.431,16.857,6.431,23.288,0c11.101-11.101,10.582-33.87,10.582-33.87&#10;&#9;&#9;S212.404,249.141,201.303,260.242z"/>
	<path style="fill:none;stroke:#000000;stroke-width:15;stroke-linecap:round;stroke-linejoin:round;stroke-miterlimit:10;" d="&#10;&#9;&#9;M235.177,354.492c0,11.5,9.323,20.823,20.823,20.823c11.5,0,20.823-9.323,20.823-20.823c0-19.852-20.823-39.747-20.823-39.747&#10;&#9;&#9;S235.177,334.64,235.177,354.492z"/>
	<path style="fill:none;stroke:#000000;stroke-width:15;stroke-linecap:round;stroke-linejoin:round;stroke-miterlimit:10;" d="&#10;&#9;&#9;M250.148,191.398c-4.667,10.511,0.07,22.815,10.581,27.482c10.511,4.667,22.815-0.07,27.482-10.581&#10;&#9;&#9;c8.057-18.144-2.901-44.778-2.901-44.778S258.205,173.254,250.148,191.398z"/>
	<path style="fill:none;stroke:#000000;stroke-width:15;stroke-linecap:round;stroke-linejoin:round;stroke-miterlimit:10;" d="&#10;&#9;&#9;M504.5,388.471h-57.236c-7.654,0-14.727,4.083-18.554,10.712l-13.306,23.047c-10.428,18.062-36.498,18.062-46.926,0l-13.306-23.047&#10;&#9;&#9;c-3.827-6.629-10.9-10.712-18.554-10.712h-23.65c-7.654,0-14.727,4.083-18.554,10.712l-13.306,23.047&#10;&#9;&#9;c-10.428,18.062-36.498,18.062-46.926,0l-13.306-23.047c-3.827-6.629-10.9-10.712-18.554-10.712h-24.651&#10;&#9;&#9;c-7.654,0-14.727,4.083-18.554,10.712l-13.306,23.047c-10.428,18.062-36.498,18.062-46.926,0l-13.306-23.047&#10;&#9;&#9;c-3.827-6.629-10.9-10.712-18.554-10.712H7.5"/>
	
		<line style="fill:none;stroke:#000000;stroke-width:15;stroke-linecap:round;stroke-linejoin:round;stroke-miterlimit:10;" x1="30.377" y1="467.281" x2="30.377" y2="467.281"/>
	
		<line style="fill:none;stroke:#000000;stroke-width:15;stroke-linecap:round;stroke-linejoin:round;stroke-miterlimit:10;" x1="173.328" y1="450.131" x2="173.328" y2="450.131"/>
	
		<line style="fill:none;stroke:#000000;stroke-width:15;stroke-linecap:round;stroke-linejoin:round;stroke-miterlimit:10;" x1="271.679" y1="491.496" x2="271.679" y2="491.496"/>
	
		<line style="fill:none;stroke:#000000;stroke-width:15;stroke-linecap:round;stroke-linejoin:round;stroke-miterlimit:10;" x1="474.725" y1="449.679" x2="474.725" y2="449.679"/>
	
		<line style="fill:none;stroke:#000000;stroke-width:15;stroke-linecap:round;stroke-linejoin:round;stroke-miterlimit:10;" x1="450.031" y1="472.243" x2="450.031" y2="472.243"/>
	
		<line style="fill:none;stroke:#000000;stroke-width:15;stroke-linecap:round;stroke-linejoin:round;stroke-miterlimit:10;" x1="140.415" y1="484.19" x2="140.415" y2="484.19"/>
	
		<line style="fill:none;stroke:#000000;stroke-width:15;stroke-linecap:round;stroke-linejoin:round;stroke-miterlimit:10;" x1="61.711" y1="469.111" x2="61.711" y2="469.111"/>
	
		<line style="fill:none;stroke:#000000;stroke-width:15;stroke-linecap:round;stroke-linejoin:round;stroke-miterlimit:10;" x1="47.111" y1="441.898" x2="47.111" y2="441.898"/>
	
		<line style="fill:none;stroke:#000000;stroke-width:15;stroke-linecap:round;stroke-linejoin:round;stroke-miterlimit:10;" x1="332.554" y1="429.269" x2="332.554" y2="429.269"/>
	
		<line style="fill:none;stroke:#000000;stroke-width:15;stroke-linecap:round;stroke-linejoin:round;stroke-miterlimit:10;" x1="304.68" y1="443.698" x2="304.68" y2="443.698"/>
	
		<line style="fill:none;stroke:#000000;stroke-width:15;stroke-linecap:round;stroke-linejoin:round;stroke-miterlimit:10;" x1="333.522" y1="458.708" x2="333.522" y2="458.708"/>
	<path style="fill:none;stroke:#000000;stroke-width:15;stroke-linecap:round;stroke-linejoin:round;stroke-miterlimit:10;" d="&#10;&#9;&#9;M44.775,386.473l-6.722-4.173c-23.559-14.625-35.166-42.646-28.848-69.646l2.666-11.392l9.94,6.171&#10;&#9;&#9;c11.78,7.312,20.571,17.974,25.628,30.182"/>
	<path style="fill:none;stroke:#000000;stroke-width:15;stroke-linecap:round;stroke-linejoin:round;stroke-miterlimit:10;" d="&#10;&#9;&#9;M77.917,362.8c-5.05,7.715-11.795,14.417-19.984,19.5l-5.988,3.717"/>
	<path style="fill:none;stroke:#000000;stroke-width:15;stroke-linecap:round;stroke-linejoin:round;stroke-miterlimit:10;" d="&#10;&#9;&#9;M47.407,385.966l-2.08-8.887c-6.318-27,5.289-55.022,28.848-69.646l9.94-6.171l2.666,11.392c1.308,5.591,1.848,11.226,1.672,16.777&#10;&#9;&#9;"/>
	<path style="fill:none;stroke:#000000;stroke-width:15;stroke-linecap:round;stroke-linejoin:round;stroke-miterlimit:10;" d="&#10;&#9;&#9;M462.862,387.76l-8.796-5.46c-23.559-14.625-35.166-42.646-28.848-69.646l2.666-11.392l9.94,6.171&#10;&#9;&#9;c11.78,7.312,20.571,17.974,25.628,30.182"/>
	<path style="fill:none;stroke:#000000;stroke-width:15;stroke-linecap:round;stroke-linejoin:round;stroke-miterlimit:10;" d="&#10;&#9;&#9;M463.616,386.802l-2.275-9.723c-6.318-27,5.289-55.022,28.848-69.646l9.94-6.171l2.666,11.392c6.318,27-5.289,55.022-28.848,69.646&#10;&#9;&#9;l-8.354,5.186"/>
</g>
<g>
</g>
<g>
</g>
<g>
</g>
<g>
</g>
<g>
</g>
<g>
</g>
<g>
</g>
<g>
</g>
<g>
</g>
<g>
</g>
<g>
</g>
<g>
</g>
<g>
</g>
<g>
</g>
<g>
</g>
</svg>