<svg width="26" height="26" viewBox="0 0 26 26" fill="none" xmlns="http://www.w3.org/2000/svg">
<g clip-path="url(#clip0_8_191)">
<path d="M11.9318 7.30427C13.2968 8.2186 15.2065 8.17094 16.7925 7.71897C17.055 8.39307 17.2297 9.0981 17.3125 9.81674L17.3273 10.8333H11.2667C11.0173 10.8334 10.7801 10.9408 10.6156 11.1281C10.4511 11.3154 10.3752 11.5646 10.4074 11.8118L10.8017 14.8451C10.8572 15.2723 11.2181 15.5939 11.6489 15.6L12.8947 25.2456C12.952 25.6768 13.3194 25.9992 13.7544 26H21.7789C22.2144 25.9991 22.5819 25.676 22.6386 25.2443L23.8845 15.6C24.3148 15.594 24.6755 15.2731 24.7316 14.8464C25.1732 11.4495 25.126 11.8564 25.126 11.8131C25.1585 11.5657 25.0828 11.3162 24.9183 11.1285C24.7537 10.9409 24.5162 10.8333 24.2667 10.8333H18.2L18.2208 9.81847C18.2997 9.09871 18.4746 8.39276 18.7408 7.7194C20.3259 8.17267 22.2365 8.2186 23.6011 7.30427C25.6811 5.91197 25.9844 2.70574 25.9978 2.56967C25.9984 2.54339 25.9964 2.51711 25.9918 2.49124C25.9893 2.42079 25.9671 2.35246 25.9276 2.29407V2.2906C25.9233 2.2841 25.9164 2.28107 25.912 2.275C25.8756 2.22272 25.8259 2.18101 25.7682 2.1541C25.7508 2.14248 25.7326 2.13234 25.7136 2.12377C25.5888 2.08044 22.6282 1.0426 20.5396 2.44097C18.6615 3.69764 18.2321 6.42764 18.1562 7.0473C17.9782 7.29136 17.846 7.5658 17.7662 7.8572C17.6859 7.5648 17.5538 7.28917 17.3762 7.0434C17.3004 6.41854 16.8688 3.69634 14.9929 2.44097C12.9064 1.04304 9.94586 2.08 9.82063 2.12334C9.80164 2.13197 9.78339 2.14211 9.76603 2.15367C9.70835 2.18073 9.65875 2.22241 9.62216 2.27457C9.61783 2.28064 9.61089 2.28367 9.60656 2.29017C9.56652 2.34966 9.54386 2.41914 9.54113 2.4908C9.53588 2.51676 9.53327 2.54318 9.53333 2.56967C9.54719 2.70574 9.85226 5.91197 11.9318 7.30427ZM10.5733 3.45844L15.9163 7.03604C12.9731 7.59807 11.2866 6.42937 10.5733 3.45844ZM21.7789 25.1333H13.7544L12.5233 15.6H23.01L21.7789 25.1333ZM23.8723 14.7333H11.661L11.2667 11.7H24.2667L23.8723 14.7333ZM19.62 7.03474L24.9626 3.45757C24.2485 6.4415 22.5533 7.592 19.62 7.03474ZM24.5202 2.71094L19.1793 6.2868C19.89 3.33667 21.554 2.14804 24.5202 2.71094ZM14.5128 3.16334C15.61 3.9 16.1239 5.33 16.3549 6.2894L11.0114 2.70964C11.9422 2.53154 13.4121 2.42667 14.5128 3.16334Z" fill="#7A7A7A"/>
<path d="M13.4333 12.5667H12.5667C12.3273 12.5667 12.1333 12.7607 12.1333 13C12.1333 13.2393 12.3273 13.4333 12.5667 13.4333H13.4333C13.6727 13.4333 13.8667 13.2393 13.8667 13C13.8667 12.7607 13.6727 12.5667 13.4333 12.5667Z" fill="#7A7A7A"/>
<path d="M15.1667 12.5667C14.9273 12.5667 14.7333 12.7607 14.7333 13C14.7333 13.2393 14.9273 13.4333 15.1667 13.4333H18.2C18.4393 13.4333 18.6333 13.2393 18.6333 13C18.6333 12.7607 18.4393 12.5667 18.2 12.5667H15.1667Z" fill="#7A7A7A"/>
<path d="M4.76667 26C7.3268 26 9.53333 19.2738 9.53333 15.9714C9.53333 12.9194 7.80433 12.0211 6.06667 11.7815V9.9554C6.61031 9.54963 6.93136 8.91171 6.93333 8.23333V2.16667C6.93333 0.97005 5.96328 0 4.76667 0C3.57005 0 2.6 0.97005 2.6 2.16667V8.23333C2.60198 8.91171 2.92302 9.54963 3.46667 9.9554V11.7815C1.729 12.0211 0 12.9194 0 15.9714C0 19.2738 2.20653 26 4.76667 26ZM5.5497 12.6C5.3222 14.7047 4.98333 15.7421 4.76667 15.9965C4.55 15.7421 4.21113 14.7047 3.98363 12.6C4.5047 12.5554 5.02863 12.5554 5.5497 12.6ZM3.46667 2.16667C3.46667 1.4487 4.0487 0.866667 4.76667 0.866667C5.48464 0.866667 6.06667 1.4487 6.06667 2.16667V8.23333C6.06667 8.9513 5.48464 9.53333 4.76667 9.53333C4.0487 9.53333 3.46667 8.9513 3.46667 8.23333V2.16667ZM4.33333 10.3567C4.61928 10.415 4.91405 10.415 5.2 10.3567V11.7087C4.90057 11.6978 4.64057 11.6974 4.33333 11.7087V10.3567ZM3.12563 12.7287C3.5763 16.9 4.4057 16.9 4.76667 16.9C5.12763 16.9 5.95703 16.9 6.4077 12.7287C7.98937 13.094 8.66667 14.1046 8.66667 15.9714C8.66667 19.2885 6.41333 25.1333 4.76667 25.1333C3.12 25.1333 0.866667 19.2885 0.866667 15.9714C0.866667 14.1046 1.54397 13.094 3.12563 12.7287Z" fill="#7A7A7A"/>
<path d="M4.76668 2.6C5.006 2.6 5.20001 2.40599 5.20001 2.16667C5.20001 1.92735 5.006 1.73334 4.76668 1.73334C4.52735 1.73334 4.33334 1.92735 4.33334 2.16667C4.33334 2.40599 4.52735 2.6 4.76668 2.6Z" fill="#7A7A7A"/>
</g>
<defs>
<clipPath id="clip0_8_191">
<rect width="26" height="26" fill="white"/>
</clipPath>
</defs>
</svg>
