<?xml version="1.0" encoding="UTF-8"?>
<svg xmlns="http://www.w3.org/2000/svg" xmlns:xlink="http://www.w3.org/1999/xlink" version="1.1" id="Capa_1" x="0px" y="0px" viewBox="0 0 512 512" style="enable-background:new 0 0 512 512;" xml:space="preserve" width="512" height="512">
<g>
	<g>
		<path style="fill:none;stroke:#000000;stroke-width:15;stroke-linecap:round;stroke-linejoin:round;stroke-miterlimit:10;" d="&#10;&#9;&#9;&#9;M238.989,50.552c113.223,0,205.338,92.114,205.338,205.338c0,56.277-22.757,107.339-59.553,144.467"/>
		<path style="fill:none;stroke:#000000;stroke-width:15;stroke-linecap:round;stroke-linejoin:round;stroke-miterlimit:10;" d="&#10;&#9;&#9;&#9;M238.99,100.92c85.45,0,154.969,69.519,154.969,154.969c0,42.446-17.153,80.961-44.891,108.977"/>
		<path style="fill:none;stroke:#000000;stroke-width:15;stroke-linecap:round;stroke-linejoin:round;stroke-miterlimit:10;" d="&#10;&#9;&#9;&#9;M313.58,329.15c13.76-14,23.62-31.86,27.79-51.77c1.45-6.94,2.22-14.13,2.22-21.49c0-31.16-13.69-59.17-35.37-78.34"/>
		<path style="fill:none;stroke:#000000;stroke-width:15;stroke-linecap:round;stroke-linejoin:round;stroke-miterlimit:10;" d="&#10;&#9;&#9;&#9;M278.49,159.04c-12.19-5-25.53-7.75-39.5-7.75"/>
		<path style="fill:none;stroke:#000000;stroke-width:15;stroke-linecap:round;stroke-linejoin:round;stroke-miterlimit:10;" d="&#10;&#9;&#9;&#9;M238.99,201.657c29.903,0,54.231,24.329,54.231,54.232c0,14.174-5.466,27.096-14.4,36.768"/>
		<path style="fill:none;stroke:#000000;stroke-width:15;stroke-linecap:round;stroke-linejoin:round;stroke-miterlimit:10;" d="&#10;&#9;&#9;&#9;M121.68,56.91c31.3-18.32,67.3-29.46,105.76-31.18c5.7-0.26,10.45,4.3,10.45,10v220.16l155.68,155.68&#10;&#9;&#9;&#9;c4.03,4.02,3.89,10.61-0.31,14.45c-25.02,22.86-55.09,40.27-88.34,50.36h-0.01"/>
		<path style="fill:none;stroke:#000000;stroke-width:15;stroke-linecap:round;stroke-linejoin:round;stroke-miterlimit:10;" d="&#10;&#9;&#9;&#9;M92.83,76.89C40.87,119.05,7.63,183.36,7.5,255.45C7.27,382.39,110.79,486.19,237.73,486.28c11.2,0.01,22.22-0.78,33-2.32"/>
		<path style="fill:none;stroke:#000000;stroke-width:15;stroke-linecap:round;stroke-linejoin:round;stroke-miterlimit:10;" d="&#10;&#9;&#9;&#9;M180.236,37.473l5.716,13.2c12.35,28.52,3.405,61.789-21.582,80.27l0,0c-10.654,7.88-18.636,18.838-22.868,31.396l-0.001,0.002&#10;&#9;&#9;&#9;c-6.357,18.861,1.468,39.588,18.703,49.543l0,0c18.387,10.62,25.89,33.339,17.443,52.821l-1.856,4.282&#10;&#9;&#9;&#9;c-11.597,26.745-37.965,44.053-67.117,44.053h0c-20.396,0-39.865-8.515-53.712-23.49L9.747,240.649"/>
		<path style="fill:none;stroke:#000000;stroke-width:15;stroke-linecap:round;stroke-linejoin:round;stroke-miterlimit:10;" d="&#10;&#9;&#9;&#9;M152.34,380.45c7.65,0.99,15.22,3.5,22.27,7.62c7.74,4.52,16.35,6.75,24.92,6.75c11.11,0,22.16-3.74,31.18-11.07&#10;&#9;&#9;&#9;c9.12-7.41,20.16-11.06,31.16-11.06c12.71,0,25.37,4.88,34.98,14.48l60.5,60.5"/>
		<path style="fill:none;stroke:#000000;stroke-width:15;stroke-linecap:round;stroke-linejoin:round;stroke-miterlimit:10;" d="&#10;&#9;&#9;&#9;M85.2,420.86l10.59-15.3c5.81-8.39,13.41-14.84,21.96-19.17"/>
	</g>
	
		<line style="fill:none;stroke:#000000;stroke-width:15;stroke-linecap:round;stroke-linejoin:round;stroke-miterlimit:10;" x1="291.992" y1="277.379" x2="471.973" y2="277.379"/>
	
		<line style="fill:none;stroke:#000000;stroke-width:15;stroke-linecap:round;stroke-linejoin:round;stroke-miterlimit:10;" x1="337.281" y1="217.373" x2="471.973" y2="217.373"/>
	
		<line style="fill:none;stroke:#000000;stroke-width:15;stroke-linecap:round;stroke-linejoin:round;stroke-miterlimit:10;" x1="360.56" y1="157.367" x2="471.973" y2="157.367"/>
	
		<line style="fill:none;stroke:#000000;stroke-width:15;stroke-linecap:round;stroke-linejoin:round;stroke-miterlimit:10;" x1="370.468" y1="97.361" x2="471.973" y2="97.361"/>
	
		<circle style="fill:none;stroke:#000000;stroke-width:15;stroke-linecap:round;stroke-linejoin:round;stroke-miterlimit:10;" cx="489.227" cy="97.361" r="15.273"/>
	
		<circle style="fill:none;stroke:#000000;stroke-width:15;stroke-linecap:round;stroke-linejoin:round;stroke-miterlimit:10;" cx="489.227" cy="157.367" r="15.273"/>
	
		<circle style="fill:none;stroke:#000000;stroke-width:15;stroke-linecap:round;stroke-linejoin:round;stroke-miterlimit:10;" cx="489.227" cy="217.373" r="15.273"/>
	
		<circle style="fill:none;stroke:#000000;stroke-width:15;stroke-linecap:round;stroke-linejoin:round;stroke-miterlimit:10;" cx="489.227" cy="277.379" r="15.273"/>
</g>















</svg>
