<svg id="Layer_1" height="512" viewBox="0 0 50 50" width="512" xmlns="http://www.w3.org/2000/svg"><g><g><g><path d="m40.4 10.3c-1.6.6-5.4-2.3-5.4-2.3-.4 5.8-2.1 11-5.4 15.2 3 4.7-2.7 6.5-1.3 25h-2.4l-.3-17.5c-2.3 1-6.7 1-9.2 0-3.2 5.6-2.7 11.3 0 17.2h-2.5s-1.7-5.8-2.5-11.6c1.8-5.3-3.9-9.6 2.2-14.5 8.3-1.5 10.7-6.8 13.4-5.9 3-1.5 3.8-10 7.8-11.9 1.4-.7 3.2.2 3.6 1.8v.1c-.1 1.2 2.6 1.9 2 4.4" style="fill:none;stroke:#000;stroke-linecap:round;stroke-linejoin:round;stroke-miterlimit:10;stroke-width:1.5"/></g><g><path d="m11.2 36.3c-1.8 1.9-.5 11.9-.5 11.9h-2.5l-.6-11.7 3.6-5.6" style="fill:none;stroke:#000;stroke-linecap:round;stroke-linejoin:round;stroke-miterlimit:10;stroke-width:1.5"/></g><g><path d="m11 24.7c-2.3.3-3 4.9-5.5 4.8" style="fill:none;stroke:#000;stroke-linecap:round;stroke-linejoin:round;stroke-miterlimit:10;stroke-width:1.5"/></g><g><path d="m37.2 4.3.8-1.6" style="fill:none;stroke:#000;stroke-linecap:round;stroke-linejoin:round;stroke-miterlimit:10;stroke-width:1.5"/></g><g><path d="m29.8 29.5s3.9 2.7 4.5 4.1c1 2.2 0 9.7 0 9.7h-2.6s.9-6.5 0-8.4c-.4-.8-2.6-2.4-2.6-2.4" style="fill:none;stroke:#000;stroke-linecap:round;stroke-linejoin:round;stroke-miterlimit:10;stroke-width:1.5"/></g><g><g><path d="m31 8.6c.7.5 1.1 1.2 1.1 2.1 0 1.4-1.1 2.5-2.5 2.5-.2 0-.4 0-.6-.1" style="fill:none;stroke:#000;stroke-linecap:round;stroke-linejoin:round;stroke-miterlimit:10;stroke-width:1.5"/></g><g><path d="m30.2 22.4c-.9-.4-1.5-1.3-1.5-2.3 0-1.4 1.1-2.5 2.5-2.5.6 0 1.1.2 1.5.5" style="fill:none;stroke:#000;stroke-linecap:round;stroke-linejoin:round;stroke-miterlimit:10;stroke-width:1.5"/></g><g><path d="m25.6 15.9c.2.4.3.8.3 1.2 0 1.4-1.1 2.5-2.5 2.5-.8 0-1.6-.4-2.1-1.1" style="fill:none;stroke:#000;stroke-linecap:round;stroke-linejoin:round;stroke-miterlimit:10;stroke-width:1.5"/></g><g><path d="m17.6 20.6c.1.3.2.6.2.9 0 1.4-1.1 2.5-2.5 2.5-1.1 0-2.1-.8-2.4-1.8" style="fill:none;stroke:#000;stroke-linecap:round;stroke-linejoin:round;stroke-miterlimit:10;stroke-width:1.5"/></g><g><path d="m17.8 31.1c0-.1 0-.2 0-.3 0-1.4 1.1-2.5 2.5-2.5s2.5 1.1 2.5 2.5v.5" style="fill:none;stroke:#000;stroke-linecap:round;stroke-linejoin:round;stroke-miterlimit:10;stroke-width:1.5"/></g><g><path d="m10.5 26.6c.2-.1.4-.1.7-.1 1.4 0 2.5 1.1 2.5 2.5s-1.1 2.5-2.4 2.5" style="fill:none;stroke:#000;stroke-linecap:round;stroke-linejoin:round;stroke-miterlimit:10;stroke-width:1.5"/></g></g><g><circle cx="23.3" cy="24.1" r="1.6" style="fill:none;stroke:#000;stroke-linecap:round;stroke-linejoin:round;stroke-miterlimit:10;stroke-width:1.5"/></g><g><path d="m35.8 3.8c.3-1.6-1.2-2.1-1.2-2.1s-1.5.8-.8 2.8" style="fill:none;stroke:#000;stroke-linecap:round;stroke-linejoin:round;stroke-miterlimit:10;stroke-width:1.5"/></g><g><path d="m1.8 48.2h46.5" style="fill:none;stroke:#000;stroke-linecap:round;stroke-linejoin:round;stroke-miterlimit:10;stroke-width:1.5"/></g><g><path d="m24.5 8.6c1 0 1.9.8 1.9 1.9 0-1 .8-1.9 1.9-1.9" style="fill:none;stroke:#000;stroke-linecap:round;stroke-linejoin:round;stroke-miterlimit:10;stroke-width:1.5"/></g><g><path d="m18.6 4.8c1 0 1.9.8 1.9 1.9 0-1 .8-1.9 1.9-1.9" style="fill:none;stroke:#000;stroke-linecap:round;stroke-linejoin:round;stroke-miterlimit:10;stroke-width:1.5"/></g><g><path d="m14.9 12.7c1 0 1.9.8 1.9 1.9 0-1 .8-1.9 1.9-1.9" style="fill:none;stroke:#000;stroke-linecap:round;stroke-linejoin:round;stroke-miterlimit:10;stroke-width:1.5"/></g><g><circle cx="7.8" cy="8.1" r="2.4" style="fill:none;stroke:#000;stroke-linecap:round;stroke-linejoin:round;stroke-miterlimit:10;stroke-width:1.5"/></g><g><g><g><path d="m7.8 3.3v-1.3" style="fill:none;stroke:#000;stroke-linecap:round;stroke-linejoin:round;stroke-miterlimit:10;stroke-width:1.5"/></g><g><path d="m7.8 14.2v-1.3" style="fill:none;stroke:#000;stroke-linecap:round;stroke-linejoin:round;stroke-miterlimit:10;stroke-width:1.5"/></g></g><g><g><path d="m12.7 8.1h1.2" style="fill:none;stroke:#000;stroke-linecap:round;stroke-linejoin:round;stroke-miterlimit:10;stroke-width:1.5"/></g><g><path d="m1.8 8.1h1.2" style="fill:none;stroke:#000;stroke-linecap:round;stroke-linejoin:round;stroke-miterlimit:10;stroke-width:1.5"/></g></g></g><g><g><g><path d="m11.2 4.7.9-.9" style="fill:none;stroke:#000;stroke-linecap:round;stroke-linejoin:round;stroke-miterlimit:10;stroke-width:1.5"/></g><g><path d="m3.5 12.4.9-.9" style="fill:none;stroke:#000;stroke-linecap:round;stroke-linejoin:round;stroke-miterlimit:10;stroke-width:1.5"/></g></g><g><g><path d="m11.2 11.5.9.9" style="fill:none;stroke:#000;stroke-linecap:round;stroke-linejoin:round;stroke-miterlimit:10;stroke-width:1.5"/></g><g><path d="m3.5 3.8.9.9" style="fill:none;stroke:#000;stroke-linecap:round;stroke-linejoin:round;stroke-miterlimit:10;stroke-width:1.5"/></g></g></g><g><path d="m48.3 34.5c0 2.9-2.4 5.3-5.3 5.3s-5.3-2.4-5.3-5.3 2.4-8.9 5.3-8.9 5.3 6 5.3 8.9z" style="fill:none;stroke:#000;stroke-linecap:round;stroke-linejoin:round;stroke-miterlimit:10;stroke-width:1.5"/></g><g><path d="m43 39.8v8.4" style="fill:none;stroke:#000;stroke-linecap:round;stroke-linejoin:round;stroke-miterlimit:10;stroke-width:1.5"/></g></g></g></svg>