<svg width="26" height="26" viewBox="0 0 26 26" fill="none" xmlns="http://www.w3.org/2000/svg">
<g clip-path="url(#clip0_10_212)">
<path d="M22.75 7.04166C22.75 6.61068 22.5788 6.19736 22.274 5.89261C21.9693 5.58786 21.556 5.41666 21.125 5.41666H4.875C4.49214 5.41593 4.12137 5.55073 3.82837 5.79718C3.53537 6.04363 3.33904 6.38582 3.27417 6.76315C3.20929 7.14047 3.28004 7.52859 3.4739 7.85875C3.66776 8.1889 3.97221 8.4398 4.33333 8.56699V9.20833C4.33599 10.8517 4.91268 12.4425 5.96374 13.7058C7.01479 14.9691 8.47416 15.8255 10.0896 16.127L7.48962 22.8199C7.3444 22.7754 7.19355 22.7518 7.04167 22.75C6.67873 22.7497 6.32612 22.8707 6.03982 23.0938C5.75353 23.3169 5.54996 23.6292 5.46145 23.9811C5.37293 24.3331 5.40455 24.7046 5.55128 25.0365C5.69801 25.3685 5.95144 25.6419 6.27132 25.8133C6.5912 25.9848 6.95919 26.0445 7.31686 25.9829C7.67453 25.9213 8.00136 25.742 8.24547 25.4734C8.48957 25.2048 8.63695 24.8624 8.66419 24.5005C8.69143 24.1386 8.59698 23.7779 8.39583 23.4758L9.51871 20.5833H16.25C16.3237 20.5833 16.3965 20.568 16.464 20.5384L18.4535 25.6544C18.493 25.7562 18.5624 25.8436 18.6525 25.9053C18.7425 25.967 18.8492 26 18.9583 26C19.0254 26.0002 19.092 25.9877 19.1544 25.9632C19.2883 25.9111 19.396 25.8081 19.4539 25.6766C19.5118 25.5452 19.5151 25.3961 19.4632 25.2622L15.9104 16.127C17.5258 15.8255 18.9852 14.9691 20.0363 13.7058C21.0873 12.4425 21.664 10.8517 21.6667 9.20833V8.56699C21.9824 8.45536 22.2559 8.24891 22.4499 7.97587C22.6438 7.70283 22.7486 7.37655 22.75 7.04166ZM7.04167 24.9167C6.93454 24.9167 6.82981 24.8849 6.74073 24.8254C6.65166 24.7659 6.58223 24.6813 6.54123 24.5823C6.50023 24.4833 6.48951 24.3744 6.51041 24.2693C6.53131 24.1642 6.5829 24.0677 6.65865 23.992C6.7344 23.9162 6.83092 23.8646 6.93599 23.8437C7.04107 23.8228 7.14998 23.8336 7.24895 23.8746C7.34793 23.9156 7.43253 23.985 7.49205 24.0741C7.55157 24.1631 7.58333 24.2679 7.58333 24.375C7.58333 24.5187 7.52626 24.6564 7.42468 24.758C7.3231 24.8596 7.18533 24.9167 7.04167 24.9167ZM16.0604 19.5H9.93958L11.2071 16.2413C11.2613 16.2413 11.3154 16.25 11.375 16.25H14.625C14.6819 16.25 14.7366 16.243 14.7929 16.2413L16.0604 19.5ZM21.125 7.58333C20.9813 7.58333 20.8436 7.64039 20.742 7.74198C20.6404 7.84356 20.5833 7.98133 20.5833 8.12499V9.20833C20.5815 10.788 19.9531 12.3024 18.8361 13.4194C17.7191 14.5364 16.2047 15.1648 14.625 15.1667H11.375C9.79532 15.1648 8.28088 14.5364 7.16388 13.4194C6.04688 12.3024 5.41853 10.788 5.41667 9.20833V8.66666H18.9583C19.102 8.66666 19.2398 8.60959 19.3414 8.50801C19.4429 8.40643 19.5 8.26865 19.5 8.12499C19.5 7.98133 19.4429 7.84356 19.3414 7.74198C19.2398 7.64039 19.102 7.58333 18.9583 7.58333H4.875C4.73134 7.58333 4.59357 7.52626 4.49198 7.42468C4.3904 7.32309 4.33333 7.18532 4.33333 7.04166C4.33333 6.898 4.3904 6.76023 4.49198 6.65864C4.59357 6.55706 4.73134 6.49999 4.875 6.49999H21.125C21.2687 6.49999 21.4064 6.55706 21.508 6.65864C21.6096 6.76023 21.6667 6.898 21.6667 7.04166C21.6667 7.18532 21.6096 7.32309 21.508 7.42468C21.4064 7.52626 21.2687 7.58333 21.125 7.58333Z" fill="#7A7A7A"/>
<path d="M7.3125 2.16667C7.38433 2.16667 7.45322 2.1952 7.50401 2.24599C7.5548 2.29678 7.58333 2.36567 7.58333 2.4375V3.79167C7.58333 3.93533 7.6404 4.0731 7.74198 4.17468C7.84357 4.27627 7.98134 4.33333 8.125 4.33333C8.26866 4.33333 8.40643 4.27627 8.50802 4.17468C8.6096 4.0731 8.66667 3.93533 8.66667 3.79167V2.4375C8.66667 2.07835 8.524 1.73392 8.27004 1.47996C8.01608 1.226 7.67165 1.08333 7.3125 1.08333C7.24067 1.08333 7.17178 1.0548 7.12099 1.00401C7.0702 0.953217 7.04167 0.884329 7.04167 0.8125V0.541667C7.04167 0.398008 6.9846 0.260233 6.88302 0.158651C6.78143 0.0570683 6.64366 0 6.5 0C6.35634 0 6.21857 0.0570683 6.11698 0.158651C6.0154 0.260233 5.95833 0.398008 5.95833 0.541667V0.8125C5.95833 1.17165 6.101 1.51609 6.35496 1.77004C6.60891 2.024 6.95335 2.16667 7.3125 2.16667Z" fill="#7A7A7A"/>
<path d="M11.1042 2.16667C11.176 2.16667 11.2449 2.1952 11.2957 2.24599C11.3465 2.29678 11.375 2.36567 11.375 2.4375V3.79167C11.375 3.93533 11.4321 4.0731 11.5337 4.17468C11.6352 4.27627 11.773 4.33333 11.9167 4.33333C12.0603 4.33333 12.1981 4.27627 12.2997 4.17468C12.4013 4.0731 12.4583 3.93533 12.4583 3.79167V2.4375C12.4583 2.07835 12.3157 1.73392 12.0617 1.47996C11.8078 1.226 11.4633 1.08333 11.1042 1.08333C11.0323 1.08333 10.9634 1.0548 10.9127 1.00401C10.8619 0.953217 10.8333 0.884329 10.8333 0.8125V0.541667C10.8333 0.398008 10.7763 0.260233 10.6747 0.158651C10.5731 0.0570683 10.4353 0 10.2917 0C10.148 0 10.0102 0.0570683 9.90865 0.158651C9.80707 0.260233 9.75 0.398008 9.75 0.541667V0.8125C9.75 1.17165 9.89267 1.51609 10.1466 1.77004C10.4006 2.024 10.745 2.16667 11.1042 2.16667Z" fill="#7A7A7A"/>
<path d="M14.8958 2.16667C14.9677 2.16667 15.0365 2.1952 15.0873 2.24599C15.1381 2.29678 15.1667 2.36567 15.1667 2.4375V3.79167C15.1667 3.93533 15.2237 4.0731 15.3253 4.17468C15.4269 4.27627 15.5647 4.33333 15.7083 4.33333C15.852 4.33333 15.9898 4.27627 16.0913 4.17468C16.1929 4.0731 16.25 3.93533 16.25 3.79167V2.4375C16.25 2.07835 16.1073 1.73392 15.8534 1.47996C15.5994 1.226 15.255 1.08333 14.8958 1.08333C14.824 1.08333 14.7551 1.0548 14.7043 1.00401C14.6535 0.953217 14.625 0.884329 14.625 0.8125V0.541667C14.625 0.398008 14.5679 0.260233 14.4663 0.158651C14.3648 0.0570683 14.227 0 14.0833 0C13.9397 0 13.8019 0.0570683 13.7003 0.158651C13.5987 0.260233 13.5417 0.398008 13.5417 0.541667V0.8125C13.5417 1.17165 13.6843 1.51609 13.9383 1.77004C14.1922 2.024 14.5367 2.16667 14.8958 2.16667Z" fill="#7A7A7A"/>
<path d="M18.6875 2.16667C18.7593 2.16667 18.8282 2.1952 18.879 2.24599C18.9298 2.29678 18.9583 2.36567 18.9583 2.4375V3.79167C18.9583 3.93533 19.0154 4.0731 19.117 4.17468C19.2186 4.27627 19.3563 4.33333 19.5 4.33333C19.6437 4.33333 19.7814 4.27627 19.883 4.17468C19.9846 4.0731 20.0417 3.93533 20.0417 3.79167V2.4375C20.0417 2.07835 19.899 1.73392 19.645 1.47996C19.3911 1.226 19.0466 1.08333 18.6875 1.08333C18.6157 1.08333 18.5468 1.0548 18.496 1.00401C18.4452 0.953217 18.4167 0.884329 18.4167 0.8125V0.541667C18.4167 0.398008 18.3596 0.260233 18.258 0.158651C18.1564 0.0570683 18.0187 0 17.875 0C17.7313 0 17.5936 0.0570683 17.492 0.158651C17.3904 0.260233 17.3333 0.398008 17.3333 0.541667V0.8125C17.3333 1.17165 17.476 1.51609 17.73 1.77004C17.9839 2.024 18.3284 2.16667 18.6875 2.16667Z" fill="#7A7A7A"/>
</g>
<defs>
<clipPath id="clip0_10_212">
<rect width="26" height="26" fill="white"/>
</clipPath>
</defs>
</svg>
