<svg id="Capa_1" enable-background="new 0 0 510.011 510.011" height="512" viewBox="0 0 510.011 510.011" width="512" xmlns="http://www.w3.org/2000/svg"><g><path d="m509.912 268.144c.158-5.49.062-6.246.092-28.134 0-5.523-4.478-10-10-10h-71.778l28.595-108.346c28.527-15.995 41.021-50.998 28.11-81.78-6.715-16.011-19.264-28.448-35.333-35.022-33.25-13.6-71.168 2.3-84.771 35.554-5.627 13.756-6.362 28.681-2.251 42.737l-83.8 146.857h-46.336c33.435-46.52 30.797-113.507-12.965-157.272l-19.801-19.8c-3.906-3.905-10.236-3.904-14.143 0l-19.802 19.802c-16.918 16.926-28.221 38.03-33.05 60.824-21.236-16.411-47.561-25.564-74.675-25.564h-28c-5.522 0-10 4.477-10 10v28c0 31.746 12.19 61.6 33.52 84.011h-43.52c-5.522 0-10 4.477-10 10v27.677c0 86.865 55.728 165.122 140 192.433v39.89c0 5.522 4.477 10 10 10h210c5.522 0 10-4.478 10-10v-40.273c104.42-34.746 127.553-131.293 131.779-140.336 4.779-16.248 7.618-33.494 8.129-51.258zm-126.573-220.155c9.384-22.941 35.595-34.061 58.686-24.614 23.019 9.414 34.032 35.664 24.614 58.687-9.393 22.967-35.721 34.008-58.687 24.613-23.018-9.415-34.03-35.664-24.613-58.686zm-9.955 56.58c14.028 18.372 37.248 28.16 60.72 24.795l-26.562 100.647h-105.738zm-193.509-17.687 12.729-12.729 12.73 12.728c39.485 39.488 39.86 103.185 1.092 143.13h-3.821v-71.011c0-5.523-4.477-10-10-10-5.522 0-10 4.477-10 10v71.01h-3.825c-39.227-40.554-37.897-104.118 1.095-143.128zm-139.871 59.118v-18h18c26.942 0 52.959 10.803 72.007 29.77-.225 21.212 4.999 42.922 16.531 62.626l-39.467-39.467c-3.906-3.904-10.236-3.904-14.143 0-3.905 3.905-3.905 10.237 0 14.143l34.938 34.939h-43.722c-27.696-19.095-44.144-50.284-44.144-84.011zm-20 104.011h470c-.104 12.305.771 27.743-3.945 50h-463.151c-4.215-23.367-2.506-39.692-2.904-50zm330 240h-190v-24.515c13.858 2.978 28.051 4.515 42.322 4.515h103.774c14.938 0 29.63-1.61 43.903-4.76v24.76zm-43.903-40h-103.775c-80.547 0-151.451-52.167-174.653-130h453.073c-22.951 76.587-94.63 130-174.645 130z"/></g></svg>