<svg enable-background="new 0 0 512 512" height="512" viewBox="0 0 512 512" width="512" xmlns="http://www.w3.org/2000/svg"><g id="_x31_32_x2C__Alternative_x2C__Food_x2C__Herb_x2C__Herbal_x2C__Medicine"><g><path d="m479.739 191.027c-1.332-7.486-10.236-10.809-16.146-6.012-61.093 49.585-136.912 7.184-189.084 61.339-23.587 24.508-40.534 54.009-50.3 86.418-7.691-16.079-17.816-30.796-30.073-43.506-41.087-42.702-100.145-9.942-146.632-47.71-5.906-4.798-14.82-1.487-16.152 6.013-21.95 123.642 72.559 222.668 196.967 206.11 158.512 21.217 279.593-104.445 251.42-262.652zm-430.798 75.7c48.922 27.975 100.062 4.478 130.791 36.415 17.839 18.499 30.148 40.855 36.636 66.455-2.702 21.086-2.577 42.989.47 65.226-100.989 8.557-177.019-67.73-167.897-168.096zm188.041 167.866c-9.462-64.184 7.546-128.246 51.934-174.366 41.686-43.271 109.678-10.428 173.426-49.827 15.013 135.36-88.442 239.07-225.36 224.193z"/><path d="m385.596 255.506c-25.983 7.046-56.301-1.545-79.15 22.174-26.872 27.92-38.073 67.579-30.731 108.808.964 5.414 6.135 9.063 11.598 8.092 5.438-.968 9.061-6.16 8.092-11.598-6.206-34.853 3.071-68.179 25.448-91.429 16.153-16.768 42.053-9.172 69.979-16.744 5.33-1.445 8.479-6.938 7.034-12.269s-6.94-8.481-12.27-7.034z"/><path d="m155.906 173.692h24.615v24.615c0 20.784 16.909 37.692 37.692 37.692s37.692-16.909 37.692-37.692v-24.615h24.616c20.783 0 37.692-16.909 37.692-37.692s-16.909-37.692-37.692-37.692h-24.616v-24.616c0-20.784-16.909-37.692-37.692-37.692s-37.692 16.909-37.692 37.692v24.615h-24.615c-20.784 0-37.692 16.909-37.692 37.692s16.908 37.693 37.692 37.693zm0-55.384h34.615c5.523 0 10-4.477 10-10v-34.616c0-9.755 7.937-17.692 17.692-17.692s17.692 7.937 17.692 17.692v34.615c0 5.523 4.477 10 10 10h34.616c9.756 0 17.692 7.937 17.692 17.692s-7.937 17.692-17.692 17.692h-34.616c-5.523 0-10 4.477-10 10v34.615c0 9.755-7.937 17.692-17.692 17.692s-17.692-7.937-17.692-17.692v-34.615c0-5.523-4.477-10-10-10h-34.615c-9.755 0-17.692-7.937-17.692-17.692s7.936-17.691 17.692-17.691z"/><path d="m78.213 116c16.542 0 30-13.458 30-30s-13.458-30-30-30-30 13.458-30 30 13.458 30 30 30zm0-40c5.514 0 10 4.486 10 10s-4.486 10-10 10-10-4.486-10-10 4.486-10 10-10z"/><path d="m418.214 146c22.056 0 40-17.944 40-40s-17.944-40-40-40-40 17.944-40 40 17.944 40 40 40zm0-60c11.028 0 20 8.972 20 20s-8.972 20-20 20-20-8.972-20-20 8.972-20 20-20z"/><circle cx="368.214" cy="46" r="10"/><circle cx="368.214" cy="166" r="10"/><circle cx="138.213" cy="226" r="10"/><circle cx="58.213" cy="156" r="10"/><circle cx="48.213" cy="436" r="10"/><circle cx="398.214" cy="466" r="10"/><circle cx="468.214" cy="396" r="10"/><circle cx="418.214" cy="256" r="10"/></g></g></svg>