<svg id="Capa_1" enable-background="new 0 0 512 512" height="512" viewBox="0 0 512 512" width="512" xmlns="http://www.w3.org/2000/svg"><g><path d="m143.932 363.426h-10.925v-10.931c0-7.075-5.755-12.831-12.829-12.831h-27.298c-7.059 0-12.801 5.756-12.801 12.831v10.931h-10.954c-7.059 0-12.801 5.756-12.801 12.831v27.307c0 7.075 5.742 12.831 12.801 12.831h10.954v10.932c0 7.075 5.742 12.831 12.801 12.831h27.298c7.074 0 12.829-5.756 12.829-12.831v-10.932h10.925c7.074 0 12.829-5.756 12.829-12.831v-27.307c0-7.075-5.755-12.831-12.829-12.831zm-2.171 37.969h-16.254c-4.143 0-7.5 3.358-7.5 7.5v16.262h-22.928v-16.262c0-4.142-3.357-7.5-7.5-7.5h-16.255v-22.968h16.255c4.143 0 7.5-3.358 7.5-7.5v-16.262h22.928v16.262c0 4.142 3.357 7.5 7.5 7.5h16.254z"/><path d="m490.412 191.731h-80.597l35.878-57.781c28.471-4.855 49.498-29.505 49.498-58.804 0-32.889-26.762-59.646-59.657-59.646-32.88 0-59.63 26.757-59.63 59.646 0 5.881.851 11.673 2.531 17.267l-61.677 99.318h-82.385c7.107-16.231 9.477-35.476 6.83-56.448l-9.042-71.458c-.599-4.727-3.142-8.48-6.978-10.297-3.831-1.815-8.334-1.409-12.363 1.118l-61.003 38.338c-18.59 11.691-31.073 25.52-38.62 39.854l-35.592-22.383c-3.445-2.173-7.359-2.509-10.733-.922-3.381 1.59-5.621 4.827-6.151 8.907l-6.179 48.943c-1.083 8.578-.983 16.729.285 24.347h-13.48c-11.888 0-21.56 9.687-21.56 21.593v32.78c0 11.891 9.672 21.564 21.56 21.564h14.653c.458 8.932 1.728 17.79 3.805 26.471-35.383 17.352-59.805 53.754-59.805 95.758 0 58.782 47.795 106.604 106.543 106.604 34.427 0 65.086-16.427 84.576-41.853h163.23c17.562 0 31.85-14.292 31.85-31.858v-20.016c53.819-31.125 86.761-80.94 89.556-135.104h14.657c11.903 0 21.588-9.674 21.588-21.564v-32.78c0-11.907-9.685-21.594-21.588-21.594zm-97.378-94.395c1.222-1.966 1.466-4.387.663-6.558-1.854-5.013-2.794-10.272-2.794-15.631 0-24.618 20.021-44.646 44.63-44.646 24.624 0 44.657 20.028 44.657 44.646 0 22.877-17.118 41.968-39.817 44.406-2.297.247-4.353 1.538-5.571 3.5l-42.645 68.679h-57.744zm-270.25 50.259c.456-.751.769-1.55.937-2.368 5.924-13.99 17.439-27.821 36.079-39.543l57.931-36.403 8.589 67.883c2.65 20.999-.357 39.759-8.681 54.567h-49.531l7.397-15.631 26.002-9.308c3.9-1.396 5.93-5.689 4.534-9.589-1.396-3.899-5.691-5.931-9.589-4.533l-11.871 4.249 6.437-13.602c1.771-3.744.173-8.215-3.571-9.987-3.743-1.771-8.216-.173-9.987 3.571l-20.234 42.758-4.249-11.877c-1.396-3.9-5.688-5.93-9.588-4.535s-5.931 5.688-4.535 9.588l6.76 18.896h-22.204c-5.601-12.995-6.508-28.592-.626-44.136zm-53.36 21.668 5.406-42.831 32.539 20.462c-4.822 15.656-4.319 31.285.05 44.837h-37.309c-1.461-6.854-1.707-14.379-.686-22.468zm284.925 270.384h-153.602c5.483-10.352 9.316-21.706 11.134-33.715h159.317v16.857c0 9.295-7.558 16.858-16.849 16.858zm142.651-193.543c0 3.62-2.955 6.564-6.588 6.564h-208.291c-4.143 0-7.5 3.358-7.5 7.5s3.357 7.5 7.5 7.5h178.612c-2.854 49.395-33.75 94.943-84.012 123.263h-163.648c.003-.345.013-.689.013-1.035 0-20.574-5.864-40.532-16.96-57.717-2.246-3.481-6.89-4.479-10.369-2.233s-4.479 6.889-2.232 10.369c9.526 14.755 14.562 31.9 14.562 49.582 0 50.51-41.066 91.604-91.543 91.604s-91.544-41.094-91.544-91.605c0-50.495 41.066-91.576 91.543-91.576 20.271 0 39.485 6.506 55.564 18.815 3.29 2.519 7.996 1.893 10.514-1.396s1.893-7.997-1.396-10.514c-18.719-14.33-41.086-21.905-64.683-21.905-11.388 0-22.362 1.804-32.659 5.129-1.51-6.832-2.466-13.78-2.866-20.781h176.236c4.143 0 7.5-3.358 7.5-7.5s-3.357-7.5-7.5-7.5h-205.907c-3.617 0-6.56-2.945-6.56-6.564v-32.78c0-3.635 2.942-6.593 6.56-6.593h22.963c.008 0 .016.002.025.002s.017-.002.025-.002h256.548c.005 0 .01.001.014.001.005 0 169.491-.001 169.491-.001 3.571 0 6.588 3.019 6.588 6.593z"/></g></svg>