<svg id="brain" enable-background="new 0 0 300 300" height="512" viewBox="0 0 300 300" width="512" xmlns="http://www.w3.org/2000/svg"><g><path d="m236.172 46.099c2.264 0 4.099-1.835 4.099-4.099s-1.835-4.1-4.099-4.1-4.099 1.836-4.099 4.1 1.835 4.099 4.099 4.099z"/><path d="m212.172 90.099c2.264 0 4.099-1.835 4.099-4.099s-1.835-4.1-4.099-4.1-4.099 1.836-4.099 4.1 1.835 4.099 4.099 4.099z"/><path d="m184.172 58c6.617 0 12-5.383 12-12s-5.383-12-12-12-12 5.383-12 12 5.383 12 12 12zm0-16c2.207 0 4 1.793 4 4s-1.793 4-4 4-4-1.793-4-4 1.793-4 4-4z"/><path d="m120.609 41.832c-9.087 0-17.198 5.208-21.123 13.259-.294-.011-.581-.044-.877-.044-.078 0-.142.04-.219.044-13.145-.319-24.172 10.441-24.172 23.78v.027c-1.875-.477-3.812-.723-5.781-.723-12.996 0-23.566 10.688-23.566 23.828 0 3.121.613 6.199 1.793 9.074-9.238 6.587-14.836 17.353-14.836 28.923s5.598 22.336 14.836 28.922c-1.18 2.875-1.793 5.953-1.793 9.074 0 13.141 10.57 23.828 23.566 23.828 1.969 0 3.906-.246 5.781-.723v.027c0 13.333 11.023 24.073 24.164 23.778.079.005.146.046.227.046.296 0 .584-.034.877-.044 3.925 8.052 12.036 13.259 21.123 13.259 12.992 0 23.562-10.688 23.562-23.824v-148.687c.001-13.136-10.569-23.824-23.562-23.824zm0 188.336c-5.295 0-10.061-2.721-12.896-7.031 8.631-3.584 14.72-12.095 14.72-22.008 0-2.211-1.789-4-4-4s-4 1.789-4 4c0 7.488-5.24 13.743-12.237 15.377-.063-.003-.121-.029-.185-.029-.289 0-.582.031-.875.098-9.969 2.191-18.918-5.602-18.918-15.445 0-1.805.316-3.609.941-5.363.582-1.633.043-3.453-1.332-4.512-1.371-1.055-3.273-1.102-4.699-.125-2.57 1.762-5.578 2.695-8.691 2.695-8.582 0-15.566-7.102-15.566-15.828 0-2.957.828-5.863 2.398-8.398.574-.93.742-2.051.469-3.109-.273-1.055-.965-1.953-1.918-2.488-8.633-4.824-13.992-14.02-13.992-24s5.359-19.176 13.992-24c.953-.535 1.645-1.434 1.918-2.488.273-1.059.105-2.18-.469-3.109-1.57-2.535-2.398-5.441-2.398-8.398 0-8.727 6.984-15.828 15.566-15.828 3.113 0 6.121.934 8.691 2.695 1.426.977 3.328.93 4.699-.125 1.375-1.059 1.914-2.879 1.332-4.512-.625-1.754-.941-3.559-.941-5.363 0-9.84 8.957-17.645 18.918-15.445.319.072.631.038.945.032 7.056 1.59 12.352 7.883 12.352 15.413 0 2.211 1.789 4 4 4s4-1.789 4-4c0-9.913-6.089-18.424-14.72-22.008 2.835-4.311 7.601-7.031 12.896-7.031 8.582 0 15.562 7.098 15.562 15.824v62.082h-5.879c-5.73 0-10.391-4.133-10.391-9.215 0-2.211-1.789-4-4-4s-4 1.789-4 4c0 9.492 8.25 17.215 18.391 17.215h5.879v28.348h-6.816c-3.23 0-5.855-2.266-5.855-5.055 0-11.789-10.285-21.379-22.926-21.379h-2.66c-2.211 0-4 1.789-4 4s1.789 4 4 4h2.66c8.23 0 14.926 6 14.926 13.379 0 7.199 6.215 13.055 13.855 13.055h6.816v42.258c.001 8.723-6.98 15.821-15.562 15.821z"/><path d="m86.09 120.176c0-8.582-6.984-15.566-15.566-15.566h-1.652c-2.211 0-4 1.789-4 4s1.789 4 4 4h1.652c4.172 0 7.566 3.395 7.566 7.566s-3.395 7.562-7.566 7.562c-2.211 0-4 1.789-4 4s1.789 4 4 4c8.581 0 15.566-6.98 15.566-15.562z"/><path d="m88.695 150.039c-11.316 0-20.52 9.203-20.52 20.52v.832c0 2.211 1.789 4 4 4s4-1.789 4-4v-.832c0-6.902 5.617-12.52 12.52-12.52 2.211 0 4-1.789 4-4s-1.789-4-4-4z"/><path d="m98.609 109.305c7.672 0 13.914-6.238 13.914-13.91 0-2.211-1.789-4-4-4s-4 1.789-4 4c0 3.258-2.652 5.91-5.914 5.91-2.211 0-4 1.789-4 4s1.789 4 4 4z"/><path d="m113.477 183.91c-5.992 0-10.867-4.875-10.867-10.867 0-2.211-1.789-4-4-4s-4 1.789-4 4c0 10.402 8.465 18.867 18.867 18.867 2.211 0 4-1.789 4-4s-1.789-4-4-4z"/><path d="m215.281 98.043c-15.066 0-29.07 5.91-39.113 16.367-6.18-6.395-13.984-11.152-22.82-13.867-2.117-.648-4.352.543-5 2.648-.648 2.113.539 4.352 2.648 5 8.863 2.723 16.492 7.832 22.055 14.773 1.516 1.898 4.727 1.898 6.242 0 8.617-10.754 21.734-16.922 35.988-16.922 24.754 0 44.891 18.59 44.891 41.438 0 28.609-41.789 75.645-81.316 110.52h-5.363c-4.449-3.93-10.977-9.855-18.535-17.191-1.582-1.539-4.113-1.5-5.656.086-1.539 1.586-1.5 4.117.086 5.656 8.34 8.098 15.457 14.504 19.953 18.457.73.641 1.668.992 2.641.992h8.383c.973 0 1.91-.352 2.637-.992 19.98-17.531 85.172-77.816 85.172-117.527-.002-27.262-23.729-49.438-52.893-49.438z"/><path d="m235.094 128.988c.75.633 1.664.941 2.57.941 1.141 0 2.273-.484 3.062-1.426 1.426-1.688 1.207-4.211-.484-5.633-10.418-8.77-23.52-8.871-24.07-8.871-2.203 0-3.988 1.785-3.992 3.988-.008 2.203 1.777 3.996 3.98 4.012.106.001 10.801.146 18.934 6.989z"/></g></svg>