<?xml version="1.0" encoding="UTF-8" standalone="no"?>
<!-- Created with Inkscape (http://www.inkscape.org/) -->

<svg
   version="1.1"
   id="svg2643"
   xml:space="preserve"
   width="682.66669"
   height="682.66669"
   viewBox="0 0 682.66669 682.66669"
   xmlns="http://www.w3.org/2000/svg"
   xmlns:svg="http://www.w3.org/2000/svg"><defs
     id="defs2647"><clipPath
       clipPathUnits="userSpaceOnUse"
       id="clipPath2657"><path
         d="M 0,512 H 512 V 0 H 0 Z"
         id="path2655" /></clipPath></defs><g
     id="g2649"
     transform="matrix(1.3333333,0,0,-1.3333333,0,682.66667)"><g
       id="g2651"><g
         id="g2653"
         clip-path="url(#clipPath2657)"><g
           id="g2659"
           transform="translate(198.9062,255.9531)"><path
             d="m 0,0 h 49.592 c 4.162,0 7.898,2.553 9.411,6.431 l 9.773,25.061 c 1.513,3.878 5.249,6.431 9.412,6.431 h 14.156 c 3.755,0 7.2,2.083 8.945,5.409 l 11.39,21.712 c 1.745,3.326 5.19,5.409 8.945,5.409 h 47.484"
             style="fill:none;stroke:#000000;stroke-width:15;stroke-linecap:round;stroke-linejoin:round;stroke-miterlimit:10;stroke-dasharray:none;stroke-opacity:1"
             id="path2661" /></g><g
           id="g2663"
           transform="translate(243.3506,100.3125)"><path
             d="M 0,0 C 0,6.874 1.754,13.634 5.096,19.641 L 23.178,52.15 -43.555,43.392 c -3.335,-0.437 -6.507,-1.701 -9.229,-3.674 L -67.317,29.181 c -3.999,-2.899 -6.797,-7.162 -7.867,-11.984 l -7.583,-34.2 32.93,10.697 c 4.735,1.538 9.872,1.274 14.425,-0.743 L 0,-22.738 Z"
             style="fill:none;stroke:#000000;stroke-width:15;stroke-linecap:round;stroke-linejoin:round;stroke-miterlimit:10;stroke-dasharray:none;stroke-opacity:1"
             id="path2665" /></g><g
           id="g2667"
           transform="translate(426.8027,8.0137)"><path
             d="m 0,0 v 75.003 c 0,6.363 -1.503,12.635 -4.386,18.307 l -45.817,90.15 c -6.892,13.559 -20.813,22.1 -36.022,22.1 h -16.296 c -14.667,0 -28.183,-7.948 -35.312,-20.766 l -40.523,-72.855 c -3.342,-6.006 -5.096,-12.767 -5.096,-19.641 V -0.514"
             style="fill:none;stroke:#000000;stroke-width:15;stroke-linecap:round;stroke-linejoin:round;stroke-miterlimit:10;stroke-dasharray:none;stroke-opacity:1"
             id="path2669" /></g><g
           id="g2671"
           transform="translate(29.4043,368.2563)"><path
             d="m 0,0 h 33.194 c 4.468,0 8.406,-2.936 9.681,-7.219 l 13.188,-44.28 c 1.275,-4.283 5.212,-7.219 9.681,-7.219 h 27.177 c 5.579,0 10.101,4.523 10.101,10.102 V -4.12 c 0,1.797 0.48,3.562 1.39,5.113 l 30.951,52.736 c 1.814,3.09 5.128,4.988 8.712,4.988 h 69.871"
             style="fill:none;stroke:#000000;stroke-width:15;stroke-linecap:round;stroke-linejoin:round;stroke-miterlimit:10;stroke-dasharray:none;stroke-opacity:1"
             id="path2673" /></g><g
           id="g2675"
           transform="translate(121.4805,160.8398)"><path
             d="m 0,0 9.579,43.38 c 1.551,7.04 6.74,12.72 13.61,14.9 L 59.85,69.91 c 5.969,1.89 10.719,6.44 12.87,12.32 l 46.849,128.17 c 2.91,7.97 10.491,13.27 18.97,13.27 h 67.79 c 7.82,0 14.941,-4.51 18.28,-11.59 L 274.26,106.75 c 3.34,-7.08 10.46,-11.59 18.279,-11.59 h 12.11 c 9.25,0 17.33,-6.29 19.59,-15.27 l 12.08,-47.92"
             style="fill:none;stroke:#000000;stroke-width:15;stroke-linecap:round;stroke-linejoin:round;stroke-miterlimit:10;stroke-dasharray:none;stroke-opacity:1"
             id="path2677" /></g><g
           id="g2679"
           transform="translate(466.3496,158.8701)"><path
             d="M 0,0 38.15,-151.37 H -378.729 L -352.42,-32.2"
             style="fill:none;stroke:#000000;stroke-width:15;stroke-linecap:round;stroke-linejoin:round;stroke-miterlimit:10;stroke-dasharray:none;stroke-opacity:1"
             id="path2681" /></g><g
           id="g2683"
           transform="translate(160.584,83.3096)"><path
             d="M 0,0 -20.478,-75.81"
             style="fill:none;stroke:#000000;stroke-width:15;stroke-linecap:round;stroke-linejoin:round;stroke-miterlimit:10;stroke-dasharray:none;stroke-opacity:1"
             id="path2685" /></g><g
           id="g2687"
           transform="translate(414.0166,256)"><path
             d="M 0,0 H -62.301"
             style="fill:none;stroke:#000000;stroke-width:15;stroke-linecap:round;stroke-linejoin:round;stroke-miterlimit:10;stroke-dasharray:none;stroke-opacity:1"
             id="path2689" /></g><g
           id="g2691"
           transform="translate(277.0937,293.876)"><path
             d="M 0,0 H -24.642"
             style="fill:none;stroke:#000000;stroke-width:15;stroke-linecap:round;stroke-linejoin:round;stroke-miterlimit:10;stroke-dasharray:none;stroke-opacity:1"
             id="path2693" /></g><g
           id="g2695"
           transform="translate(27.4199,335.5498)"><path
             d="m 0,0 3.74,61.54 c 1.4,23.11 15.84,43.4 37.22,52.29 l 16.83,7.01 c 5.8,2.41 10.96,6.14 15.06,10.89 l 26.11,30.22 c 3.84,4.45 9.42,7 15.29,7 h 38.05 c 9.31,0 17.41,-6.35 19.62,-15.39 l 9.26,-37.77 c 1.47,-5.98 5.591,-10.97 11.19,-13.54 L 235.36,82.5 c 3.47,-1.6 6.42,-4.14 8.5,-7.34 l 17.05,-26.2"
             style="fill:none;stroke:#000000;stroke-width:15;stroke-linecap:round;stroke-linejoin:round;stroke-miterlimit:10;stroke-dasharray:none;stroke-opacity:1"
             id="path2697" /></g><g
           id="g2699"
           transform="translate(87.6201,7.5)"><path
             d="m 0,0 h -80.12 l 17.8,293.11"
             style="fill:none;stroke:#000000;stroke-width:15;stroke-linecap:round;stroke-linejoin:round;stroke-miterlimit:10;stroke-dasharray:none;stroke-opacity:1"
             id="path2701" /></g><g
           id="g2703"
           transform="translate(173.4795,426.9736)"><path
             d="m 0,0 h -36.153 c -3.347,0 -6.586,-1.187 -9.14,-3.35 l -13.126,-11.116"
             style="fill:none;stroke:#000000;stroke-width:15;stroke-linecap:round;stroke-linejoin:round;stroke-miterlimit:10;stroke-dasharray:none;stroke-opacity:1"
             id="path2705" /></g><g
           id="g2707"
           transform="translate(61.0371,121.7065)"><path
             d="m 0,0 v 50.61 c 0,3.37 0.843,6.688 2.453,9.649 l 18.132,33.355 c 1.609,2.961 2.453,6.278 2.453,9.649 v 36.956"
             style="fill:none;stroke:#000000;stroke-width:15;stroke-linecap:round;stroke-linejoin:round;stroke-miterlimit:10;stroke-dasharray:none;stroke-opacity:1"
             id="path2709" /></g></g></g></g></svg>
