<svg id="muscle" enable-background="new 0 0 300 300" height="512" viewBox="0 0 300 300" width="512" xmlns="http://www.w3.org/2000/svg"><g><circle cx="72.824" cy="103.999" r="4"/><path d="m64.824 231.999c2.211 0 4-1.791 4-4v-8c0-2.209-1.789-4-4-4s-4 1.791-4 4v8c0 2.209 1.789 4 4 4z"/><path d="m64.824 239.999c-2.211 0-4 1.791-4 4v8c0 2.209 1.789 4 4 4s4-1.791 4-4v-8c0-2.209-1.789-4-4-4z"/><path d="m56.824 231.999h-8c-2.211 0-4 1.791-4 4s1.789 4 4 4h8c2.211 0 4-1.791 4-4s-1.789-4-4-4z"/><path d="m80.824 231.999h-8c-2.211 0-4 1.791-4 4s1.789 4 4 4h8c2.211 0 4-1.791 4-4s-1.789-4-4-4z"/><path d="m211.59 105.224c1.816.971 3.801 1.465 5.805 1.465 1.203 0 2.41-.178 3.594-.537 3.156-.955 5.75-3.082 7.305-5.988 1.551-2.906 1.883-6.244.926-9.398s-3.082-5.746-5.988-7.301-6.25-1.891-9.398-.928c-3.152.955-5.746 3.082-7.301 5.988s-1.887 6.244-.93 9.398 3.081 5.746 5.987 7.301zm1.996-12.926c.547-1.021 1.457-1.77 2.566-2.105.418-.127.84-.189 1.266-.189.703 0 1.398.174 2.039.516 1.02.547 1.77 1.457 2.105 2.566s.223 2.283-.324 3.305-1.461 1.77-2.57 2.105c-2.281.686-4.719-.602-5.41-2.893-.336-1.11-.219-2.284.328-3.305z"/><path d="m252.145 250.235c-18.653-4.663-29.992-22.714-34.2-30.707l12.329-4.111c2.801 4.508 8.828 12.695 17.051 15.436.422.141.848.207 1.266.207 1.676 0 3.238-1.061 3.793-2.738.699-2.096-.434-4.359-2.527-5.059-6.777-2.258-12.52-11.211-14.164-14.471-.891-1.771-2.941-2.629-4.84-2l-19.646 6.549c-1.255.334-35.894 9.438-63.866 3.224-17.637-3.92-34.34-16.393-46.535-25.502-1.648-1.23-3.211-2.396-4.676-3.469-2.078-1.518-5.301-2.752-8.148-3.842-1.207-.461-2.855-1.094-3.164-1.268-.188-.146-.227-.346-.227-.486v-7.609c.27-6.355 25.52-99.016 29.262-110.424.082-.09.328-.262.496-.342l49.621-22.664 15.855 20.643c.602.826.547 1.979-.133 2.742l-16.016 17.956c-.793.883-2.125.988-2.902.338l-6.477-5.971c-.945-.873-2.227-1.293-3.488-1.029-1.262.26-2.289 1.059-2.816 2.234-.836 1.033-5.66 2.057-9.828 2.096l-1.59-.16c-1.602-.17-3.129.641-3.902 2.037-.777 1.398-.645 3.125.332 4.389 1.297 1.678 2.328 3.045 2.957 3.891l3.16 53.747-2.816 5.636c-.988 1.975-.188 4.377 1.789 5.365.574.287 1.184.422 1.785.422 1.469 0 2.883-.811 3.582-2.213l2.86-5.724c25.654-19.33 48.104-1.42 50.099.253 8.013 8.046 8.615 13.372 8.639 13.672.059 2.16 1.828 3.893 4 3.893 2.211 0 4-1.791 4-4 0-.773-.284-7.327-8.607-16.69 12.259-14.845 26.844-19.638 43.396-14.218 2.09.691 4.359-.461 5.043-2.557.688-2.1-.457-4.359-2.559-5.045-13.871-4.547-33.891-5.156-51.914 16.543-7.879-5.205-28.523-15.664-51.664-1.807l-2.879-48.932c-.016-.311-.07-.617-.16-.912 2.625-.385 5.562-1.115 7.891-2.492l3.883 3.576c4.246 3.57 10.469 3.123 14.156-1.018l16.016-17.955c3.172-3.559 3.438-8.936.566-12.861l-17.852-23.244c-1.137-1.48-3.152-1.971-4.832-1.203l-52.469 23.965c-.598.264-3.621 1.727-4.633 4.762-3.066 9.191-29.852 105.664-29.852 113.266v7.646c0 2.672 1.199 5.145 3.293 6.785 1.039.812 2.512 1.396 5.238 2.439 2.141.82 5.07 1.941 6.285 2.828 1.445 1.059 2.984 2.209 4.609 3.422 12.777 9.541 30.277 22.609 49.59 26.9 25.352 5.635 54.746-.223 64.508-2.518 3.945 7.949 15.895 28.432 37.062 35.273v6.869c0 2.209 1.789 4 4 4s4-1.791 4-4v-9.883c.001-1.835-1.249-3.434-3.03-3.88z"/><path d="m185.16 200.087c-42.617 9.146-60.863-19.971-61.621-21.215-1.137-1.887-3.586-2.496-5.48-1.361-1.895 1.137-2.508 3.594-1.371 5.488.223.367 5.543 9.107 16.887 16.525 7.809 5.105 19.719 10.309 35.812 10.309 5.352 0 11.168-.576 17.453-1.922 2.16-.463 3.535-2.59 3.07-4.75-.461-2.162-2.566-3.543-4.75-3.074z"/></g></svg>