<?xml version="1.0" encoding="UTF-8" standalone="no"?>
<!-- Created with Inkscape (http://www.inkscape.org/) -->

<svg
   version="1.1"
   id="svg327"
   xml:space="preserve"
   width="682.66669"
   height="682.66669"
   viewBox="0 0 682.66669 682.66669"
   xmlns="http://www.w3.org/2000/svg"
   xmlns:svg="http://www.w3.org/2000/svg"><defs
     id="defs331"><clipPath
       clipPathUnits="userSpaceOnUse"
       id="clipPath341"><path
         d="M 0,512 H 512 V 0 H 0 Z"
         id="path339" /></clipPath></defs><g
     id="g333"
     transform="matrix(1.3333333,0,0,-1.3333333,0,682.66667)"><g
       id="g335"><g
         id="g337"
         clip-path="url(#clipPath341)"><g
           id="g343"
           transform="translate(90,50)"><path
             d="m 0,0 c 0,22.091 -17.909,40 -40,40 -22.091,0 -40,-17.909 -40,-40 0,-22.091 17.909,-40 40,-40 22.091,0 40,17.909 40,40 z"
             style="fill:none;stroke:#000000;stroke-width:20;stroke-linecap:round;stroke-linejoin:round;stroke-miterlimit:10;stroke-dasharray:none;stroke-opacity:1"
             id="path345" /></g><g
           id="g347"
           transform="translate(90,50)"><path
             d="M 0,0 V 167.172"
             style="fill:none;stroke:#000000;stroke-width:20;stroke-linecap:round;stroke-linejoin:round;stroke-miterlimit:10;stroke-dasharray:none;stroke-opacity:1"
             id="path349" /></g><g
           id="g351"
           transform="translate(234,91.0453)"><path
             d="m 0,0 c 0,22.091 -17.909,40 -40,40 -22.091,0 -40,-17.909 -40,-40 0,-22.091 17.909,-40 40,-40 22.091,0 40,17.909 40,40 z"
             style="fill:none;stroke:#000000;stroke-width:20;stroke-linecap:round;stroke-linejoin:round;stroke-miterlimit:10;stroke-dasharray:none;stroke-opacity:1"
             id="path353" /></g><g
           id="g355"
           transform="translate(234,91.0453)"><path
             d="M 0,0 V 167.172"
             style="fill:none;stroke:#000000;stroke-width:20;stroke-linecap:round;stroke-linejoin:round;stroke-miterlimit:10;stroke-dasharray:none;stroke-opacity:1"
             id="path357" /></g><g
           id="g359"
           transform="translate(205.2777,250.0301)"><path
             d="M 0,0 28.722,8.187"
             style="fill:none;stroke:#000000;stroke-width:20;stroke-linecap:round;stroke-linejoin:round;stroke-miterlimit:10;stroke-dasharray:none;stroke-opacity:1"
             id="path361" /></g><g
           id="g363"
           transform="translate(90,217.1717)"><path
             d="M 0,0 28.723,8.187"
             style="fill:none;stroke:#000000;stroke-width:20;stroke-linecap:round;stroke-linejoin:round;stroke-miterlimit:10;stroke-dasharray:none;stroke-opacity:1"
             id="path365" /></g><g
           id="g367"
           transform="translate(90,160.9547)"><path
             d="M 0,0 144,41.045"
             style="fill:none;stroke:#000000;stroke-width:20;stroke-linecap:round;stroke-linejoin:round;stroke-miterlimit:10;stroke-dasharray:none;stroke-opacity:1"
             id="path369" /></g><g
           id="g371"
           transform="translate(397.5922,304.7392)"><path
             d="m 0,0 c 0,22.091 -17.909,40 -40,40 -22.091,0 -40,-17.909 -40,-40 0,-22.091 17.909,-40 40,-40 22.091,0 40,17.909 40,40 z"
             style="fill:none;stroke:#000000;stroke-width:20;stroke-linecap:round;stroke-linejoin:round;stroke-miterlimit:10;stroke-dasharray:none;stroke-opacity:1"
             id="path373" /></g><g
           id="g375"
           transform="translate(397.5922,304.7392)"><path
             d="M 0,0 V 110.955"
             style="fill:none;stroke:#000000;stroke-width:20;stroke-linecap:round;stroke-linejoin:round;stroke-miterlimit:10;stroke-dasharray:none;stroke-opacity:1"
             id="path377" /></g><g
           id="g379"
           transform="translate(397.5922,415.6939)"><path
             d="M 0,0 104.408,30.089 V 86.306 L 0,56.217 Z"
             style="fill:none;stroke:#000000;stroke-width:20;stroke-linecap:round;stroke-linejoin:round;stroke-miterlimit:10;stroke-dasharray:none;stroke-opacity:1"
             id="path381" /></g><g
           id="g383"
           transform="translate(392.7411,87.4915)"><path
             d="m 0,0 -47.844,-25.153 9.138,53.275 -38.706,37.729 53.49,7.773 L 0,122.094 23.922,73.624 77.412,65.851 38.706,28.122 47.843,-25.153 Z"
             style="fill:none;stroke:#000000;stroke-width:20;stroke-linecap:round;stroke-linejoin:round;stroke-miterlimit:10;stroke-dasharray:none;stroke-opacity:1"
             id="path385" /></g><g
           id="g387"
           transform="translate(75.168,401.6783)"><path
             d="m 0,0 -39.312,-20.667 7.508,43.774 -31.804,31.001 43.952,6.387 L 0,100.322 19.656,60.495 63.608,54.108 31.804,23.107 39.312,-20.667 Z"
             style="fill:none;stroke:#000000;stroke-width:20;stroke-linecap:round;stroke-linejoin:round;stroke-miterlimit:10;stroke-dasharray:none;stroke-opacity:1"
             id="path389" /></g><g
           id="g391"
           transform="translate(234,405.6939)"><path
             d="M 0,0 V 10"
             style="fill:none;stroke:#000000;stroke-width:20;stroke-linecap:round;stroke-linejoin:round;stroke-miterlimit:10;stroke-dasharray:none;stroke-opacity:1"
             id="path393" /></g><g
           id="g395"
           transform="translate(234,345.6939)"><path
             d="M 0,0 V -10"
             style="fill:none;stroke:#000000;stroke-width:20;stroke-linecap:round;stroke-linejoin:round;stroke-miterlimit:10;stroke-dasharray:none;stroke-opacity:1"
             id="path397" /></g><g
           id="g399"
           transform="translate(264,375.6939)"><path
             d="M 0,0 H 10"
             style="fill:none;stroke:#000000;stroke-width:20;stroke-linecap:round;stroke-linejoin:round;stroke-miterlimit:10;stroke-dasharray:none;stroke-opacity:1"
             id="path401" /></g><g
           id="g403"
           transform="translate(204,375.6939)"><path
             d="M 0,0 H -10"
             style="fill:none;stroke:#000000;stroke-width:20;stroke-linecap:round;stroke-linejoin:round;stroke-miterlimit:10;stroke-dasharray:none;stroke-opacity:1"
             id="path405" /></g><g
           id="g407"
           transform="translate(162,237.6944)"><path
             d="M 0,0 V 0"
             style="fill:none;stroke:#000000;stroke-width:20;stroke-linecap:round;stroke-linejoin:round;stroke-miterlimit:10;stroke-dasharray:none;stroke-opacity:1"
             id="path409" /></g></g></g></g></svg>
