<?xml version="1.0" encoding="UTF-8"?>
<svg xmlns="http://www.w3.org/2000/svg" xmlns:xlink="http://www.w3.org/1999/xlink" version="1.1" id="Capa_1" x="0px" y="0px" viewBox="0 0 512 512" style="enable-background:new 0 0 512 512;" xml:space="preserve" width="512" height="512">
<g>
	
		<path id="XMLID_980_" style="fill:none;stroke:#000000;stroke-width:20;stroke-linecap:round;stroke-linejoin:round;stroke-miterlimit:10;" d="&#10;&#9;&#9;M174.945,288.149c4.833-6.328,7.709-14.231,7.709-22.808c0-20.778-16.843-37.621-37.621-37.621c-2.87,0-5.661,0.332-8.347,0.941&#10;&#9;&#9;c2.324-4.512,3.644-9.624,3.644-15.049c0-18.18-14.738-32.918-32.918-32.918s-32.918,14.738-32.918,32.918&#10;&#9;&#9;c0,5.301,1.26,10.305,3.486,14.741c-2.221-0.408-4.506-0.633-6.845-0.633c-20.778,0-37.621,16.843-37.621,37.621&#10;&#9;&#9;c0,8.577,2.876,16.479,7.708,22.808C22.876,295.891,10,314.045,10,335.208c0,28.198,22.859,51.057,51.057,51.057&#10;&#9;&#9;c21.133,0,39.266-12.839,47.026-31.142c7.761,18.303,25.894,31.142,47.026,31.142c28.198,0,51.057-22.859,51.057-51.057&#10;&#9;&#9;C206.166,314.045,193.29,295.891,174.945,288.149z"/>
	
		<path id="XMLID_979_" style="fill:none;stroke:#000000;stroke-width:20;stroke-linecap:round;stroke-linejoin:round;stroke-miterlimit:10;" d="&#10;&#9;&#9;M461.918,361.429H270.98c-11.046,0-20-8.954-20-20v-20.245c0-11.046,8.954-20,20-20h190.939c11.046,0,20,8.954,20,20v20.245&#10;&#9;&#9;C481.918,352.474,472.964,361.429,461.918,361.429z"/>
	
		<path id="XMLID_978_" style="fill:none;stroke:#000000;stroke-width:20;stroke-linecap:round;stroke-linejoin:round;stroke-miterlimit:10;" d="&#10;&#9;&#9;M461.918,301.184H270.98c-11.046,0-20-8.954-20-20v-20.245c0-11.046,8.954-20,20-20h190.939c11.046,0,20,8.954,20,20v20.245&#10;&#9;&#9;C481.918,292.229,472.964,301.184,461.918,301.184z"/>
	
		<rect id="XMLID_977_" x="271.061" y="361.429" style="fill:none;stroke:#000000;stroke-width:20;stroke-linecap:round;stroke-linejoin:round;stroke-miterlimit:10;" width="40.163" height="40.163"/>
	
		<rect id="XMLID_976_" x="421.673" y="361.429" style="fill:none;stroke:#000000;stroke-width:20;stroke-linecap:round;stroke-linejoin:round;stroke-miterlimit:10;" width="40.163" height="40.163"/>
	
		<path id="XMLID_974_" style="fill:none;stroke:#000000;stroke-width:20;stroke-linecap:round;stroke-linejoin:round;stroke-miterlimit:10;" d="&#10;&#9;&#9;M481.918,441.755H250.98c-11.091,0-20.082-8.991-20.082-20.082l0,0c0-11.091,8.991-20.082,20.082-20.082h230.939&#10;&#9;&#9;c11.091,0,20.082,8.991,20.082,20.082l0,0C502,432.764,493.009,441.755,481.918,441.755z"/>
	
		<rect id="XMLID_972_" x="250.98" y="441.755" style="fill:none;stroke:#000000;stroke-width:20;stroke-linecap:round;stroke-linejoin:round;stroke-miterlimit:10;" width="40.163" height="60.245"/>
	
		<rect id="XMLID_971_" x="441.755" y="441.755" style="fill:none;stroke:#000000;stroke-width:20;stroke-linecap:round;stroke-linejoin:round;stroke-miterlimit:10;" width="40.163" height="60.245"/>
	
		<line id="XMLID_970_" style="fill:none;stroke:#000000;stroke-width:20;stroke-linecap:round;stroke-linejoin:round;stroke-miterlimit:10;" x1="108.083" y1="279.176" x2="108.083" y2="502"/>
	
		<line id="XMLID_969_" style="fill:none;stroke:#000000;stroke-width:20;stroke-linecap:round;stroke-linejoin:round;stroke-miterlimit:10;" x1="108.079" y1="324.43" x2="70.245" y2="309.299"/>
	
		<line id="XMLID_968_" style="fill:none;stroke:#000000;stroke-width:20;stroke-linecap:round;stroke-linejoin:round;stroke-miterlimit:10;" x1="108.083" y1="324.43" x2="145.917" y2="309.299"/>
	
		<line id="XMLID_967_" style="fill:none;stroke:#000000;stroke-width:20;stroke-linecap:round;stroke-linejoin:round;stroke-miterlimit:10;" x1="10" y1="502" x2="502" y2="502"/>
	
		<ellipse id="XMLID_966_" transform="matrix(0.7071 -0.7071 0.7071 0.7071 52.5349 327.5651)" style="fill:none;stroke:#000000;stroke-width:20;stroke-linecap:round;stroke-linejoin:round;stroke-miterlimit:10;" cx="421.673" cy="100.367" rx="30.122" ry="30.122"/>
	
		<line id="XMLID_965_" style="fill:none;stroke:#000000;stroke-width:20;stroke-linecap:round;stroke-linejoin:round;stroke-miterlimit:10;" x1="421.673" y1="10" x2="421.673" y2="30.082"/>
	
		<line id="XMLID_964_" style="fill:none;stroke:#000000;stroke-width:20;stroke-linecap:round;stroke-linejoin:round;stroke-miterlimit:10;" x1="343.413" y1="55.184" x2="360.804" y2="65.225"/>
	
		<line id="XMLID_963_" style="fill:none;stroke:#000000;stroke-width:20;stroke-linecap:round;stroke-linejoin:round;stroke-miterlimit:10;" x1="343.413" y1="145.551" x2="360.804" y2="135.51"/>
	
		<line id="XMLID_962_" style="fill:none;stroke:#000000;stroke-width:20;stroke-linecap:round;stroke-linejoin:round;stroke-miterlimit:10;" x1="421.673" y1="190.735" x2="421.673" y2="170.653"/>
	
		<line id="XMLID_961_" style="fill:none;stroke:#000000;stroke-width:20;stroke-linecap:round;stroke-linejoin:round;stroke-miterlimit:10;" x1="499.934" y1="145.551" x2="482.543" y2="135.51"/>
	
		<line id="XMLID_960_" style="fill:none;stroke:#000000;stroke-width:20;stroke-linecap:round;stroke-linejoin:round;stroke-miterlimit:10;" x1="499.934" y1="55.184" x2="482.543" y2="65.225"/>
</g>















</svg>
