<svg id="pistachio" enable-background="new 0 0 300 300" height="512" viewBox="0 0 300 300" width="512" xmlns="http://www.w3.org/2000/svg"><g><path d="m57.123 47.563c2.211 0 4-1.791 4-4v-8c0-2.209-1.789-4-4-4s-4 1.791-4 4v8c0 2.209 1.789 4 4 4z"/><path d="m57.123 55.563c-2.211 0-4 1.791-4 4v8c0 2.209 1.789 4 4 4s4-1.791 4-4v-8c0-2.209-1.789-4-4-4z"/><path d="m49.123 47.563h-8c-2.211 0-4 1.791-4 4s1.789 4 4 4h8c2.211 0 4-1.791 4-4s-1.789-4-4-4z"/><path d="m73.123 47.563h-8c-2.211 0-4 1.791-4 4s1.789 4 4 4h8c2.211 0 4-1.791 4-4s-1.789-4-4-4z"/><path d="m251.123 87.563c-7.719 0-14 6.281-14 14s6.281 14 14 14 14-6.281 14-14-6.281-14-14-14zm0 20c-3.309 0-6-2.691-6-6s2.691-6 6-6 6 2.691 6 6-2.691 6-6 6z"/><path d="m39.153 119.645c-2.362 0-4.276 1.915-4.276 4.276s1.915 4.277 4.276 4.277 4.276-1.915 4.276-4.277-1.914-4.276-4.276-4.276z"/><path d="m219.153 47.645c-2.362 0-4.276 1.915-4.276 4.276s1.915 4.277 4.276 4.277 4.276-1.915 4.276-4.277-1.914-4.276-4.276-4.276z"/><path d="m176.521 68.218c-.91-.594-2.023-.801-3.078-.555-1.059.24-1.973.9-2.535 1.83-1.145 1.892-2.187 3.883-3.229 5.872-5.8-4.123-12.16-6.288-18.556-6.288-7.093 0-14.018 2.652-20.294 7.645-1.154-2.035-2.318-4.06-3.589-5.983-.598-.908-1.543-1.531-2.613-1.729-1.059-.205-2.172.049-3.059.686-23.816 17.127-39.207 54.164-39.207 94.359 0 57.557 30.848 104.381 68.762 104.381s68.762-46.824 68.762-104.381c0-41.747-16.235-79.367-41.364-95.837zm-12.386 14.511c-7.955 17.943-12.57 38.879-15.336 60.29-3.097-21.497-7.993-41.833-16.215-59.058 9.895-8.583 21.485-9.042 31.551-1.232zm-15.012 177.708c-33.504 0-60.762-43.236-60.762-96.381 0-35.721 12.641-68.555 32.504-85.236 16.762 28.256 21.695 70.361 24.266 108.174.145 2.1 1.891 3.729 3.992 3.729h.031c2.117-.018 3.855-1.68 3.965-3.793 1.945-37.645 6.18-79.799 22.48-109.553 20.949 16.162 34.285 49.562 34.285 86.68.001 53.143-27.257 96.38-60.761 96.38z"/><path d="m115.018 110.159c-1.906-1.129-4.355-.492-5.48 1.402-8.688 14.666-13.469 33.648-13.469 53.451 0 2.209 1.789 4 4 4s4-1.791 4-4c0-18.389 4.387-35.924 12.352-49.373 1.124-1.902.495-4.355-1.403-5.48z"/><path d="m173.506 230.333c.773.74 1.77 1.107 2.762 1.107 1.055 0 2.105-.414 2.895-1.238 14.094-14.76 22.508-39.119 22.508-65.16 0-2.209-1.789-4-4-4s-4 1.791-4 4c0 24.035-7.586 46.328-20.297 59.637-1.524 1.597-1.466 4.129.132 5.654z"/></g></svg>