<?xml version="1.0"?>
<svg xmlns="http://www.w3.org/2000/svg" viewBox="0 0 64 64" width="512" height="512"><g id="Outlines"><g><path d="M61,56H54.851V53.129h1a5.006,5.006,0,0,0,5-5,1,1,0,0,0-1-1h-2a4.982,4.982,0,0,0-4,2.031,4.982,4.982,0,0,0-4-2.031h-2a1,1,0,0,0-1,1,5.006,5.006,0,0,0,5,5h1V56H47a1,1,0,0,0-1,1v2a2.966,2.966,0,0,0,.184,1H40.889A6.973,6.973,0,0,0,43,55a1,1,0,0,0-1-1H40V50a4.972,4.972,0,0,0-1.6-3.642A4.983,4.983,0,0,0,41,42a1,1,0,0,0-1-1H38a4.942,4.942,0,0,0-2.055.454A3.993,3.993,0,0,0,32,38H31a1,1,0,0,0-1,1v2H28a1,1,0,0,0-1,1,4.983,4.983,0,0,0,2.6,4.358A4.972,4.972,0,0,0,28,50v4H26a1,1,0,0,0-1,1,6.973,6.973,0,0,0,2.111,5H18.974A4.948,4.948,0,0,0,20,57V45a1,1,0,0,0-2,0v3.4a7.341,7.341,0,0,0-2,.216V42h1a5.006,5.006,0,0,0,5-5,1,1,0,0,0-1-1H19a4.982,4.982,0,0,0-4,2.031A4.982,4.982,0,0,0,11,36H9a1,1,0,0,0-1,1,5.006,5.006,0,0,0,5,5h1v7.334a5.306,5.306,0,0,1-2,.355V45a1,1,0,0,0-2,0V57a4.948,4.948,0,0,0,1.026,3H3a1,1,0,0,0,0,2H59a1,1,0,0,0,0-2H49a1,1,0,0,1-1-1V58H61a1,1,0,0,0,0-2Zm-3.149-6.871h.829a3.006,3.006,0,0,1-2.829,2h-.829A3.006,3.006,0,0,1,57.851,49.129Zm-6,2a3.006,3.006,0,0,1-2.829-2h.829a3.006,3.006,0,0,1,2.829,2ZM19,38h.829A3.006,3.006,0,0,1,17,40h-.829A3.006,3.006,0,0,1,19,38Zm-6,2a3.006,3.006,0,0,1-2.829-2H11a3.006,3.006,0,0,1,2.829,2ZM12,57V51.69a7.256,7.256,0,0,0,2-.254V56a1,1,0,0,0,2,0V50.671a5.474,5.474,0,0,1,2-.273V57a3,3,0,0,1-6,0ZM33,47h2a3,3,0,0,1,3,3v.535l-5.873-3.39A2.936,2.936,0,0,1,33,47Zm5.829-4A3.006,3.006,0,0,1,36,45h-.829A3.006,3.006,0,0,1,38,43ZM32,41V40a2,2,0,0,1,2,2v1.031a5,5,0,0,0-1.956-1.583A2.443,2.443,0,0,1,32,41Zm-2,2a3.006,3.006,0,0,1,2.829,2H32a3.006,3.006,0,0,1-2.829-2Zm0,9.226,2.84,1.64a1,1,0,1,0,1-1.732l-3.832-2.213a2.962,2.962,0,0,1,.423-1.446L38,52.845V54a4.982,4.982,0,0,0-4,2.031A4.982,4.982,0,0,0,30,54ZM27.1,56H30a3,3,0,0,1,3,3v1H32A5.008,5.008,0,0,1,27.1,56ZM35,60V59a3,3,0,0,1,3-3h2.9A5.008,5.008,0,0,1,36,60Z"/><path d="M7.5,22.528a10.6,10.6,0,0,0,8.09,1.064l.232-.063a9.191,9.191,0,0,1,7.013.924l2.388,1.379h0a3,3,0,0,0,5.2,3l5-8.66a3,3,0,1,0-5.2-3L28,21.026a3.162,3.162,0,0,0-.524-.285l-.343-.144a1.4,1.4,0,0,1-.627-.518l-.883-1.324a3.4,3.4,0,0,0-2.836-1.518H20.439a1.415,1.415,0,0,1-1.208-.683l-1.455-2.425a3.394,3.394,0,0,0-3.483-1.608L11.446,13a1.411,1.411,0,0,1-1.4-.608A3.394,3.394,0,0,0,5.8,11.175q-.884.4-1.738.887A8.993,8.993,0,0,1,17.5,5.208a8.594,8.594,0,0,1,4.034,5.257l.063.233a11.165,11.165,0,0,0,5.238,6.827,1,1,0,1,0,1-1.732A9.181,9.181,0,0,1,23.53,10.18l-.063-.234A10.58,10.58,0,0,0,18.5,3.476a11,11,0,0,0-11,19.052Zm24.456-4.356a1,1,0,0,1,.867-.5.988.988,0,0,1,.5.134,1,1,0,0,1,.366,1.366l-5,8.66a.992.992,0,0,1-.607.466,1.012,1.012,0,0,1-.759-.1,1,1,0,0,1-.366-1.365h0ZM6.624,13a1.4,1.4,0,0,1,1.755.5,3.414,3.414,0,0,0,3.4,1.472l2.846-.475a1.409,1.409,0,0,1,1.44.665l1.454,2.425a3.423,3.423,0,0,0,2.923,1.654h2.347a1.408,1.408,0,0,1,1.172.627l.883,1.324a3.39,3.39,0,0,0,1.514,1.252l.345.145a1.148,1.148,0,0,1,.287.194L26.224,24.1l-2.388-1.379A11.17,11.17,0,0,0,15.3,21.6l-.232.062A8.6,8.6,0,0,1,8.5,20.8a8.983,8.983,0,0,1-4.385-6.419A20.455,20.455,0,0,1,6.624,13Z"/><path d="M32,33a3,3,0,0,0,6,0c0-1.164-.935-5-3-5S32,31.836,32,33Zm3,1a1,1,0,0,1-1-1,6.192,6.192,0,0,1,1-2.915A6.192,6.192,0,0,1,36,33,1,1,0,0,1,35,34Z"/><circle cx="14.075" cy="17.238" r="1"/><circle cx="7.075" cy="16.238" r="1"/><circle cx="10.075" cy="18.238" r="1"/><path d="M42,23a1,1,0,0,0,.833-.445l4-6a1,1,0,1,0-1.664-1.11l-4,6A1,1,0,0,0,42,23Z"/><path d="M43.081,26.394A1,1,0,0,0,44,27a.979.979,0,0,0,.394-.081l7-3a1,1,0,1,0-.788-1.838l-7,3A1,1,0,0,0,43.081,26.394Z"/><path d="M45,30a1,1,0,0,0,0,2h7a1,1,0,0,0,0-2Z"/></g></g></svg>
