<svg clip-rule="evenodd" fill-rule="evenodd" height="512" stroke-linejoin="round" stroke-miterlimit="2" viewBox="0 0 230 230" width="512" xmlns="http://www.w3.org/2000/svg"><path d="m150.055 166.226 10.263 10.263-.666.665c-.976.977-.976 2.56 0 3.536 0 0 25.721 25.721 42.853 42.853 2.534 2.534 5.97 3.957 9.553 3.957 3.584 0 7.02-1.423 9.554-3.957l1.931-1.931c2.534-2.534 3.957-5.97 3.957-9.554 0-3.583-1.423-7.019-3.957-9.553-17.132-17.132-42.853-42.853-42.853-42.853-.976-.976-2.559-.976-3.536 0l-.665.666-10.263-10.263c12.048-15.496 19.223-34.957 19.223-56.08 0-50.487-40.988-91.475-91.474-91.475-50.487 0-91.475 40.988-91.475 91.475 0 50.486 40.988 91.474 91.475 91.474 21.123 0 40.584-7.175 56.08-19.223zm28.867-1.271 41.085 41.086c1.596 1.596 2.493 3.76 2.493 6.017 0 2.258-.897 4.422-2.493 6.018-.641.642-1.289 1.29-1.931 1.931-1.596 1.596-3.76 2.493-6.018 2.493-2.257 0-4.421-.897-6.017-2.493 0 0-41.086-41.085-41.086-41.085zm20.892 26.487-2.829-2.829c-.976-.975-2.56-.975-3.536 0-.975.976-.975 2.56 0 3.536l2.829 2.829c.976.975 2.56.975 3.536 0 .976-.976.976-2.56 0-3.536zm-9.642-9.642-9.606-9.605c-.975-.976-2.56-.976-3.535 0-.976.975-.976 2.559 0 3.535l9.606 9.606c.975.976 2.559.976 3.535 0s.976-2.56 0-3.536zm-96.197-174.3c47.726 0 86.474 38.748 86.474 86.475 0 47.726-38.748 86.474-86.474 86.474-47.727 0-86.475-38.748-86.475-86.474 0-47.727 38.748-86.475 86.475-86.475zm0 5.91c-44.465 0-80.565 36.1-80.565 80.565s36.1 80.564 80.565 80.564 80.564-36.099 80.564-80.564-36.099-80.565-80.564-80.565zm69.06 140.525c-2.817 3.242-5.858 6.283-9.1 9.1l9.918 9.918 9.1-9.1zm-69.06-135.525c41.705 0 75.564 33.859 75.564 75.565 0 41.705-33.859 75.564-75.564 75.564-41.706 0-75.565-33.859-75.565-75.564 0-41.706 33.859-75.565 75.565-75.565zm12.249 139.693c-3.968.754-8.063 1.149-12.249 1.149-1.38 0-2.5 1.12-2.5 2.5s1.12 2.5 2.5 2.5c4.505 0 8.912-.425 13.183-1.237 1.356-.258 2.247-1.568 1.989-2.923-.258-1.356-1.567-2.247-2.923-1.989zm42.538-28.645c-8.057 12.406-20.21 21.911-34.538 26.588-1.311.428-2.029 1.84-1.601 3.152.429 1.312 1.841 2.029 3.153 1.601 15.423-5.035 28.507-15.264 37.179-28.618.752-1.157.422-2.706-.735-3.458-1.157-.751-2.707-.422-3.458.735zm-57.262-31.058v15.863c-2.979.241-5.788.905-8.291 1.904-1.281.512-1.906 1.967-1.395 3.249.512 1.281 1.968 1.906 3.249 1.395 2.644-1.056 5.703-1.648 8.937-1.648s6.293.592 8.937 1.648c1.281.511 2.737-.114 3.249-1.395.511-1.282-.114-2.737-1.395-3.249-2.503-.999-5.312-1.663-8.291-1.904v-15.863c7.605 3.373 16.615 3.403 24.582-.695 9.362-4.815 14.926-14.115 15.415-23.931.044-.894-.393-1.744-1.146-2.228-8.269-5.312-19.071-6.196-28.433-1.381-5.949 3.06-10.364 7.93-12.918 13.593-2.554-5.663-6.969-10.533-12.918-13.593-9.362-4.815-20.164-3.931-28.433 1.381-.753.484-1.19 1.334-1.146 2.228.489 9.816 6.053 19.116 15.415 23.931 7.967 4.098 16.977 4.068 24.582.695zm67.752-4.425c0 7.067-1.125 13.873-3.206 20.249-.428 1.312.289 2.724 1.6 3.153 1.312.428 2.725-.29 3.153-1.601 2.241-6.865 3.453-14.193 3.453-21.801 0-1.38-1.12-2.5-2.5-2.5s-2.5 1.12-2.5 2.5zm-130.555 0c0-1.868.079-3.718.233-5.546.116-1.375-.906-2.585-2.281-2.701s-2.586.906-2.701 2.281c-.166 1.967-.251 3.956-.251 5.966 0 1.379 1.121 2.5 2.5 2.5 1.38 0 2.5-1.121 2.5-2.5zm102.686-18.98c-.852 7.542-5.338 14.535-12.588 18.264s-15.547 3.31-22.178-.383c.852-7.543 5.338-14.536 12.588-18.264 7.25-3.729 15.547-3.311 22.178.383zm-74.766 0c6.631-3.694 14.928-4.112 22.178-.383 7.25 3.728 11.736 10.721 12.588 18.263-6.631 3.694-14.928 4.113-22.178.384s-11.736-10.722-12.588-18.264zm-26.168 3.904c.937-3.955 2.233-7.771 3.854-11.412.561-1.26-.007-2.739-1.268-3.3-1.26-.561-2.739.007-3.3 1.268-1.746 3.921-3.142 8.032-4.151 12.292-.318 1.343.514 2.691 1.857 3.009 1.342.318 2.691-.514 3.008-1.857zm7.988-19.225c11.512-18.585 32.089-30.977 55.538-30.977 1.379 0 2.5-1.12 2.5-2.5 0-1.379-1.121-2.5-2.5-2.5-25.243 0-47.396 13.337-59.788 33.344-.727 1.173-.364 2.715.809 3.442 1.173.726 2.715.364 3.441-.809z"/></svg>