<?xml version="1.0"?>
<svg xmlns="http://www.w3.org/2000/svg" id="Line_Expand" data-name="Line Expand" viewBox="0 0 64 64" width="512" height="512"><path d="M40,3A20.96,20.96,0,0,0,23.2046,36.5527l-5.3052,5.3052-.707-.707a1,1,0,0,0-1.4141,0L4.4648,52.4644a5,5,0,1,0,7.07,7.0712L22.85,48.2217a1,1,0,0,0,0-1.4141L22.1421,46.1l5.3055-5.3047A20.9866,20.9866,0,1,0,40,3ZM10.1211,58.1216a3.0726,3.0726,0,0,1-4.2422,0,3.0037,3.0037,0,0,1,0-4.2432L16.4854,43.272l4.2431,4.2426ZM20.728,44.6862l-1.4145-1.4143,5.1706-5.1706q.6741.741,1.4148,1.4147ZM40,43A19,19,0,1,1,59,24,19.0216,19.0216,0,0,1,40,43Z"/><path d="M40,8A16,16,0,1,0,56,24,16.0183,16.0183,0,0,0,40,8Zm0,30A14,14,0,1,1,54,24,14.0158,14.0158,0,0,1,40,38Z"/><path d="M50.292,21.4355a11.0876,11.0876,0,0,0-5.5929-.5837c-.4069-3.7147-3.9236-6.5147-4.0819-6.6389a1,1,0,0,0-1.2344,0c-.1583.1242-3.6751,2.9243-4.0819,6.639a11.0849,11.0849,0,0,0-5.5929.5836,1.0006,1.0006,0,0,0-.6182,1.0689c.0264.1875.6885,4.6186,3.8135,6.4233a6.891,6.891,0,0,0,3.4668.8428A11.3,11.3,0,0,0,39,29.4379V33a1,1,0,0,0,2,0V29.4379a11.303,11.303,0,0,0,2.63.3326,6.891,6.891,0,0,0,3.4668-.8428c3.125-1.8047,3.7871-6.2358,3.8135-6.4233A1.0006,1.0006,0,0,0,50.292,21.4355ZM40,16.3408c.97.9395,2.74,2.961,2.74,5.2046S40.97,25.8105,40,26.75c-.97-.9395-2.74-2.9609-2.74-5.2046S39.03,17.28,40,16.3408ZM33.9033,27.1953c-1.6045-.9263-2.3525-3-2.6553-4.1562a7.743,7.743,0,0,1,4.1686-.0969,10.4812,10.4812,0,0,0,2.62,4.6609A6.15,6.15,0,0,1,33.9033,27.1953Zm12.1934,0a6.1525,6.1525,0,0,1-4.1328.4072,10.48,10.48,0,0,0,2.6195-4.66,7.75,7.75,0,0,1,4.1656.0961C48.4414,24.1958,47.6885,26.2769,46.0967,27.1953Z"/></svg>
