<svg id="Layer_1" enable-background="new 0 0 511.987 511.987" height="512" viewBox="0 0 511.987 511.987" width="512" xmlns="http://www.w3.org/2000/svg"><g><path d="m415.987 144h-36c-25.949 0-48.541 14.615-60 36.042-11.459-21.426-34.051-36.042-60-36.042h-36c-4.418 0-8 3.582-8 8v20c0 37.495 30.505 68 68 68h28v32c0 4.418 3.582 8 8 8s8-3.582 8-8v-32h28c37.495 0 68-30.505 68-68v-20c0-4.418-3.582-8-8-8zm-184 28v-12h28c28.673 0 52 23.327 52 52v2.92l-34.879-29.066c-3.393-2.83-8.438-2.371-11.267 1.024-2.829 3.394-2.37 8.438 1.024 11.267l31.026 25.855h-13.904c-28.673 0-52-23.327-52-52zm176 0c0 28.673-23.327 52-52 52h-13.904l31.025-25.854c3.395-2.828 3.854-7.873 1.024-11.267-2.827-3.395-7.873-3.853-11.267-1.024l-34.879 29.066v-2.921c0-28.673 23.327-52 52-52h28v12z"/><path d="m319.987 40c-83.813 0-152 68.187-152 152s68.187 152 152 152 152-68.187 152-152-68.187-152-152-152zm0 288c-74.991 0-136-61.01-136-136s61.009-136 136-136c74.99 0 136 61.01 136 136s-61.01 136-136 136z"/><path d="m319.987 0c-105.869 0-192 86.131-192 192 0 41.904 13.504 80.709 36.375 112.312l-25.095 25.095-3.799-3.799c-3.122-3.122-8.19-3.123-11.313 0-23.927 23.927-79.731 79.732-115.965 115.966-10.917 10.918-10.917 28.681 0 39.599l22.626 22.627c.159 0 7.086 8.187 19.799 8.187 7.17 0 14.34-2.729 19.799-8.187 108.529-108.529 7.316-7.317 115.965-115.966 3.125-3.125 3.125-8.189 0-11.314l-3.799-3.799 25.096-25.095c31.602 22.87 70.407 36.374 112.311 36.374 105.869 0 192-86.131 192-192s-86.131-192-192-192zm-260.887 492.486c-4.679 4.678-12.292 4.678-16.971 0l-22.627-22.628c-4.679-4.679-4.679-12.291 0-16.97l79.029-79.03 39.598 39.598zm90.343-90.344-39.598-39.598 19.966-19.966 39.598 39.599zm21.823-40.735-20.686-20.686 23.76-23.76c6.363 7.406 13.28 14.323 20.686 20.687zm148.721 6.593c-97.047 0-176-78.953-176-176s78.953-176 176-176 176 78.953 176 176-78.953 176-176 176z"/></g></svg>