<svg id="Layer_1" viewBox="0 0 512 512" xmlns="http://www.w3.org/2000/svg" data-name="Layer 1"><path d="m148.014 379.822a11.669 11.669 0 0 1 -1.67-6.233v-49.418a14.982 14.982 0 0 0 9.381-13.875v-8.01a14.982 14.982 0 0 0 -14.964-14.966h-18.614v-51.63c18.62-3.628 48.077-9.773 66.9-25.955 19.771-16.993 32.74-48.773 32.27-79.079a7 7 0 0 0 -6.891-6.89c-29.278-.47-61.753 12.779-79 32.182a79.523 79.523 0 0 0 -13.284 21.418v-41.842l.418-.617c8.917-13.168 23.843-35.208 25.494-57.069 1.7-22.442-9.322-48.687-28.07-66.863a7 7 0 0 0 -9.744 0c-17.821 17.282-29.368 44.725-28.073 66.746 1.159 19.733 12.707 37.458 22.895 53.1q1.57 2.412 3.085 4.763v41.692a79.487 79.487 0 0 0 -13.242-21.324c-17.249-19.4-49.749-32.645-79-32.182a7 7 0 0 0 -6.89 6.89c-.47 30.306 12.5 62.085 32.271 79.078 18.813 16.172 48.24 22.319 66.863 25.948v51.634h-18.574a14.983 14.983 0 0 0 -14.966 14.966v8.01a14.982 14.982 0 0 0 9.383 13.875v49.417a11.692 11.692 0 0 1 -1.67 6.235l-48.193 83.477a26.437 26.437 0 0 0 22.923 39.7h116.231a26.438 26.438 0 0 0 22.924-39.7zm-2.121-214.573c13.389-15.062 37.8-25.769 61.272-27.305-1.442 24.1-11.941 48.025-27.238 61.174-14.559 12.513-39.064 18.5-55.682 21.882 4.316-20.418 8.899-41.41 21.648-55.751zm-95.484 33.869c-15.3-13.149-25.8-37.076-27.239-61.174 23.467 1.537 47.884 12.244 61.272 27.305 12.748 14.341 17.332 35.332 21.649 55.751-16.619-3.382-41.123-9.369-55.682-21.882zm45.733-122.218c-.936-15.928 6.85-36.217 19-50.662 12.7 14.8 20.179 34.346 18.955 50.545-1.144 15.141-11.185 32.2-18.9 43.953-9.161-14.114-18.164-28.687-19.055-43.836zm-7.533 225.386a.979.979 0 0 1 .966-.966h51.186a.977.977 0 0 1 .964.966v8.01a.977.977 0 0 1 -.964.966h-51.186a.979.979 0 0 1 -.966-.966zm5.837 84.537a25.8 25.8 0 0 0 3.546-13.235v-48.326h34.352v48.327a25.788 25.788 0 0 0 3.545 13.234l18.169 31.469c-17.987 6.063-29.592 1.962-41.789-2.359-9.15-3.242-19.155-6.78-31.5-5.428zm89.664 95.959a12.358 12.358 0 0 1 -10.827 6.218h-116.231a12.437 12.437 0 0 1 -10.8-18.7l24.792-42.942c14.72-5.95 24.417-2.523 36.55 1.775 8.53 3.022 17.7 6.273 29.058 6.273a69.385 69.385 0 0 0 24.523-4.78l22.907 39.674a12.359 12.359 0 0 1 .028 12.482zm311.89-43.329h-23.075c27.186-48.72 34.454-99.083 21.573-149.878-11.171-44.049-37.264-87.835-77.566-130.2a42.882 42.882 0 0 0 -13.84-45.675l11.864-20.549a7 7 0 0 0 -2.563-9.562l-5.908-3.411 22.2-38.451a7 7 0 0 0 -2.562-9.562l-38.494-22.227a7 7 0 0 0 -9.563 2.562l-22.2 38.452-5.908-3.411a7 7 0 0 0 -9.558 2.559l-80.41 139.275a7 7 0 0 0 2.563 9.562l5.907 3.411-12.413 21.5a7 7 0 0 0 2.562 9.562l38.491 22.228a7 7 0 0 0 9.563-2.562l12.413-21.5 5.908 3.411a7 7 0 0 0 9.563-2.562l26.2-45.374a42.669 42.669 0 0 0 13.282 2.708c45.169 100.622 38.014 180.147-22.44 249.694h-27.848v-26.9h34.039a7 7 0 0 0 7-7v-38.518a7 7 0 0 0 -7-7h-154.148a7 7 0 0 0 -7 7v38.514a7 7 0 0 0 7 7h34.039v26.9h-19.453a7 7 0 0 0 -7 7v49.551a7 7 0 0 0 7 7h277.782a7 7 0 0 0 7-7v-49.547a7 7 0 0 0 -7-7zm-120.142-263.647a28.938 28.938 0 1 1 28.942-28.938 28.971 28.971 0 0 1 -28.942 28.938zm10.833-150.244 26.369 15.225-18.7 32.389-26.368-15.224zm-88.655 214.452-26.368-15.224 8.913-15.439 26.368 15.224zm27.884-20.651-50.309-29.047 73.41-127.151 50.31 29.046-8.357 14.474a42.921 42.921 0 0 0 -42.35 73.353zm62.592-31.463a43.1 43.1 0 0 0 21.672-15.27c58.912 63.421 111.26 159.026 46.554 266.822h-86.931c56.645-70.994 62.572-151.511 18.705-251.552zm-177.88 186.135h140.148v24.514h-140.148zm41.039 38.514h58.07v26.9h-58.07zm237.329 76.451h-263.782v-35.547h263.782zm-102.061-342.132a11.081 11.081 0 1 1 -11.081-11.082 11.1 11.1 0 0 1 11.081 11.082z" fill-rule="evenodd"/></svg>