<?xml version="1.0" encoding="UTF-8" standalone="no"?>
<!-- Created with Inkscape (http://www.inkscape.org/) -->

<svg
   version="1.1"
   id="svg6105"
   xml:space="preserve"
   width="682.66669"
   height="682.66669"
   viewBox="0 0 682.66669 682.66669"
   xmlns="http://www.w3.org/2000/svg"
   xmlns:svg="http://www.w3.org/2000/svg"><defs
     id="defs6109"><clipPath
       clipPathUnits="userSpaceOnUse"
       id="clipPath6119"><path
         d="M 0,512 H 512 V 0 H 0 Z"
         id="path6117" /></clipPath></defs><g
     id="g6111"
     transform="matrix(1.3333333,0,0,-1.3333333,0,682.66667)"><g
       id="g6113"><g
         id="g6115"
         clip-path="url(#clipPath6119)"><g
           id="g6121"
           transform="translate(360.9902,256.4141)"><path
             d="M 0,0 -0.007,0.007 C -4.906,-0.822 -9.949,-1.25 -15.093,-1.25 -65.3,-1.243 -106,39.457 -106.008,89.665 c 0,5.143 0.429,10.186 1.258,15.086 l -0.008,0.007"
             style="fill:none;stroke:#000000;stroke-width:15;stroke-linecap:round;stroke-linejoin:round;stroke-miterlimit:10;stroke-dasharray:none;stroke-opacity:1"
             id="path6123" /></g><g
           id="g6125"
           transform="translate(436.7314,349.9551)"><path
             d="m 0,0 c 0.055,-1.285 0.081,-2.577 0.081,-3.876 0,-5.144 -0.421,-10.179 -1.25,-15.079 -1.964,-11.793 -6.199,-22.815 -12.242,-32.601 -7.458,-12.085 -17.658,-22.285 -29.743,-29.743"
             style="fill:none;stroke:#000000;stroke-width:15;stroke-linecap:round;stroke-linejoin:round;stroke-miterlimit:10;stroke-dasharray:none;stroke-opacity:1"
             id="path6127" /></g><g
           id="g6129"
           transform="translate(268.4756,393.7578)"><path
             d="m 0,0 c 7.457,12.086 17.657,22.286 29.743,29.743 9.786,6.043 20.808,10.278 32.601,12.243 4.899,0.828 9.935,1.25 15.078,1.25 36.687,0 68.296,-21.725 82.664,-53.013"
             style="fill:none;stroke:#000000;stroke-width:15;stroke-linecap:round;stroke-linejoin:round;stroke-miterlimit:10;stroke-dasharray:none;stroke-opacity:1"
             id="path6131" /></g><g
           id="g6133"
           transform="translate(423.3203,298.3994)"><path
             d="m 0,0 c 9.313,-11.414 17.735,-22.464 25.028,-32.871 18.3,-26.115 24.551,-41.008 26.665,-48.566 -7.557,2.115 -22.443,8.373 -48.565,26.666 -10.407,7.292 -21.457,15.714 -32.871,25.028 -3.293,2.693 -6.615,5.443 -9.965,8.279 -18.179,15.379 -37.064,32.778 -55.572,51.286 -18.507,18.507 -35.907,37.394 -51.286,55.573 -2.829,3.342 -5.586,6.67 -8.279,9.963 -9.314,11.414 -17.736,22.465 -25.029,32.872 -18.293,26.122 -24.557,41.015 -26.664,48.565 7.55,-2.108 22.45,-8.364 48.564,-26.664 10.408,-7.293 21.458,-15.715 32.872,-25.029 m 32.601,12.243 c -13.375,11.4 -26.408,21.77 -38.783,30.824 m -29.477,19.78 c -11.138,6.694 -20.988,11.568 -29.399,14.539 -6.142,2.171 -24.85,8.779 -37.85,-4.221 -13,-13 -6.393,-31.707 -4.221,-37.851 4.05,-11.436 11.607,-25.55 22.493,-41.936 11.393,-17.165 25.9,-36.072 42.65,-55.708 l 0.007,-0.006 c 2.379,-2.793 4.801,-5.601 7.271,-8.415 13.265,-15.136 27.758,-30.615 43.101,-45.957 15.344,-15.343 30.822,-29.836 45.958,-43.101 2.814,-2.472 5.621,-4.893 8.414,-7.272 l 0.007,-0.006 c 19.637,-16.751 38.544,-31.258 55.701,-42.644 16.393,-10.893 30.507,-18.45 41.943,-22.5 6.143,-2.172 24.85,-8.779 37.851,4.221 13,13.001 6.393,31.708 4.221,37.85 -4.043,11.444 -11.607,25.551 -22.5,41.944 C 43.507,-5.949 28.985,12.958 12.242,32.601"
             style="fill:none;stroke:#000000;stroke-width:15;stroke-linecap:round;stroke-linejoin:round;stroke-miterlimit:10;stroke-dasharray:none;stroke-opacity:1"
             id="path6135" /></g><g
           id="g6137"
           transform="translate(357.7734,368.1279)"><path
             d="M 0,0 11.184,-11.184"
             style="fill:none;stroke:#000000;stroke-width:15;stroke-linecap:round;stroke-linejoin:round;stroke-miterlimit:10;stroke-dasharray:none;stroke-opacity:1"
             id="path6139" /></g><g
           id="g6141"
           transform="translate(397.6123,370.7871)"><path
             d="M 0,0 10.163,-10.163"
             style="fill:none;stroke:#000000;stroke-width:15;stroke-linecap:round;stroke-linejoin:round;stroke-miterlimit:10;stroke-dasharray:none;stroke-opacity:1"
             id="path6143" /></g><g
           id="g6145"
           transform="translate(381.2617,322.8535)"><path
             d="M 0,0 12.728,-12.727"
             style="fill:none;stroke:#000000;stroke-width:15;stroke-linecap:round;stroke-linejoin:round;stroke-miterlimit:10;stroke-dasharray:none;stroke-opacity:1"
             id="path6147" /></g><g
           id="g6149"
           transform="translate(342.0879,412.1699)"><path
             d="M 0,0 12.727,-12.727"
             style="fill:none;stroke:#000000;stroke-width:15;stroke-linecap:round;stroke-linejoin:round;stroke-miterlimit:10;stroke-dasharray:none;stroke-opacity:1"
             id="path6151" /></g><g
           id="g6153"
           transform="translate(311.3779,387.9258)"><path
             d="M 0,0 12.727,-12.727"
             style="fill:none;stroke:#000000;stroke-width:15;stroke-linecap:round;stroke-linejoin:round;stroke-miterlimit:10;stroke-dasharray:none;stroke-opacity:1"
             id="path6155" /></g><g
           id="g6157"
           transform="translate(244.2168,253.5869)"><path
             d="m 0,0 c 22.463,-20.427 38.324,-47.985 44.003,-79.097 1.52,-8.29 2.31,-16.84 2.31,-25.57 0,-56.03 -32.589,-104.46 -79.85,-127.34 -18.62,-9.02 -39.51,-14.08 -61.58,-14.08 -59.24,0 -109.98,36.43 -131.03,88.12 -6.7,16.45 -10.39,34.44 -10.39,53.3 0,11.62 1.4,22.92 4.05,33.73 6.89,28.19 22.24,53.07 43.21,71.8"
             style="fill:none;stroke:#000000;stroke-width:15;stroke-linecap:round;stroke-linejoin:round;stroke-miterlimit:10;stroke-dasharray:none;stroke-opacity:1"
             id="path6159" /></g><g
           id="g6161"
           transform="translate(106.1099,283.6904)"><path
             d="m 0,0 c 13.56,4.329 28,6.659 42.99,6.659 24.143,0 46.874,-6.05 66.758,-16.716"
             style="fill:none;stroke:#000000;stroke-width:15;stroke-linecap:round;stroke-linejoin:round;stroke-miterlimit:10;stroke-dasharray:none;stroke-opacity:1"
             id="path6163" /></g><g
           id="g6165"
           transform="translate(288.2217,174.4873)"><path
             d="m 0,0 h -88.378 c -12.021,0 -21.758,9.736 -21.758,21.758 0,6.005 2.437,11.444 6.375,15.383 3.938,3.937 9.378,6.374 15.383,6.374 h 72.691"
             style="fill:none;stroke:#000000;stroke-width:15;stroke-linecap:round;stroke-linejoin:round;stroke-miterlimit:10;stroke-dasharray:none;stroke-opacity:1"
             id="path6167" /></g><g
           id="g6169"
           transform="translate(11.7295,182.6465)"><path
             d="m 0,0 h 95.646 c 6.004,0 11.444,-2.437 15.382,-6.375 3.938,-3.938 6.375,-9.377 6.375,-15.382 0,-12.021 -9.737,-21.758 -21.757,-21.758 H 78.239 c -12.021,0 -21.757,-9.736 -21.757,-21.756 0,-12.022 -9.736,-21.758 -21.757,-21.758 H 6.342"
             style="fill:none;stroke:#000000;stroke-width:15;stroke-linecap:round;stroke-linejoin:round;stroke-miterlimit:10;stroke-dasharray:none;stroke-opacity:1"
             id="path6171" /></g><g
           id="g6173"
           transform="translate(283.6943,105.4082)"><path
             d="m 0,0 h -122.623 c -6.004,0 -11.444,-2.437 -15.382,-6.375 -3.938,-3.938 -6.375,-9.377 -6.375,-15.383 0,-12.02 9.736,-21.757 21.757,-21.757 h 17.406 c 12.021,0 21.758,-9.736 21.758,-21.757 0,-7.871 4.187,-14.74 10.442,-18.561"
             style="fill:none;stroke:#000000;stroke-width:15;stroke-linecap:round;stroke-linejoin:round;stroke-miterlimit:10;stroke-dasharray:none;stroke-opacity:1"
             id="path6175" /></g><g
           id="g6177"
           transform="translate(107.3247,275.1934)"><path
             d="m 0,0 c 0,-16.737 -13.568,-30.305 -30.305,-30.305 -16.737,0 -30.304,13.568 -30.304,30.305 0,16.736 13.567,30.305 30.304,30.305 C -13.568,30.305 0,16.736 0,0 Z"
             style="fill:none;stroke:#000000;stroke-width:15;stroke-linecap:round;stroke-linejoin:round;stroke-miterlimit:10;stroke-dasharray:none;stroke-opacity:1"
             id="path6179" /></g><g
           id="g6181"
           transform="translate(504.3184,470.1543)"><path
             d="m 0,0 c 0,-18.969 -15.377,-34.346 -34.345,-34.346 -18.968,0 -34.345,15.377 -34.345,34.346 0,18.969 15.377,34.346 34.345,34.346 C -15.377,34.346 0,18.969 0,0 Z"
             style="fill:none;stroke:#000000;stroke-width:15;stroke-linecap:round;stroke-linejoin:round;stroke-miterlimit:10;stroke-dasharray:none;stroke-opacity:1"
             id="path6183" /></g><g
           id="g6185"
           transform="translate(391.8623,146.0869)"><path
             d="M 0,0 14.471,5.866 0,11.732 c -4.555,1.847 -8.281,5.291 -10.479,9.689 L -22.905,46.272 -35.332,21.42 c -2.198,-4.397 -5.924,-7.841 -10.48,-9.688 L -60.281,5.866 -45.812,0 c 4.556,-1.847 8.282,-5.291 10.48,-9.688 l 12.427,-24.852 12.426,24.852 C -8.281,-5.291 -4.556,-1.847 0,0 Z"
             style="fill:none;stroke:#000000;stroke-width:15;stroke-linecap:round;stroke-linejoin:round;stroke-miterlimit:10;stroke-dasharray:none;stroke-opacity:1"
             id="path6187" /></g><g
           id="g6189"
           transform="translate(92.8545,436.0039)"><path
             d="M 0,0 14.47,5.866 0,11.732 c -4.556,1.847 -8.281,5.291 -10.48,9.688 L -22.906,46.272 -35.332,21.42 c -2.199,-4.397 -5.924,-7.841 -10.48,-9.688 L -60.282,5.866 -45.812,0 c 4.556,-1.847 8.281,-5.291 10.48,-9.688 L -22.906,-34.54 -10.48,-9.688 C -8.282,-5.292 -4.556,-1.848 0,0 Z"
             style="fill:none;stroke:#000000;stroke-width:15;stroke-linecap:round;stroke-linejoin:round;stroke-miterlimit:10;stroke-dasharray:none;stroke-opacity:1"
             id="path6191" /></g></g></g></g></svg>
