<svg width="26" height="26" viewBox="0 0 26 26" fill="none" xmlns="http://www.w3.org/2000/svg">
<g clip-path="url(#clip0_8_189)">
<path d="M25.4516 9.24394C25.4551 9.22785 25.459 9.2123 25.4623 9.19573L25.4354 9.19037C24.8221 7.17922 23.7212 5.33653 22.1923 3.80763C19.737 1.35227 16.4723 0 13 0C9.52756 0 6.26295 1.35227 3.80758 3.80768C1.35222 6.26305 6.10352e-05 9.52766 6.10352e-05 13.0001C6.10352e-05 16.4724 1.35227 19.7371 3.80758 22.1924C6.26289 24.6478 9.5275 26 13 26C16.4724 26 19.737 24.6478 22.1924 22.1924C24.6478 19.7371 26 16.4724 26 13.0001C26 11.7089 25.8126 10.4466 25.4516 9.24394ZM18.6982 2.5286C19.6154 3.02942 20.4712 3.65445 21.244 4.39577C21.1719 4.59646 21.0494 4.81718 20.8591 4.81718C20.8561 4.81718 20.8532 4.81713 20.8501 4.81702C20.6868 4.81112 20.4975 4.74899 20.2971 4.68328C19.9934 4.58373 19.6492 4.47074 19.2581 4.50231C18.8754 4.53303 18.5473 4.69461 18.2579 4.83712C17.9866 4.97069 17.7523 5.08623 17.5844 5.04425C17.4248 5.00449 17.2578 4.80359 17.0865 4.58346C17.0103 4.48563 16.9632 4.41549 16.9459 4.37432C16.9663 4.34025 17.0078 4.28646 17.0299 4.25786C17.2456 3.97869 17.6099 3.62135 17.9623 3.27577C18.2165 3.02639 18.4756 2.77164 18.6982 2.5286ZM14.8886 1.23212C14.8255 1.6355 14.651 2.1672 14.4931 2.36258C14.3185 2.57843 14.0099 2.6781 13.8051 2.58488C13.5986 2.49074 13.4351 2.19656 13.3678 1.79795C13.3237 1.53665 13.2368 1.30054 13.145 1.08517C13.7343 1.0921 14.3166 1.14156 14.8886 1.23212ZM4.57366 4.57371C5.98702 3.16034 7.69299 2.14597 9.55486 1.58664C9.7797 2.32591 10.0535 3.01848 10.3206 3.67297C10.525 4.17417 10.7568 4.74216 10.7044 5.2562C10.6844 5.45304 10.6344 5.70476 10.5098 5.78628C10.4014 5.85723 10.1838 5.87538 9.95352 5.89461C9.57392 5.9263 9.10154 5.96573 8.67124 6.26787C8.57932 6.33238 8.49395 6.39912 8.41146 6.46352C8.23417 6.60202 8.06669 6.73278 7.91053 6.77655C7.75615 6.81988 7.55725 6.79718 7.32683 6.77091C7.1945 6.75586 7.05762 6.74031 6.91278 6.73554C6.45302 6.71864 5.405 6.93953 4.94871 7.53547C4.72321 7.82998 4.65827 8.18596 4.76584 8.53788C4.84552 8.79869 5.01625 8.98063 5.17285 9.12428C5.90426 9.79486 6.90807 10.2698 7.92678 10.4274C8.07248 10.45 8.21354 10.4672 8.34998 10.4839C9.09699 10.5753 9.46863 10.6418 9.75116 11.1509C9.82152 11.2777 9.87818 11.4278 9.93819 11.5867C10.0073 11.7698 10.0787 11.959 10.1828 12.1498C10.4917 12.7165 11.0126 13.0485 11.5416 13.0191C11.9364 12.9963 12.2281 12.7902 12.4624 12.6247C12.5705 12.5483 12.6726 12.4762 12.76 12.4398C12.9948 12.3417 13.3533 12.4288 13.7185 12.6722C13.9689 12.8392 14.293 13.1154 14.4142 13.4831C14.5055 13.7596 14.4423 14.0798 14.2653 14.2295L12.6733 15.5891C12.1607 16.027 11.6122 16.5587 11.5937 17.3297C11.5879 17.5736 11.6382 17.8078 11.6826 18.0144C11.7137 18.159 11.7656 18.401 11.7377 18.4642C11.7085 18.4901 11.572 18.5236 11.4905 18.5436C11.3468 18.5788 11.1841 18.6186 11.0187 18.7022C10.2167 19.1072 10.1418 20.0666 10.0921 20.7015C10.0562 21.1621 9.88533 21.5497 9.71118 21.5656C9.56954 21.5792 9.3695 21.3343 9.3 21.0629C9.25689 20.8945 9.23663 20.7067 9.21518 20.508C9.18431 20.2216 9.14926 19.897 9.03426 19.5782C8.88607 19.1674 8.62807 18.8289 8.40046 18.5301C8.17692 18.2366 7.96572 17.9595 7.89753 17.6712C7.84645 17.4552 7.86703 17.1957 7.88892 16.9208C7.91676 16.5709 7.94828 16.1743 7.83729 15.7706C7.67956 15.1968 7.2887 14.7867 6.94382 14.4248C6.71735 14.1873 6.50345 13.9629 6.37637 13.7204C6.22319 13.4281 6.2422 13.1218 6.26425 12.767C6.2851 12.4308 6.30877 12.0497 6.17493 11.6576C6.04124 11.266 5.72524 11.0398 5.49118 10.8722C4.805 10.381 4.16226 9.82157 3.5809 9.20943C3.27009 8.88221 2.96627 8.52482 2.84857 8.12924C2.8178 8.02584 2.79651 7.94773 2.77977 7.88663C2.7054 7.61428 2.66158 7.517 2.50531 7.34405C3.04931 6.33796 3.74226 5.40511 4.57366 4.57371ZM13 24.9167C9.81692 24.9167 6.82438 23.6771 4.57366 21.4263C2.32293 19.1756 1.08339 16.1831 1.08339 13.0001C1.08339 11.4944 1.3611 10.0316 1.89161 8.6695C2.0963 9.17493 2.44389 9.58529 2.79543 9.95541C3.42398 10.6172 4.11882 11.222 4.86388 11.7553C4.96913 11.8307 5.12827 11.9446 5.14972 12.0075C5.21423 12.1965 5.19977 12.4298 5.18303 12.6999C5.15638 13.129 5.12329 13.6629 5.41687 14.2231C5.61447 14.6002 5.89164 14.891 6.15965 15.1722C6.45351 15.4804 6.70727 15.7467 6.7927 16.0576C6.85325 16.2779 6.83175 16.5486 6.809 16.8349C6.78278 17.1649 6.75305 17.5389 6.84329 17.9204C6.96446 18.4328 7.26958 18.8333 7.53873 19.1866C7.7366 19.4463 7.92347 19.6916 8.01518 19.9458C8.08608 20.1423 8.11132 20.3763 8.13803 20.6241C8.16262 20.8521 8.18808 21.0878 8.25048 21.3315C8.42251 22.0036 8.9678 22.6496 9.69574 22.6496C9.73317 22.6496 9.7712 22.6479 9.8096 22.6444C10.5659 22.5754 11.088 21.8631 11.1721 20.7858C11.2046 20.3695 11.2491 19.7993 11.5069 19.6692C11.5619 19.6414 11.6523 19.6192 11.7481 19.5958C11.9693 19.5417 12.2721 19.4675 12.5125 19.2213C12.9529 18.7703 12.8308 18.2019 12.7417 17.787C12.7069 17.6247 12.6739 17.4715 12.6767 17.3558C12.6845 17.031 13.0422 16.6988 13.3768 16.4129L14.9668 15.0549C15.4844 14.6172 15.6757 13.8491 15.443 13.1436C15.2704 12.6205 14.8819 12.1458 14.3192 11.7707C13.6321 11.3128 12.9303 11.1952 12.3433 11.4396C12.1452 11.5221 11.9815 11.6378 11.8371 11.7399C11.703 11.8346 11.5644 11.9326 11.4791 11.9375C11.394 11.9429 11.2417 11.8292 11.1338 11.6312C11.0656 11.5062 11.0103 11.3595 10.9516 11.2041C10.8805 11.0158 10.807 10.8212 10.6983 10.6252C10.1354 9.61086 9.25673 9.50339 8.4815 9.40849C8.35345 9.39284 8.22106 9.37664 8.09231 9.35671C7.27976 9.2311 6.48248 8.85529 5.90496 8.32582C5.83211 8.25903 5.808 8.22859 5.80015 8.21548C5.79939 8.21245 5.7989 8.21012 5.79863 8.20844C5.87019 8.04198 6.51905 7.80782 6.87709 7.81822C6.97832 7.82158 7.08801 7.83409 7.20414 7.84731C7.50412 7.88149 7.84407 7.92027 8.20281 7.81968C8.56497 7.71818 8.83764 7.50519 9.07825 7.31734C9.15338 7.25863 9.22439 7.20322 9.29378 7.15447C9.48401 7.02089 9.74336 6.99928 10.0437 6.9742C10.6377 6.92464 11.632 6.84165 11.7822 5.36594C11.8619 4.58319 11.5635 3.85161 11.3237 3.2638C11.0732 2.64982 10.8164 2.00242 10.6067 1.32291C11.0575 1.23147 11.5156 1.16626 11.9791 1.12715C12.005 1.18657 12.0311 1.24529 12.0571 1.30297C12.1629 1.53773 12.2627 1.75943 12.2997 1.97827C12.4307 2.75442 12.8059 3.32002 13.356 3.57071C13.5529 3.66046 13.7654 3.70347 13.9798 3.70347C14.4814 3.70347 14.9928 3.46768 15.3356 3.04367C15.6114 2.70236 15.852 2.0391 15.9489 1.44944C16.5402 1.59926 17.117 1.79464 17.6759 2.03297C17.526 2.18627 17.3638 2.34552 17.2038 2.50233C16.8253 2.87358 16.4339 3.25741 16.1728 3.59557C16.0693 3.72941 15.9131 3.93162 15.8689 4.21139C15.7939 4.68648 16.0896 5.06635 16.2317 5.24889C16.4526 5.53278 16.7866 5.96177 17.3224 6.09546C17.4381 6.12427 17.5505 6.13684 17.6594 6.13679C18.0709 6.13679 18.4331 5.95847 18.7365 5.80903C18.9586 5.69966 19.1684 5.59637 19.3448 5.58218C19.5188 5.56799 19.7231 5.63521 19.9596 5.71272C20.2104 5.79494 20.4947 5.88811 20.8109 5.89959C21.3172 5.91828 21.7426 5.67686 22.0349 5.22863C23.0537 6.40941 23.8192 7.75934 24.3043 9.21133C24.2245 9.26896 24.0623 9.27654 23.6814 9.28131C23.5159 9.28337 23.3284 9.2857 23.1284 9.30108C22.5715 9.34382 22.1409 9.18435 21.6423 8.99959C21.3075 8.87555 20.9614 8.74728 20.5476 8.66506C19.505 8.45755 18.4276 9.04022 17.8028 10.149C17.6892 10.3506 16.7138 12.1471 17.4355 13.1412C17.7052 13.5125 18.0869 13.7414 18.3936 13.9254C18.8287 14.1861 19.2786 14.4558 19.7769 14.6568C19.8835 14.6999 19.9913 14.7396 20.0954 14.7781C20.4745 14.918 20.8325 15.0501 21.008 15.2903C21.1548 15.4913 21.2035 15.8095 21.1568 16.2629C21.1213 16.607 20.9931 16.9568 20.8573 17.327C20.5528 18.1573 20.1739 19.1908 21.0622 20.2059C21.3155 20.4953 21.6197 20.7158 21.9561 20.8606C21.7861 21.0538 21.6099 21.2428 21.4264 21.4263C19.1755 23.6771 16.183 24.9167 13 24.9167ZM22.6791 19.9547C22.37 19.8993 22.0963 19.7425 21.8774 19.4924C21.4328 18.9844 21.5706 18.5284 21.8744 17.7C22.0271 17.2835 22.185 16.8528 22.2344 16.374C22.3098 15.6419 22.1948 15.0784 21.8827 14.6513C21.5144 14.1471 20.9598 13.9424 20.4706 13.7618C20.3694 13.7245 20.2739 13.6892 20.1822 13.6522C19.7626 13.4829 19.3682 13.2466 18.9506 12.9963C18.7054 12.8493 18.4518 12.6973 18.3121 12.5049C18.1404 12.2684 18.3515 11.3819 18.7466 10.6809C19.0434 10.1544 19.6378 9.58903 20.3364 9.7277C20.6657 9.79313 20.9572 9.90114 21.2658 10.0155C21.8321 10.2253 22.4179 10.4428 23.2115 10.3813C23.3767 10.3686 23.5385 10.3666 23.695 10.3646C23.9763 10.3611 24.3028 10.3568 24.601 10.2597C24.8089 11.1475 24.9166 12.0654 24.9166 13.0001C24.9166 15.5313 24.132 17.9416 22.6791 19.9547Z" fill="#7A7A7A"/>
</g>
<defs>
<clipPath id="clip0_8_189">
<rect width="26" height="26" fill="white"/>
</clipPath>
</defs>
</svg>
