<?xml version="1.0" encoding="UTF-8"?>
<svg xmlns="http://www.w3.org/2000/svg" xmlns:xlink="http://www.w3.org/1999/xlink" version="1.1" id="Capa_1" x="0px" y="0px" viewBox="0 0 513.003 513.003" style="enable-background:new 0 0 513.003 513.003;" xml:space="preserve" width="512" height="512">
<g>
	<g>
		
			<line style="fill:none;stroke:#000000;stroke-width:15;stroke-miterlimit:10;" x1="242.003" y1="350.305" x2="184.269" y2="350.305"/>
		
			<line style="fill:none;stroke:#000000;stroke-width:15;stroke-miterlimit:10;" x1="316.769" y1="350.305" x2="257.003" y2="350.305"/>
		
			<line style="fill:none;stroke:#000000;stroke-width:15;stroke-miterlimit:10;" x1="321.238" y1="395.305" x2="184.269" y2="395.305"/>
		
			<line style="fill:none;stroke:#000000;stroke-width:15;stroke-miterlimit:10;" x1="274.769" y1="440.305" x2="184.269" y2="440.305"/>
	</g>
	<path style="fill:none;stroke:#000000;stroke-width:15;stroke-miterlimit:10;" d="M157.91,305.172l25.371-8.583&#10;&#9;&#9;c15.038-5.087,23.51-21.01,19.325-36.325l-6.907-25.28L93.523,265.731l-60.779,52.931H2.006"/>
	<path style="fill:none;stroke:#000000;stroke-width:15;stroke-miterlimit:10;" d="M0,468.662h30.738l44.5,16.642h196.992&#10;&#9;&#9;c12.2,0,22.591-9.487,23.025-21.679c0.455-12.8-9.787-23.321-22.485-23.321l42-0.125c12.426,0,22.5-10.074,22.5-22.5&#10;&#9;&#9;c0-11.625-8.818-21.19-20.13-22.375h27.63c12.426,0,22.5-10.074,22.5-22.5s-10.074-22.5-22.5-22.5h-30&#10;&#9;&#9;c12.426,0,22.5-10.074,22.5-22.5s-10.074-22.5-22.5-22.5l-176.859-0.117"/>
	<path style="fill:none;stroke:#000000;stroke-width:15;stroke-miterlimit:10;" d="M353.19,44.744L235.333,33.463l60.975,49.861&#10;&#9;&#9;l57.205,4.878c11.678-0.547,20.834-10.228,20.729-21.918C374.136,54.62,364.848,45.117,353.19,44.744z"/>
	<path style="fill:none;stroke:#000000;stroke-width:15;stroke-miterlimit:10;" d="M453.414,385.24&#10;&#9;&#9;c7.37-17.29,11.408-36.058,11.408-55.673c0-53.292-29.812-100.329-75.28-128.436l25.807-55.745H166.989"/>
	<path style="fill:none;stroke:#000000;stroke-width:15;stroke-miterlimit:10;" d="M276.621,484.893&#10;&#9;&#9;c4.785,0.355,9.624,0.536,14.511,0.536c68.2,0,127.219-35.273,155.639-86.598"/>
	<path style="fill:none;stroke:#000000;stroke-width:15;stroke-miterlimit:10;" d="M183.054,207.559&#10;&#9;&#9;c-17.186,12.275-31.721,27.411-42.708,44.605"/>
	
		<line style="fill:none;stroke:#000000;stroke-width:15;stroke-miterlimit:10;" x1="389.542" y1="201.13" x2="252.753" y2="201.13"/>
	
		<line style="fill:none;stroke:#000000;stroke-width:15;stroke-miterlimit:10;" x1="362.337" y1="281.93" x2="347.003" y2="281.93"/>
	<path style="fill:none;stroke:#000000;stroke-width:15;stroke-miterlimit:10;" d="M462.518,234.984&#10;&#9;&#9;c16.673,4.977,26.985,11.852,26.985,19.445c0,15.188-41.249,27.5-92.133,27.5h-20.034"/>
	<path style="fill:none;stroke:#000000;stroke-width:15;stroke-miterlimit:10;" d="M478.518,296.832&#10;&#9;&#9;c16.673,4.977,26.985,11.852,26.985,19.445c0,15.188-41.249,27.5-92.133,27.5"/>
	<polyline style="fill:none;stroke:#000000;stroke-width:15;stroke-miterlimit:10;" points="133.731,38.091 43.128,47.867 &#10;&#9;&#9;1.003,47.867 &#9;"/>
	<path style="fill:none;stroke:#000000;stroke-width:15;stroke-miterlimit:10;" d="M1.003,178.058h18.124&#10;&#9;&#9;c0,0,44.876,49.538,111.334,9.809l81.542,30.781l7.431-18.272c6.177-15.19-0.986-32.525-16.084-38.923l-66.232-28.068&#10;&#9;&#9;l87.011-30.455l69.83,42.455h71.446c-1.235-5.046-4.25-9.668-8.866-12.809L228.49,27.867l-79.547,8.583"/>
	
		<line style="fill:none;stroke:#000000;stroke-width:15;stroke-miterlimit:10;" x1="233.544" y1="251.93" x2="321.148" y2="251.93"/>
	
		<line style="fill:none;stroke:#000000;stroke-width:15;stroke-miterlimit:10;" x1="365.404" y1="431.93" x2="477.222" y2="431.93"/>
	
		<line style="fill:none;stroke:#000000;stroke-width:15;stroke-miterlimit:10;" x1="137.117" y1="133.385" x2="102.503" y2="118.354"/>
</g>















</svg>
