<?xml version="1.0" encoding="UTF-8" standalone="no"?>
<!-- Created with Inkscape (http://www.inkscape.org/) -->

<svg
   version="1.1"
   id="svg9"
   xml:space="preserve"
   width="682.66669"
   height="682.66669"
   viewBox="0 0 682.66669 682.66669"
   xmlns="http://www.w3.org/2000/svg"
   xmlns:svg="http://www.w3.org/2000/svg"><defs
     id="defs13"><clipPath
       clipPathUnits="userSpaceOnUse"
       id="clipPath23"><path
         d="M 0,512 H 512 V 0 H 0 Z"
         id="path21" /></clipPath></defs><g
     id="g15"
     transform="matrix(1.3333333,0,0,-1.3333333,0,682.66667)"><g
       id="g17"><g
         id="g19"
         clip-path="url(#clipPath23)"><g
           id="g25"
           transform="translate(321.6592,70.2471)"><path
             d="M 0,0 V -52.249"
             style="fill:none;stroke:#000000;stroke-width:15;stroke-linecap:round;stroke-linejoin:round;stroke-miterlimit:10;stroke-dasharray:none;stroke-opacity:1"
             id="path27" /></g><g
           id="g29"
           transform="translate(279.2275,17.9985)"><path
             d="M 0,0 V 52.249"
             style="fill:none;stroke:#000000;stroke-width:15;stroke-linecap:round;stroke-linejoin:round;stroke-miterlimit:10;stroke-dasharray:none;stroke-opacity:1"
             id="path31" /></g><g
           id="g33"
           transform="translate(247.2114,114.2202)"><path
             d="M 0,0 V -31.496 C 0,-37.375 4.765,-42.14 10.644,-42.14 h 85.177 c 5.878,0 10.643,4.765 10.643,10.644 V 0"
             style="fill:none;stroke:#000000;stroke-width:15;stroke-linecap:round;stroke-linejoin:round;stroke-miterlimit:10;stroke-dasharray:none;stroke-opacity:1"
             id="path35" /></g><g
           id="g37"
           transform="translate(169.1885,267.3286)"><path
             d="m 0,0 c 12.801,-61.209 67.736,-107.408 132.582,-106.779 73.433,0.712 132.741,60.46 132.741,134.061 0,19.578 -4.198,38.174 -11.741,54.941"
             style="fill:none;stroke:#000000;stroke-width:15;stroke-linecap:round;stroke-linejoin:round;stroke-miterlimit:10;stroke-dasharray:none;stroke-opacity:1"
             id="path39" /></g><g
           id="g41"
           transform="translate(210.9082,454.4248)"><path
             d="M 0,0 C 4.554,-18.123 3.281,-36.988 -3.236,-54.129"
             style="fill:none;stroke:#000000;stroke-width:15;stroke-linecap:round;stroke-linejoin:round;stroke-miterlimit:10;stroke-dasharray:none;stroke-opacity:1"
             id="path43" /></g><g
           id="g45"
           transform="translate(404.2119,379.6343)"><path
             d="M 0,0 C -15.69,21.422 -20.715,48.855 -14.284,74.595"
             style="fill:none;stroke:#000000;stroke-width:15;stroke-linecap:round;stroke-linejoin:round;stroke-miterlimit:10;stroke-dasharray:none;stroke-opacity:1"
             id="path47" /></g><g
           id="g49"
           transform="translate(408.6323,456.9062)"><path
             d="m 0,0 h -216.377 c -7.095,0 -12.845,5.751 -12.845,12.845 V 24.25 c 0,7.095 5.75,12.845 12.845,12.845 H 0 c 7.094,0 12.845,-5.75 12.845,-12.845 V 12.845 C 12.845,5.751 7.094,0 0,0 Z"
             style="fill:none;stroke:#000000;stroke-width:15;stroke-linecap:round;stroke-linejoin:round;stroke-miterlimit:10;stroke-dasharray:none;stroke-opacity:1"
             id="path51" /></g><g
           id="g53"
           transform="translate(90.0503,436.7866)"><path
             d="m 0,0 c -45.747,-0.933 -82.55,-38.283 -82.55,-84.252 v -0.001 c 0,-46.556 37.74,-84.296 84.297,-84.296 H 123.25 c 8.837,0 16.364,6.872 16.677,15.704 0.33,9.272 -7.089,16.892 -16.287,16.892 h 15.252 c 8.837,0 16.364,6.872 16.678,15.704 0.33,9.272 -7.089,16.893 -16.288,16.893 h 11.732 c 9.001,0 16.298,7.296 16.298,16.298 0,9.001 -7.297,16.298 -16.298,16.298 h -11.732 c 9.002,0 16.299,7.297 16.299,16.298 0,9.002 -7.297,16.298 -16.299,16.298 H 60.998 c 10.55,0 19.103,8.554 19.103,19.104 0,10.551 -8.553,19.104 -19.103,19.104 H 35.395"
             style="fill:none;stroke:#000000;stroke-width:15;stroke-linecap:round;stroke-linejoin:round;stroke-miterlimit:10;stroke-dasharray:none;stroke-opacity:1"
             id="path55" /></g><g
           id="g57"
           transform="translate(151.0479,398.623)"><path
             d="M 0,0 H -39.477"
             style="fill:none;stroke:#000000;stroke-width:15;stroke-linecap:round;stroke-linejoin:round;stroke-miterlimit:10;stroke-dasharray:none;stroke-opacity:1"
             id="path59" /></g><g
           id="g61"
           transform="translate(229.3325,366.0264)"><path
             d="M 0,0 H -80.986"
             style="fill:none;stroke:#000000;stroke-width:15;stroke-linecap:round;stroke-linejoin:round;stroke-miterlimit:10;stroke-dasharray:none;stroke-opacity:1"
             id="path63" /></g><g
           id="g65"
           transform="translate(229.3325,333.4302)"><path
             d="M 0,0 H -80.986"
             style="fill:none;stroke:#000000;stroke-width:15;stroke-linecap:round;stroke-linejoin:round;stroke-miterlimit:10;stroke-dasharray:none;stroke-opacity:1"
             id="path67" /></g><g
           id="g69"
           transform="translate(213.6904,300.8335)"><path
             d="M 0,0 H -65.344"
             style="fill:none;stroke:#000000;stroke-width:15;stroke-linecap:round;stroke-linejoin:round;stroke-miterlimit:10;stroke-dasharray:none;stroke-opacity:1"
             id="path71" /></g><g
           id="g73"
           transform="translate(221.123,116.439)"><path
             d="m 0,0 h 236.689 c 5.878,0 10.644,4.765 10.644,10.644 V 33.46 c 0,5.879 -4.766,10.644 -10.644,10.644 H -78.048 c -5.879,0 -10.644,-4.765 -10.644,-10.644 V 10.644 C -88.692,4.765 -83.927,0 -78.048,0 h 42.653"
             style="fill:none;stroke:#000000;stroke-width:15;stroke-linecap:round;stroke-linejoin:round;stroke-miterlimit:10;stroke-dasharray:none;stroke-opacity:1"
             id="path75" /></g><g
           id="g77"
           transform="translate(257.3257,267.2163)"><path
             d="M 0,0 C 13.488,-0.486 27.873,-0.759 43.118,-0.759"
             style="fill:none;stroke:#000000;stroke-width:15;stroke-linecap:round;stroke-linejoin:round;stroke-miterlimit:10;stroke-dasharray:none;stroke-opacity:1"
             id="path79" /></g><g
           id="g81"
           transform="translate(151.0332,212.7202)"><path
             d="M 0,0 C -20.898,3.395 -37.741,7.517 -50.061,12.249"
             style="fill:none;stroke:#000000;stroke-width:15;stroke-linecap:round;stroke-linejoin:round;stroke-miterlimit:10;stroke-dasharray:none;stroke-opacity:1"
             id="path83" /></g><g
           id="g85"
           transform="translate(499.9141,224.9687)"><path
             d="m 0,0 c -12.319,-4.732 -29.162,-8.854 -50.06,-12.249 -40.182,-6.528 -93.243,-10.124 -149.411,-10.124"
             style="fill:none;stroke:#000000;stroke-width:15;stroke-linecap:round;stroke-linejoin:round;stroke-miterlimit:10;stroke-dasharray:none;stroke-opacity:1"
             id="path87" /></g><g
           id="g89"
           transform="translate(437.8101,292.1968)"><path
             d="m 0,0 c 40.975,-6.063 66.69,-14.802 66.69,-24.517 0,-18.31 -91.359,-33.152 -204.057,-33.152 -112.697,0 -204.056,14.842 -204.056,33.152"
             style="fill:none;stroke:#000000;stroke-width:15;stroke-linecap:round;stroke-linejoin:round;stroke-miterlimit:10;stroke-dasharray:none;stroke-opacity:1"
             id="path91" /></g><g
           id="g93"
           transform="translate(343.0762,407.9922)"><path
             d="M 0,0 V -9.369"
             style="fill:none;stroke:#000000;stroke-width:15;stroke-linecap:round;stroke-linejoin:round;stroke-miterlimit:10;stroke-dasharray:none;stroke-opacity:1"
             id="path95" /></g><g
           id="g97"
           transform="translate(311.667,381.9902)"><path
             d="M 0,0 V -9.37"
             style="fill:none;stroke:#000000;stroke-width:15;stroke-linecap:round;stroke-linejoin:round;stroke-miterlimit:10;stroke-dasharray:none;stroke-opacity:1"
             id="path99" /></g><g
           id="g101"
           transform="translate(364.3379,310.2031)"><path
             d="M 0,0 V -9.37"
             style="fill:none;stroke:#000000;stroke-width:15;stroke-linecap:round;stroke-linejoin:round;stroke-miterlimit:10;stroke-dasharray:none;stroke-opacity:1"
             id="path103" /></g></g></g></g></svg>
