<svg width="27" height="26" viewBox="0 0 27 26" fill="none" xmlns="http://www.w3.org/2000/svg">
<g clip-path="url(#clip0_10_233)">
<path d="M24.7667 2.16667H12.5514C12.1457 2.16669 11.7528 2.02438 11.4412 1.76453L10.0468 0.602767C9.57924 0.213571 8.99022 0.000315783 8.3819 0L2.23333 0C1.77362 0 1.33274 0.182619 1.00768 0.507682C0.682619 0.832745 0.5 1.27362 0.5 1.73333L0.5 21.6667C0.5 22.1264 0.682619 22.5673 1.00768 22.8923C1.33274 23.2174 1.77362 23.4 2.23333 23.4H9.67973C9.75291 23.6064 9.87704 23.7909 10.0406 23.9365C10.2041 24.0821 10.4018 24.1841 10.6153 24.2329L11.04 25.0826C11.1771 25.3589 11.3889 25.5912 11.6512 25.7534C11.9136 25.9155 12.2161 26.0009 12.5246 26H14.4746C14.783 26.0009 15.0855 25.9155 15.3479 25.7534C15.6103 25.5912 15.822 25.3589 15.9592 25.0826L16.3838 24.2329C16.5975 24.1842 16.7953 24.0823 16.959 23.9367C17.1228 23.7911 17.247 23.6065 17.3203 23.4H24.7667C25.2264 23.4 25.6673 23.2174 25.9923 22.8923C26.3174 22.5673 26.5 22.1264 26.5 21.6667V3.9C26.5 3.44029 26.3174 2.99941 25.9923 2.67435C25.6673 2.34929 25.2264 2.16667 24.7667 2.16667ZM2.23333 0.866667H8.3819C8.78763 0.866646 9.1805 1.00895 9.4921 1.2688L10.8866 2.43057C11.3541 2.81976 11.9431 3.03302 12.5514 3.03333H24.7667C24.9965 3.03333 25.217 3.12464 25.3795 3.28717C25.542 3.44971 25.6333 3.67015 25.6333 3.9V6.3076C25.371 6.15163 25.0718 6.06846 24.7667 6.06667H24.3333V5.63333C24.3333 5.17362 24.1507 4.73274 23.8257 4.40768C23.5006 4.08262 23.0597 3.9 22.6 3.9H4.4C3.94029 3.9 3.49941 4.08262 3.17435 4.40768C2.84929 4.73274 2.66667 5.17362 2.66667 5.63333V6.06667H2.23333C1.92816 6.06846 1.62898 6.15163 1.36667 6.3076V1.73333C1.36667 1.50348 1.45798 1.28304 1.62051 1.12051C1.78304 0.957976 2.00348 0.866667 2.23333 0.866667ZM23.4667 6.06667H3.53333V5.63333C3.53333 5.40348 3.62464 5.18304 3.78717 5.02051C3.94971 4.85798 4.17015 4.76667 4.4 4.76667H22.6C22.8299 4.76667 23.0503 4.85798 23.2128 5.02051C23.3754 5.18304 23.4667 5.40348 23.4667 5.63333V6.06667ZM16.5333 21.2333C16.5333 21.3483 16.4877 21.4585 16.4064 21.5397C16.3251 21.621 16.2149 21.6667 16.1 21.6667H14.8087C14.8953 19.539 15.5887 18.4509 15.5952 18.4388C15.6587 18.343 15.6816 18.2259 15.6588 18.1132C15.636 18.0005 15.5694 17.9015 15.4736 17.838C15.3778 17.7744 15.2607 17.7515 15.148 17.7743C15.0354 17.7971 14.9364 17.8637 14.8728 17.9595C14.8364 18.0141 14.0313 19.253 13.9424 21.6667H13.0576C12.9709 19.253 12.1636 18.0141 12.1272 17.9595C12.0636 17.8637 11.9646 17.7971 11.852 17.7743C11.7393 17.7515 11.6222 17.7744 11.5264 17.838C11.4306 17.9015 11.364 18.0005 11.3412 18.1132C11.3184 18.2259 11.3413 18.343 11.4048 18.4388C11.4122 18.45 12.1055 19.5381 12.1913 21.6667H10.9C10.7851 21.6667 10.6749 21.621 10.5936 21.5397C10.5123 21.4585 10.4667 21.3483 10.4667 21.2333C10.4688 20.865 10.3959 20.5001 10.2525 20.1609C10.1091 19.8216 9.89814 19.5151 9.6325 19.2599C9.0653 18.7247 8.6155 18.0775 8.31161 17.3592C8.00773 16.641 7.85638 15.8675 7.86718 15.0877C7.87798 14.3079 8.05068 13.5389 8.37433 12.8293C8.69799 12.1198 9.16553 11.4853 9.74733 10.9659C10.7743 10.0398 12.1093 9.52908 13.4922 9.53333C13.713 9.53332 13.9336 9.54576 14.153 9.5706C15.3728 9.71956 16.5112 10.2603 17.3974 11.1115C18.2836 11.9628 18.8696 13.0786 19.0675 14.2913C19.2126 15.1947 19.1337 16.1198 18.8379 16.9856C18.542 17.8514 18.0381 18.6313 17.3705 19.2569C17.1043 19.5124 16.8929 19.8194 16.7489 20.1591C16.605 20.4989 16.5317 20.8644 16.5333 21.2333ZM14.4754 25.1333H12.5254C12.378 25.1338 12.2335 25.0929 12.1081 25.0154C11.9827 24.9379 11.8815 24.8269 11.8161 24.6948L11.6011 24.2667H15.3989L15.1848 24.6948C15.1193 24.8269 15.0182 24.9379 14.8928 25.0154C14.7674 25.0929 14.6228 25.1338 14.4754 25.1333ZM16.1 23.4H10.9C10.7851 23.4 10.6749 23.3543 10.5936 23.2731C10.5123 23.1918 10.4667 23.0816 10.4667 22.9667C10.4667 22.8517 10.5123 22.7415 10.5936 22.6603C10.6749 22.579 10.7851 22.5333 10.9 22.5333H16.1C16.2149 22.5333 16.3251 22.579 16.4064 22.6603C16.4877 22.7415 16.5333 22.8517 16.5333 22.9667C16.5333 23.0816 16.4877 23.1918 16.4064 23.2731C16.3251 23.3543 16.2149 23.4 16.1 23.4ZM25.6333 21.6667C25.6333 21.8965 25.542 22.117 25.3795 22.2795C25.217 22.442 24.9965 22.5333 24.7667 22.5333H17.3203C17.2629 22.3732 17.1745 22.226 17.0603 22.1C17.2773 21.8634 17.3984 21.5544 17.4 21.2333C17.3981 20.983 17.4471 20.7348 17.5439 20.5039C17.6407 20.273 17.7834 20.0641 17.9633 19.89C18.9091 18.9961 19.5648 17.8389 19.8456 16.5682C20.1263 15.2975 20.0192 13.9718 19.538 12.7626C19.0568 11.5535 18.2238 10.5166 17.1467 9.78624C16.0696 9.05586 14.7981 8.6656 13.4967 8.66598C12.1954 8.66636 10.9241 9.05736 9.84743 9.78836C8.77078 10.5194 7.93834 11.5567 7.45787 12.7661C6.97739 13.9756 6.87101 15.3013 7.15249 16.5719C7.43397 17.8425 8.09035 18.9993 9.03667 19.8926C9.21643 20.0663 9.35906 20.2747 9.45589 20.5052C9.55272 20.7356 9.60175 20.9834 9.6 21.2333C9.60113 21.5542 9.72161 21.8631 9.938 22.1C9.82372 22.226 9.73537 22.3732 9.678 22.5333H2.23333C2.00348 22.5333 1.78304 22.442 1.62051 22.2795C1.45798 22.117 1.36667 21.8965 1.36667 21.6667V7.8C1.36667 7.57015 1.45798 7.34971 1.62051 7.18717C1.78304 7.02464 2.00348 6.93333 2.23333 6.93333H24.7667C24.9965 6.93333 25.217 7.02464 25.3795 7.18717C25.542 7.34971 25.6333 7.57015 25.6333 7.8V21.6667Z" fill="#7A7A7A"/>
<path d="M13.5 10.4C12.6054 10.4041 11.7297 10.658 10.9717 11.1332C10.2137 11.6083 9.60352 12.2858 9.20999 13.0893C9.18507 13.1404 9.17046 13.196 9.16701 13.2528C9.16356 13.3096 9.17133 13.3665 9.18988 13.4203C9.20843 13.4741 9.2374 13.5237 9.27512 13.5663C9.31285 13.6089 9.3586 13.6437 9.40976 13.6686C9.46884 13.6971 9.53356 13.7119 9.59913 13.712C9.68048 13.712 9.7602 13.6891 9.82917 13.646C9.89814 13.6029 9.95358 13.5412 9.98913 13.468C10.3111 12.8104 10.8104 12.2558 11.4308 11.8668C12.0511 11.4779 12.7678 11.27 13.5 11.2667C13.6149 11.2667 13.7251 11.221 13.8064 11.1397C13.8877 11.0585 13.9333 10.9483 13.9333 10.8333C13.9333 10.7184 13.8877 10.6082 13.8064 10.5269C13.7251 10.4456 13.6149 10.4 13.5 10.4Z" fill="#7A7A7A"/>
</g>
<defs>
<clipPath id="clip0_10_233">
<rect width="26" height="26" fill="white" transform="translate(0.5)"/>
</clipPath>
</defs>
</svg>
