<svg width="27" height="26" viewBox="0 0 27 26" fill="none" xmlns="http://www.w3.org/2000/svg">
<g clip-path="url(#clip0_10_205)">
<path d="M22.6789 25.3541L17.784 8.02902L21.19 8.86361C21.3624 8.90622 21.5485 8.85427 21.674 8.72523C21.7996 8.59681 21.8479 8.41151 21.8011 8.23809L19.6803 0.375578C19.6205 0.153969 19.4195 0 19.19 0H7.80991C7.58038 0 7.37939 0.153969 7.31962 0.375578L5.19879 8.23814C5.15202 8.41156 5.20031 8.59681 5.32589 8.72529C5.45143 8.85381 5.63546 8.90632 5.80994 8.86366L9.21599 8.02907L4.32109 25.3541C4.27777 25.5072 4.3088 25.6716 4.40477 25.7985C4.50075 25.9254 4.65066 25.9999 4.80975 25.9999H10.8619C11.1154 25.9999 11.3301 25.813 11.3649 25.5619L13.4999 10.1557L15.635 25.5619C15.6699 25.813 15.8845 25.9999 16.138 25.9999H22.1902C22.3493 25.9999 22.4992 25.9254 22.5952 25.7985C22.6912 25.6716 22.7221 25.5072 22.6789 25.3541ZM20.5966 7.67254L14.4743 6.17241L18.9343 1.50983L20.5966 7.67254ZM8.06559 1.50973L8.73809 2.21279C8.93202 2.41551 9.25337 2.42252 9.45609 2.22874C9.65875 2.03491 9.66591 1.71346 9.47203 1.51074L8.99845 1.01562H18.0016L13.5 5.72183L12.6311 4.81345C12.4372 4.61073 12.1159 4.60373 11.9131 4.79751C11.7105 4.99134 11.7033 5.31279 11.8972 5.5155L12.5256 6.17246L6.40332 7.67254L8.06559 1.50973ZM10.4196 24.9843H5.48093L10.3499 7.7512L12.8943 7.12771L10.4196 24.9843ZM16.5803 24.9843L14.1056 7.12771L16.6501 7.7512L21.519 24.9843H16.5803Z" fill="#7A7A7A"/>
<path d="M10.6849 3.00525H10.6845C10.4041 3.00525 10.1769 3.23265 10.1769 3.51306C10.2019 4.18581 11.1679 4.18586 11.1927 3.51306C11.1927 3.2326 10.9654 3.00525 10.6849 3.00525Z" fill="#7A7A7A"/>
</g>
<defs>
<clipPath id="clip0_10_205">
<rect width="26" height="26" fill="white" transform="translate(0.5)"/>
</clipPath>
</defs>
</svg>
