<svg id="Layer_1" enable-background="new 0 0 513.987 513.987" height="512" viewBox="0 0 513.987 513.987" width="512" xmlns="http://www.w3.org/2000/svg"><path d="m98.45 461.759c-23.335 12.011-41.41 24.58-55.257 38.426-6.933 6.934 3.822 17.389 10.606 10.607 12.731-12.731 29.582-24.407 51.515-35.695 8.346-4.295 1.865-17.821-6.864-13.338z"/><path d="m369.537 362.238c-8.569-3.83-15.078 9.691-6.12 13.695 25.312 11.311 29.77 18.999 29.78 30.972.007 8.216-7.749 17.569-15.96 27.472-12.35 14.895-26.349 31.775-20.041 52.801 2.783 9.276 17.182 5.073 14.367-4.311-3.998-13.327 6.309-25.756 17.221-38.915 9.55-11.518 19.425-23.426 19.414-37.059-.02-22.907-14.191-33.719-38.661-44.655z"/><path d="m333.79 345.038c-16.766-6.802-56.029-22.731-62.392-40.866-3.44-9.805 1.111-19.318 13.914-29.082 7.463-5.692-1.291-17.872-9.097-11.928-22.888 17.456-22.95 34.637-18.972 45.977 7.562 21.552 38.548 36.671 70.907 49.8 8.885 3.597 14.727-10.213 5.64-13.901z"/><path d="m25.028 77.941h53.042c13.8 0 25.028-11.228 25.028-25.028 0-12.207-8.784-22.401-20.363-24.593-2.027-15.403-15.24-27.332-31.187-27.332s-29.16 11.929-31.186 27.331c-11.578 2.193-20.362 12.386-20.362 24.593 0 13.801 11.228 25.029 25.028 25.029zm0-35.057c7.584 0 10.066-2.903 10.066-10.441 0-9.073 7.381-16.454 16.455-16.454s16.455 7.381 16.455 16.454c0 5.182 1.479 11.677 8.467 10.57 6.2-.997 11.627 3.846 11.627 9.899 0 5.529-4.499 10.028-10.028 10.028h-53.042c-5.529.001-10.028-4.498-10.028-10.028s4.499-10.028 10.028-10.028z"/><path d="m435.917 77.941h53.042c13.8 0 25.028-11.228 25.028-25.028 0-12.207-8.784-22.401-20.363-24.593-2.025-15.402-15.239-27.331-31.186-27.331s-29.16 11.929-31.186 27.331c-11.579 2.192-20.363 12.386-20.363 24.593 0 13.8 11.228 25.028 25.028 25.028zm0-35.057c7.584 0 10.066-2.903 10.066-10.441 0-9.073 7.381-16.454 16.455-16.454s16.455 7.381 16.455 16.454c0 5.179 1.479 11.681 8.467 10.57 6.19-.986 11.627 3.846 11.627 9.899 0 5.529-4.499 10.028-10.028 10.028h-53.042c-5.53 0-10.028-4.499-10.028-10.028s4.499-10.028 10.028-10.028z"/><path d="m151.987 387.488c-9.652 0-9.668 15 0 15 9.652 0 9.668-15 0-15z"/><path d="m51.482 437.056c-9.652 0-9.668 15 0 15 9.652 0 9.668-15 0-15z"/><path d="m481.987 464.488c-9.652 0-9.668 15 0 15 9.652 0 9.668-15 0-15z"/><path d="m9.232 378.559c-9.652 0-9.668 15 0 15 9.651 0 9.667-15 0-15z"/><path d="m506.742 378.559c-9.652 0-9.668 15 0 15 9.652 0 9.668-15 0-15z"/><path d="m386.987 300.488c9.652 0 9.668-15 0-15-9.652 0-9.668 15 0 15z"/><path d="m462.814 120.988c-14.464 0-26.896 16.438-38.006 50.254-6.255 19.039-10.597 39.71-12.328 54.042-16.52-.998-31.121 1.103-42.999 4.198v-7.333c24.673-3.64 43.672-24.949 43.672-50.618 0-12.511-4.925-40.441-13.166-65.525-11.11-33.816-23.542-50.255-38.006-50.255s-26.896 16.438-38.006 50.255c-8.241 25.084-13.166 53.015-13.166 65.525 0 25.669 18.999 46.978 43.672 50.618v12.181c-6.936 2.694-12.097 5.365-15.109 7.075-8.999-2.343-35.355-8.255-68.505-7.152 9.255-12.716 15.099-27.759 16.741-43.549 2.477-23.834-4.477-47.207-19.578-65.812-15.102-18.604-36.545-30.215-60.379-32.691-25.552-2.655-51.067 5.8-69.998 23.194-6.911 6.351 2.922 17.682 10.149 11.045 15.767-14.489 37.016-21.535 58.298-19.319 19.849 2.063 37.707 11.731 50.283 27.226 12.577 15.493 18.368 34.958 16.305 54.807-1.786 17.188-9.533 33.323-21.812 45.435-4.047 3.992-17.254 3.856-23.06 5.201-8.901-2.86-44.696-13.688-93.218-19.463-8.484-13.906-12.221-30.348-10.531-46.617.678-6.527 2.196-12.911 4.512-18.977 3.347-8.768-10.513-14.517-14.014-5.35-2.782 7.286-4.604 14.948-5.418 22.775-1.651 15.892 1.022 31.919 7.556 46.339-3.309-.282-6.664-.537-10.062-.761-10.896-32.113-23.064-47.743-37.165-47.743-14.249 0-26.524 15.964-37.507 48.764-8.04.81-16.005 1.849-23.707 3.123-9.619 1.591-7.023 16.362 2.447 14.799 5.396-.892 10.935-1.66 16.534-2.318-5.669 20.787-8.939 41.218-8.939 51.412 0 25.668 18.999 46.977 43.672 50.617v37.175c0 9.386 15 9.813 15 0v-37.175c24.673-3.64 43.672-24.949 43.672-50.617 0-10.397-3.404-31.445-9.284-52.658 37.238 2.899 69.24 9.589 89.719 14.755-11.215 4.239-21.548 9.307-30.215 14.913-22.827 14.765-34.892 33.336-34.892 53.706 0 26.734 25.634 36.694 47.052 44.09 22.989 7.937 36.948 13.91 36.948 29.91 0 18.893-32.098 32.276-69.263 47.772-4.099 1.709-8.269 3.448-12.482 5.229-6.194 2.62-5.504 11.126.193 13.631 5.248 2.308 13.268-3.016 18.062-5.016 42.117-17.561 78.491-32.728 78.491-61.617 0-26.734-25.634-36.694-47.052-44.09-22.989-7.937-36.948-13.91-36.948-29.91 0-33.493 41.959-51.118 68.597-59.012 33.366-9.889 69.177-10.553 103.298-4.289-10.676 9.058-23.414 23.078-22.466 37.847 1.496 23.31 32.659 30.767 50.154 37.49 36.748 14.121 87.077 33.461 96.112 63.908 10.054 33.879-33.647 55.449-25.521 89.483 2.917 12.216 12.138 22.391 27.405 30.243 8.281 4.258 15.629-8.83 6.86-13.34-11.201-5.76-17.821-12.619-19.676-20.387-3.987-16.698 10.996-31.002 18.243-44.265 7.676-14.047 11.734-30.276 7.068-46.002-11.137-37.532-65.453-58.403-105.112-73.644-10.115-3.886-39.664-10.586-40.564-24.441-.959-14.766 20.474-29.408 31.612-35.724 19.251-10.917 42.874-15.419 64.787-14.084 1.638 24.081 19.999 43.641 43.539 47.114v37.176c0 9.386 15 9.813 15 0v-37.168c7.43-1.092 14.521-3.805 20.828-8.003 7.812-5.202-.146-17.924-8.313-12.486-3.825 2.547-8.066 4.307-12.514 5.245v-35.781c0-9.386-15-9.813-15 0v35.785c-44.566-9.436-25.518-68.037-16.256-96.229 10.378-31.59 20.078-39.937 23.756-39.937 2.087 0 5.984 2.636 10.659 10.034 4.458 7.054 8.987 17.394 13.097 29.902 7.669 23.343 12.417 49.758 12.417 60.844 0 9.386 15 9.813 15 0 0-12.511-4.925-40.441-13.166-65.526-11.11-33.814-23.542-50.253-38.007-50.253zm-137.004 50.542c0-11.086 4.747-37.5 12.417-60.844 10.379-31.59 20.078-39.937 23.756-39.937 2.087 0 5.984 2.636 10.659 10.034 4.458 7.054 8.987 17.394 13.097 29.902 7.669 23.344 12.417 49.758 12.417 60.844 0 17.374-12.315 31.922-28.672 35.386v-35.785c0-4.143-3.358-7.5-7.5-7.5s-7.5 3.357-7.5 7.5v35.785c-16.36-3.462-28.674-18.011-28.674-35.385zm-248.833 149.628v-35.785c0-9.386-15-9.813-15 0v35.785c-16.358-3.463-28.672-18.011-28.672-35.385 0-11.086 4.747-37.501 12.417-60.844 10.378-31.59 20.078-39.937 23.756-39.937 13.291 0 22.595 35.955 25.354 44.979 5.388 17.62 10.818 37.205 10.818 55.801-.001 17.375-12.315 31.922-28.673 35.386z"/></svg>