<svg width="26" height="26" viewBox="0 0 26 26" fill="none" xmlns="http://www.w3.org/2000/svg">
<path d="M24.2771 14.8547C24.1557 14.0019 23.3627 13.4923 22.5316 13.5694V10.4572C22.5307 9.87481 22.2881 9.32015 21.8625 8.92321L20.7315 7.87715C21.1449 5.90981 18.1419 5.53975 18.0596 7.55041C18.0423 8.45868 18.9956 9.14768 19.8484 8.83221L20.9742 9.87655C21.1354 10.0265 21.2273 10.2371 21.2273 10.4572V13.5512C20.644 13.5443 19.9524 13.5373 19.1733 13.5304C19.4029 10.6973 17.3845 8.11548 14.6519 7.47501C17.6635 5.18788 15.9614 0.17768 12.1359 0.221013C11.4001 0.260013 9.71621 0.39608 10.0767 1.48375C10.231 1.80788 10.6193 1.94481 10.9434 1.79055C12.9315 0.776546 15.3747 2.68928 14.8469 4.86808C14.5297 6.36655 13.0581 7.32421 11.5596 7.00788C10.0507 6.68981 9.09048 5.19655 9.42588 3.69201C9.49261 3.33928 9.26034 2.99955 8.90761 2.93281C8.13108 2.80628 8.05481 3.73015 8.06088 4.29175C8.06088 5.58741 8.67794 6.72881 9.62174 7.47501C6.88048 8.11548 4.86374 10.7077 5.09774 13.5469C2.91201 13.533 1.55481 13.3666 1.66314 15.8886C1.66228 18.0457 1.55481 19.2677 4.23194 19.0918C4.71034 23.1573 5.12461 25.1801 5.14368 25.2677C5.31701 26.1023 6.58494 25.8327 6.41594 25.0016C6.40901 24.9808 6.00688 23.0013 5.54234 19.1065C9.11821 19.1516 16.8853 19.1533 20.4611 19.1057C19.9957 23.0039 19.5875 24.9834 19.5867 25.0068C19.4185 25.8379 20.6813 26.0997 20.8589 25.272C20.878 25.1819 21.2923 23.1565 21.7707 19.0892C22.8852 19.1403 24.0699 19.0563 24.2753 17.7892C24.3377 16.9061 24.3863 15.6979 24.2771 14.8547ZM6.39861 13.0745C6.47748 6.59795 18.4045 6.93595 17.8733 13.5217C14.5739 13.4966 9.40681 13.5044 6.39861 13.5347V13.0745ZM22.9918 17.6202C22.9684 17.7684 22.7561 17.7771 22.7318 17.7771C22.3999 17.7771 21.8591 17.8048 21.2498 17.7918C16.835 17.8759 7.68214 17.8499 3.27341 17.7771C3.24568 17.7771 3.03334 17.7684 3.01341 17.6193C2.98828 17.4408 2.96054 16.3627 2.96054 15.8938C2.99174 15.5887 2.85134 14.8772 3.27341 14.8781C6.74788 14.8035 17.9322 14.781 22.7318 14.8781C22.7595 14.8781 22.9719 14.8867 22.9918 15.0341C23.101 15.7092 23.0178 17.1184 22.9918 17.6202Z" fill="#20525C"/>
</svg>
