<svg id="Layer_1" enable-background="new 0 0 512 512" height="512" viewBox="0 0 512 512" width="512" xmlns="http://www.w3.org/2000/svg"><g id="XMLID_1_"><g id="XMLID_2534_"><g id="XMLID_1135_"><path id="XMLID_2051_" d="m365.6 437.2c-9.1 0-16.5-7.2-16.5-16.2h10c0 3 2.9 6.2 6.5 6.2s6.2-3.1 6.2-6.7-2.8-6.7-6.8-6.7v-10c10 0 16.8 7.6 16.8 16.7s-7.1 16.7-16.2 16.7z" fill="#0d0d0d"/></g><g id="XMLID_1406_"><path id="XMLID_2048_" d="m42.6 255.9c-9.1 0-16.5-7.4-16.5-16.5s7.4-16.5 16.5-16.5 16.5 7.4 16.5 16.5-7.4 16.5-16.5 16.5zm0-23c-3.6 0-6.5 2.9-6.5 6.5s2.9 6.5 6.5 6.5 6.5-2.9 6.5-6.5-3-6.5-6.5-6.5z" fill="#0d0d0d"/></g><g id="XMLID_1453_"><g id="XMLID_1777_"><path id="XMLID_1648_" d="m88.7 335.6c-7.5-13-21.5-21.1-36.6-21.1v-10c18.6 0 35.9 10 45.2 26.1z" fill="#0d0d0d"/></g><g id="XMLID_1088_"><path id="XMLID_1647_" d="m293.4 362h-288.5c-2.8 0-5-2.3-5-5.1 0-14 5.4-27.2 15.3-37 9.9-9.9 23-15.3 36.9-15.3 7.3 0 14.4 1.5 21 4.4 7.1-19.1 22.1-34.6 41.1-42.2l3.7 9.3c-18 7.2-31.9 22.7-37 41.4-.4 1.5-1.5 2.7-2.9 3.3s-3.1.5-4.4-.3c-6.4-3.8-13.8-5.8-21.4-5.8-11.3 0-21.9 4.5-29.9 12.5-6.8 6.8-11 15-12.1 25h278c-1.2-14-7.2-27.2-17.2-37.2-11.3-11.3-26.2-17.5-42.1-17.5-9.6 0-19.1 2.3-27.5 6.7-2.3 1.2-5.2.4-6.6-1.9-7-11.7-17.8-21-30.5-26l3.7-9.3c13.3 5.3 24.8 14.6 32.9 26.3 8.8-3.8 18.3-5.9 28-5.9 18.5 0 36 7.3 49.2 20.4 13.1 13.1 20.4 30.7 20.4 49.3-.1 2.6-2.3 4.9-5.1 4.9z" fill="#0d0d0d"/></g><g id="XMLID_1090_"><path id="XMLID_1646_" d="m213.6 334h-10c0-11.3-3-22.3-8.8-32l8.6-5.1c6.6 11.2 10.2 24 10.2 37.1z" fill="#0d0d0d"/></g></g><g id="XMLID_1443_"><g id="XMLID_1473_"><path id="XMLID_1645_" d="m250 194h10v33h-10z" fill="#0d0d0d"/></g><g id="XMLID_1447_"><path id="XMLID_1644_" d="m238 206h33v10h-33z" fill="#0d0d0d"/></g></g><g id="XMLID_1860_"><g id="XMLID_1862_"><path id="XMLID_1643_" d="m160 75h10v33h-10z" fill="#0d0d0d"/></g><g id="XMLID_1861_"><path id="XMLID_1642_" d="m148 87h33v10h-33z" fill="#0d0d0d"/></g></g><g id="XMLID_1476_"><g id="XMLID_1483_"><path id="XMLID_1641_" d="m491 280h10v33h-10z" fill="#0d0d0d"/></g><g id="XMLID_1477_"><path id="XMLID_1640_" d="m479 292h33v10h-33z" fill="#0d0d0d"/></g></g><g id="XMLID_2028_"><path id="XMLID_3544_" d="m462.1 86.9h10v10h-10z" fill="#0d0d0d"/></g><g id="XMLID_2033_"><path id="XMLID_3542_" d="m143.1 181.9h10v10h-10z" fill="#0d0d0d"/></g><g id="XMLID_1356_"><path id="XMLID_3540_" d="m365.9 302.9h10v10h-10z" fill="#0d0d0d"/></g><g id="XMLID_1375_"><path id="XMLID_3538_" d="m118.1 415.4h10v10h-10z" fill="#0d0d0d"/></g><g id="XMLID_1091_"><path id="XMLID_3536_" d="m136.1 261.6h10v10h-10z" fill="#0d0d0d"/></g><g id="XMLID_1089_"><path id="XMLID_1425_" d="m507.1 200h-82.1v-10h76.8c-1.1-9-5.3-18-12.1-24.7-7.9-7.8-18.5-12.2-29.9-12.2-10.4 0-20.4 3.8-28.1 10.7-1.1 1-2.6 1.4-4.1 1.2s-2.8-1.1-3.5-2.3c-2.6-4.3-5.7-8.2-9.1-11.6-11.9-11.9-27.5-18.3-44.1-18.3-32.7 0-59.7 25.3-62.2 57.3h96.3v10h-101.6c-2.8 0-5-2.3-5-5.1 0-39.8 32.5-72.2 72.4-72.2 19.3 0 37.5 7.6 51.2 21.3 2.7 2.7 5.2 5.6 7.4 8.7 8.8-6.3 19.3-9.7 30.3-9.7 14.1 0 27.2 5.4 36.9 15.1 9.9 9.9 15.3 23 15.3 36.8.2 2.7-2.1 5-4.8 5z" fill="#0d0d0d"/></g></g></g></svg>