<svg id="Layer_1" enable-background="new 0 0 468 468" height="512" viewBox="0 0 468 468" width="512" xmlns="http://www.w3.org/2000/svg"><g><g><g><path d="m217.449 228.04c-18.23 0-33.063-14.806-33.063-33.006s14.832-33.006 33.063-33.006 33.063 14.806 33.063 33.006-14.832 33.006-33.063 33.006zm0-54.01c-11.614 0-21.063 9.422-21.063 21.004s9.448 21.004 21.063 21.004 21.063-9.422 21.063-21.004-9.449-21.004-21.063-21.004z"/></g><path d="m438.708 317.963c-21.323-21.14-61.403-11.899-92.395 6.475-2.651-7.572-5.867-14.786-9.609-21.404-12.757-22.562-29.54-34.987-47.256-34.987-10.498 0-20.667 4.364-29.867 12.613-5.311-7.962-9.606-17.209-12.798-27.599 11.741-5.939 21.451-15.319 27.781-26.809 11.782 6.229 23.495 10.407 35.021 12.512 3.473 2.452 6.707 5.106 9.604 7.923 4.527 4.401 8.629 9.521 12.19 15.216 3.971 6.35 14.341.302 10.174-6.364-3.49-5.58-7.451-10.687-11.795-15.227 47.571-1.54 84.853-39.456 86.448-41.102 2.255-2.328 2.255-6.024 0-8.352-1.595-1.646-38.876-39.563-86.448-41.102 32.469-33.891 31.254-86.31 31.184-88.573-.098-3.173-2.649-5.721-5.822-5.814-2.337-.067-56.495-1.259-91.264 30.617-1.51-46.478-40.657-82.857-42.355-84.412-2.293-2.099-5.811-2.1-8.104 0-1.698 1.555-40.846 37.934-42.356 84.412-34.77-31.877-88.927-30.682-91.263-30.617-3.173.092-5.725 2.641-5.822 5.814-.07 2.263-1.286 54.682 31.183 88.573-47.572 1.54-84.853 39.456-86.447 41.102-2.255 2.328-2.255 6.024 0 8.352 1.595 1.646 38.876 39.562 86.448 41.102-32.469 33.89-31.253 86.31-31.183 88.573.098 3.173 2.649 5.721 5.822 5.814.206.006.814.021 1.78.021 9.965 0 57.792-1.579 89.49-30.646.589 18.296 7.036 37.156 19.216 56.108 4.044 6.293 14.346.128 10.095-6.489-11.524-17.933-17.368-35.551-17.368-52.364 0-14.451 4.357-29.551 12.935-44.947 12.688 4.447 26.756 4.836 39.67 1.09 3.768 11.988 8.896 22.667 15.316 31.81.029.182.056.382.083.57-18.551 23.361-26.992 55.26-26.992 84.73 0 38.211 22.327 81.92 65.443 81.921 5.838 0 11.788-.933 17.604-2.813 31.391 27.32 75.627 11.62 101.981-14.444 25.049-24.832 41.878-60.17 41.877-87.934.001-13.904-4.218-25.436-12.201-33.349zm-35.598-122.923c-11.062 9.782-41.322 33.324-76.321 33.324-15.264 0-31.2-4.429-47.433-13.147 3.941-12.013 4.262-25.074.931-37.265 12.875-3.695 24.208-8.798 33.904-15.243 4.253-.656 8.486-1.005 12.598-1.005 34.909 0 65.24 23.56 76.321 33.336zm-132.772-98.675c24.812-24.12 63.715-28.214 78.48-28.881-.711 14.436-4.979 51.935-29.629 75.897-10.79 10.489-25.291 18.309-43.137 23.299-6.24-12.795-16.569-23.242-29.274-29.666 5.138-16.762 13.044-30.427 23.56-40.649zm-52.883-81.845c9.896 10.518 34.451 40.063 34.451 74.22 0 3.936-.35 7.985-1.008 12.052-6.42 9.131-11.537 19.775-15.314 31.814-11.803-3.421-24.466-3.421-36.269 0-3.773-12.032-8.899-22.655-15.311-31.785-.661-4.075-1.013-8.134-1.013-12.081 0-34.072 24.576-63.686 34.464-74.22zm-131.376 52.964c14.774.668 53.674 4.764 78.481 28.881 10.516 10.223 18.417 23.892 23.552 40.653-11.737 5.937-21.438 15.317-27.769 26.796-11.791-6.234-23.513-10.424-35.048-12.523-3.469-2.451-6.698-5.101-9.588-7.911-24.648-23.961-28.916-61.464-29.628-75.896zm-54.292 127.544c11.062-9.782 41.322-33.324 76.322-33.324 15.261 0 31.194 4.427 47.423 13.143-3.94 11.999-4.262 25.098-.93 37.277-12.87 3.694-24.2 8.794-33.893 15.236-4.252.656-8.486 1.005-12.6 1.005-34.91-.001-65.241-23.561-76.322-33.337zm140.88 89.395c-2.51 3.353-5.224 6.479-8.106 9.281-24.812 24.12-63.715 28.214-78.48 28.881.711-14.436 4.979-51.935 29.628-75.897 10.792-10.492 25.296-18.313 43.147-23.302 5.723 11.723 14.872 21.488 26.144 27.982-6.1 11.115-10.217 22.169-12.333 33.055zm44.782-36.38c-29.3 0-53.137-23.78-53.137-53.009s23.837-53.009 53.137-53.009c29.299 0 53.136 23.78 53.136 53.009s-23.837 53.009-53.136 53.009zm137.414 128.569c.019-.687.029-1.364.029-2.03 0-.054-.003-.109-.003-.163 18.401-23.129 44.907-39.827 73.596-46.725-14.89 44.796-46.764 82.682-89.908 102.6 9.317-12.871 15.615-30.631 16.286-53.682zm67.906-55.197c-2.463.799-4.906 1.659-7.344 2.529-22.482 8.325-42.936 20.21-61.321 35.597-.803-7.851-2.216-15.671-4.191-23.265 27.212-16.953 56.016-22.554 72.856-14.861zm-186.764 53.167c0-30.7 10.761-76.77 41.341-91.581-26.275 49.737-25.973 110.535.792 160.011-29.614-7.799-42.133-40.495-42.133-68.43zm53.78-89.364c29.128 45.958 28.823 108.101-.015 154.087-26.39-47.226-26.386-106.865.015-154.087zm10.812-2.66c9.267 4.136 18.24 13.257 25.662 26.383 10.571 18.695 16.634 42.62 16.634 65.64 0 .556-.009 1.121-.024 1.688-1.173 40.309-21.511 61.729-42.937 66.945 24.549-50.612 25.181-109.887.665-160.656zm99.994 148.158c-19.81 19.619-51.702 34.115-78.326 19.092 53.879-15.614 100.156-59.531 113.781-114.611 1.902 4.543 2.865 9.927 2.865 16.115 0 24.771-15.402 56.683-38.32 79.404z"/></g><path d="m62.116 23.597h-10.037v-10.002c0-3.314-2.687-6.001-6-6.001s-6 2.687-6 6.001v10.002h-10.037c-3.313 0-6 2.687-6 6.001s2.687 6.001 6 6.001h10.037v10.001c0 3.314 2.687 6.001 6 6.001s6-2.687 6-6.001v-10.001h10.037c3.313 0 6-2.687 6-6.001s-2.686-6.001-6-6.001z"/><g><path d="m114.236 442.035c-13.81 0-25.044-11.381-25.044-25.37s11.234-25.371 25.044-25.371 25.044 11.381 25.044 25.371c0 13.989-11.234 25.37-25.044 25.37zm0-38.739c-7.192 0-13.044 5.997-13.044 13.369 0 7.371 5.852 13.368 13.044 13.368s13.044-5.997 13.044-13.368-5.851-13.369-13.044-13.369z"/></g><g><path d="m425.956 140.413c-13.81 0-25.044-11.217-25.044-25.004s11.234-25.004 25.044-25.004 25.044 11.216 25.044 25.003-11.234 25.005-25.044 25.005zm0-38.007c-7.192 0-13.044 5.833-13.044 13.002s5.852 13.002 13.044 13.002 13.044-5.832 13.044-13.002-5.852-13.002-13.044-13.002z"/></g><g><circle cx="347.958" cy="281.049" r="7"/></g></g></svg>