<svg id="Layer_1" enable-background="new 0 0 480.075 480.075" height="512" viewBox="0 0 480.075 480.075" width="512" xmlns="http://www.w3.org/2000/svg"><g><path d="m10.446 390.858c13.785-4.422 27.243-10.116 40-16.923 96.693-51.597 215.501-306.389 318.477-293.204 45.833 5.869 77.454 65.172 95.801 107.816 1.746 4.059 6.449 5.933 10.511 4.187 4.059-1.746 5.933-6.452 4.187-10.51-31.703-73.687-67.182-112.076-108.467-117.363-116.454-14.92-233.036 244.261-328.041 294.957-11.913 6.357-24.481 11.674-37.356 15.804-4.207 1.35-6.523 5.854-5.174 10.062 1.355 4.222 5.871 6.519 10.062 5.174z"/><path d="m112.163 464.001h-104.161c-4.418 0-8 3.582-8 8s3.582 8 8 8h104.161c4.418 0 8-3.582 8-8s-3.581-8-8-8z"/><path d="m472.073 464.001h-62.704l-25.826-61.434c-6.276-14.931-20.787-24.589-36.976-24.606h-33.948c-15.517 0-29.251 8.622-36.03 22.338l-12.427 25.137c-1.958 3.961-.334 8.759 3.627 10.717 3.96 1.958 8.759.335 10.717-3.626l12.427-25.137c4.058-8.212 12.294-13.428 21.679-13.428h33.947c9.73.01 18.458 5.822 22.234 14.807l23.219 55.233h-216.378l48.31-102.175c3.971-8.398 12.539-13.825 21.829-13.825h10.142c15.5 0 29.769-9.069 36.35-23.104 3.958-8.441 12.54-13.896 21.863-13.896h33.412c2.857.012 5.551-1.522 6.986-4.034.441-.771-.314 1.045 10.925-27.631 3.651-9.316 12.476-15.336 22.481-15.336h84.071c4.418 0 8-3.582 8-8s-3.582-8-8-8h-84.071c-16.636 0-31.308 10.008-37.378 25.498l-8.427 21.502h-27.999c-15.502 0-29.77 9.069-36.35 23.104-3.959 8.442-12.54 13.896-21.863 13.896h-10.142c-15.446 0-29.692 9.023-36.294 22.986-57.58 121.784-53.734 113.611-53.95 114.178-1.513 3.981.375 8.328 4.054 10.068 2.519 1.191-17.96.768 312.49.768 4.418 0 8-3.582 8-8s-3.583-8-8-8z"/><path d="m307.615 144.825c-.601.496-1.201.996-1.801 1.501-3.382 2.844-3.816 7.891-.973 11.272 2.838 3.375 7.885 3.821 11.271.972.563-.473 1.124-.941 1.686-1.404 3.408-2.812 3.891-7.854 1.078-11.262-2.81-3.408-7.853-3.892-11.261-1.079z"/><path d="m274.568 176.669c-10.873 11.797-22.55 25.565-36.75 43.329-2.759 3.451-2.197 8.485 1.254 11.244 3.474 2.777 8.503 2.175 11.244-1.254 13.96-17.464 25.404-30.961 36.018-42.476 2.994-3.249 2.788-8.31-.461-11.304-3.25-2.994-8.311-2.787-11.305.461z"/><path d="m472.002 375.001h-21.97c-9.903 0-18.956-6.207-22.524-15.445l-15.016-38.875c-2.988-7.733-8.207-14.261-15.093-18.878-3.672-2.462-8.641-1.479-11.1 2.189-2.461 3.67-1.48 8.639 2.189 11.1 4.142 2.777 7.28 6.703 9.077 11.354l15.016 38.875c5.935 15.36 20.984 25.68 37.45 25.68h21.97c4.418 0 8-3.582 8-8s-3.581-8-7.999-8z"/><path d="m24.362 100.118c3.466-2.74 4.055-7.771 1.315-11.237-6.329-8.006-9.675-17.647-9.675-27.88 0-24.813 20.187-45 45-45s45 20.187 45 45-20.187 45-45 45c-4.418 0-8 3.582-8 8s3.582 8 8 8c33.636 0 61-27.364 61-61s-27.364-61-61-61-61 27.364-61 61c0 13.871 4.538 26.943 13.123 37.803 2.74 3.466 7.771 4.054 11.237 1.314z"/><path d="m148.002 69.001h17c4.418 0 8-3.582 8-8s-3.582-8-8-8h-17c-4.418 0-8 3.582-8 8s3.582 8 8 8z"/><path d="m53.002 148.001v17c0 4.418 3.582 8 8 8s8-3.582 8-8v-17c0-4.418-3.582-8-8-8s-8 3.581-8 8z"/><path d="m116.864 128.176 12.021 12.021c1.562 1.562 3.609 2.343 5.657 2.343 7.062 0 10.712-8.602 5.657-13.657l-12.021-12.021c-3.124-3.124-8.189-3.124-11.313 0-3.126 3.124-3.126 8.19-.001 11.314z"/></g></svg>