<svg id="Layer_1" height="512" viewBox="0 0 64 64" width="512" xmlns="http://www.w3.org/2000/svg"><circle cx="24" cy="28" r="1"/><path d="m12 51c-1.654 0-3 1.346-3 3s1.346 3 3 3 3-1.346 3-3-1.346-3-3-3zm0 4c-.551 0-1-.449-1-1s.449-1 1-1 1 .449 1 1-.449 1-1 1z"/><path d="m37 51c-1.654 0-3 1.346-3 3s1.346 3 3 3 3-1.346 3-3-1.346-3-3-3zm0 4c-.551 0-1-.449-1-1s.449-1 1-1 1 .449 1 1-.449 1-1 1z"/><path d="m49 51c-1.654 0-3 1.346-3 3s1.346 3 3 3 3-1.346 3-3-1.346-3-3-3zm0 4c-.551 0-1-.449-1-1s.449-1 1-1 1 .449 1 1-.449 1-1 1z"/><path d="m63 47h-5.547c-.635-.77-1.354-1.441-2.147-2h1.693c.155 0 .309-.036.447-.105.268-.134 6.553-3.397 6.553-13.895 0-8.817-4.422-12.519-6-13.562v-3.438c0-.552-.448-1-1-1h-9c-.552 0-1 .448-1 1v3h-13v-3c0-.552-.448-1-1-1h-9c-.552 0-1 .448-1 1v3.438c-.975.644-3.025 2.306-4.461 5.562h-11.538c-1.596 0-3.103.621-4.251 1.757-1.114 1.127-1.734 2.611-1.749 4.185l-1 9.005v18.053c0 .552.448 1 1 1h4.701c1.139 2.413 3.575 4 6.299 4s5.168-1.591 6.301-4h12.4c1.139 2.413 3.575 4 6.299 4 2.548 0 4.775-1.373 6-3.413 1.225 2.04 3.452 3.413 6 3.413 2.728 0 5.168-1.591 6.301-4h7.699c.552 0 1-.448 1-1v-8c0-.552-.448-1-1-1zm-60.105-17h10.105v3.764l-1.618 3.236h-9.265zm-.895 9h3v2.18l-3 .6zm14.706 16.671c-.692 1.991-2.583 3.329-4.706 3.329s-4.013-1.337-4.71-3.343c-.192-.526-.29-1.083-.29-1.657 0-2.757 2.243-5 5-5s5 2.243 5 5c0 .574-.097 1.131-.294 1.671zm.294-7.671v1.11c-1.272-1.3-3.042-2.11-5-2.11-3.86 0-7 3.14-7 7 0 .339.038.671.086 1h-3.086v-11.18l4.196-.839c.467-.093.804-.504.804-.98v-3h5c.379 0 .725-.214.894-.553l2.105-4.211v-5.236c0-.552-.448-1-1-1h-10.858c.176-.683.515-1.317 1.022-1.829.764-.755 1.771-1.171 2.837-1.171h10v23zm32-33h7v2h-7zm-24 0h7v2h-7zm-2 4.982v4.018c0 .552.448 1 1 1s1-.448 1-1v-5h31v14c0 .552.448 1 1 1s1-.448 1-1v-13.017c1.617 1.519 4 4.808 4 11.017s-2.384 9.501-4 11.018v-4.018c0-.552-.448-1-1-1s-1 .448-1 1v5h-31v-11c0-.552-.448-1-1-1s-1 .448-1 1v10.017c-1.617-1.519-4-4.808-4-11.017s2.384-9.501 4-11.018zm-4 19.986c1.865 3.535 4.385 4.842 4.553 4.926.139.069.292.105.447.105h6.693c-.792.559-1.512 1.23-2.146 2h-9.547zm7.05 15.031h-7.136c.048-.33.086-.662.086-1v-5h8.208c-.792 1.538-1.208 3.236-1.208 5 0 .334.02.668.05 1zm10.95 4c-2.122 0-4.013-1.337-4.71-3.343-.192-.526-.29-1.083-.29-1.657 0-2.757 2.243-5 5-5s5 2.243 5 5-2.243 5-5 5zm16.706-3.329c-.692 1.991-2.583 3.329-4.706 3.329-2.757 0-5-2.243-5-5s2.243-5 5-5 5 2.243 5 5c0 .574-.097 1.131-.294 1.671zm4.235-.671h-2.027c.048-.33.086-.662.086-1 0-3.86-3.14-7-7-7-2.548 0-4.775 1.373-6 3.413-1.225-2.04-3.452-3.413-6-3.413-3.86 0-7 3.14-7 7 0 .339.038.671.086 1h-2.027c-.037-.331-.059-.665-.059-1 0-1.963.625-3.83 1.81-5.4 1.713-2.288 4.334-3.6 7.19-3.6 1.951 0 3.818.626 5.401 1.811.355.266.843.266 1.198 0 1.583-1.185 3.45-1.811 5.401-1.811 2.856 0 5.477 1.312 7.192 3.602 1.183 1.568 1.808 3.435 1.808 5.398 0 .335-.023.669-.059 1zm4.059 0h-2.05c.03-.332.05-.666.05-1 0-1.764-.416-3.463-1.208-5h3.208z"/><path d="m35.448 38.91c1.526 1.348 3.498 2.09 5.552 2.09 4.336 0 8-3.333 8-7.28 0-1.458-.456-2.863-1.315-4.06l-5.87-8.24c-.375-.527-1.254-.527-1.629 0l-5.868 8.237c-.862 1.2-1.318 2.605-1.318 4.063 0 1.951.869 3.794 2.448 5.189zm.497-8.089 5.056-7.097 5.058 7.1c.616.858.942 1.859.942 2.896 0 2.862-2.748 5.28-6 5.28-1.566 0-3.068-.564-4.228-1.589-1.143-1.01-1.772-2.32-1.772-3.69 0-1.037.326-2.039.944-2.9z"/><path d="m41 37c2.206 0 4-1.794 4-4 0-.552-.448-1-1-1s-1 .448-1 1c0 1.103-.897 2-2 2-.552 0-1 .448-1 1s.448 1 1 1z"/></svg>