<?xml version="1.0" encoding="iso-8859-1"?>
<!-- Generator: Adobe Illustrator 19.0.0, SVG Export Plug-In . SVG Version: 6.00 Build 0)  -->
<svg version="1.1" id="Capa_1" xmlns="http://www.w3.org/2000/svg" xmlns:xlink="http://www.w3.org/1999/xlink" x="0px" y="0px"
	 viewBox="0 0 512 512" style="enable-background:new 0 0 512 512;" xml:space="preserve">
<g>
	<g>
		<path d="M89.343,417.591c-1.43-5.329-6.909-8.498-12.247-7.068c-5.329,1.43-8.498,6.909-7.068,12.247
			c1.43,5.329,6.909,8.498,12.247,7.069C87.603,428.409,90.773,422.92,89.343,417.591z"/>
	</g>
</g>
<g>
	<g>
		<path d="M509.597,409.911c-7.43-20.548-30.088-31.338-50.69-24.236l-82.836,21.092c3.891-16.469-3.081-34.618-18.954-43.777
			l-141.504-81.705c-11.572-6.675-25.046-8.445-37.936-4.986l-82.266,22.042c-7.375-8.198-18.908-11.867-30.052-8.884L7.413,304.985
			c-5.332,1.429-8.499,6.913-7.07,12.246l41.411,154.517c1.428,5.328,6.907,8.5,12.245,7.068l57.936-15.527
			c11.252-3.012,19.516-12.318,21.671-23.308l14.059-3.501c7.573-1.884,15.473-0.769,22.265,3.149l105.034,60.243
			c20.585,11.883,44.432,15.047,67.103,9.301c0.243-0.062,0.484-0.132,0.722-0.212l142.53-47.79c0.07-0.023,0.139-0.048,0.208-0.073
			C506.269,453.631,517.069,430.675,509.597,409.911z M106.761,443.976l-48.282,12.939L22.245,321.713l19.317-5.176l18.118,67.6
			c1.426,5.318,6.898,8.502,12.245,7.068c5.333-1.43,8.498-6.912,7.069-12.245l-18.117-67.599l9.656-2.587
			c5.377-1.442,10.811,1.763,12.252,7.065l31.05,115.91C115.262,437.011,112.068,442.555,106.761,443.976z M478.846,442.255
			l-142.047,47.628c-17.662,4.382-36.059,1.787-51.864-7.337L179.899,422.3c-11.279-6.506-24.441-8.36-37.065-5.22l-11.465,2.855
			l-27.625-103.121l79.111-21.199c7.735-2.077,15.823-1.013,22.763,2.991l141.502,81.704c9.465,5.461,12.905,17.638,7.313,27.317
			c-5.479,9.501-17.675,12.88-27.311,7.313l-86.582-49.989c-4.78-2.759-10.896-1.123-13.657,3.659s-1.123,10.897,3.659,13.657
			l86.58,49.988c12.159,7.025,27.264,7.341,40.004-0.029c113.755-28.983,107.199-27.254,108.054-27.561
			c10.373-3.724,21.864,1.68,25.608,12.031C494.511,427.043,489.155,438.485,478.846,442.255z"/>
	</g>
</g>
<g>
	<g>
		<path d="M493.553,135.056L410.427,4.664c-1.836-2.88-5.015-4.624-8.43-4.624s-6.595,1.744-8.43,4.624L310.44,135.057
			c-48.784,73.176,5.376,173.917,91.557,173.917C487.972,308.974,542.47,208.435,493.553,135.056z M401.996,288.978
			c-69.592,0-115.184-82.561-74.869-142.905c0.04-0.06,0.079-0.119,0.117-0.18l74.752-117.258l74.752,117.258
			c0.038,0.061,0.078,0.12,0.117,0.18C517.037,206.201,472,288.978,401.996,288.978z"/>
	</g>
</g>
<g>
	<g>
		<path d="M460.251,157.194c-3.065-4.592-9.272-5.83-13.866-2.763c-4.592,3.065-5.83,9.274-2.763,13.866
			c5.472,8.196,8.364,17.775,8.364,27.701c0,28.228-23.359,52.989-49.989,52.989c-5.522,0-9.998,4.476-9.998,9.998
			c0,5.522,4.476,9.998,9.998,9.998c37.936,0,69.985-33.423,69.985-72.984C471.981,182.106,467.925,168.688,460.251,157.194z"/>
	</g>
</g>
<g>
</g>
<g>
</g>
<g>
</g>
<g>
</g>
<g>
</g>
<g>
</g>
<g>
</g>
<g>
</g>
<g>
</g>
<g>
</g>
<g>
</g>
<g>
</g>
<g>
</g>
<g>
</g>
<g>
</g>
</svg>
