<?xml version="1.0" encoding="iso-8859-1"?>
<!-- Generator: Adobe Illustrator 19.0.0, SVG Export Plug-In . SVG Version: 6.00 Build 0)  -->
<svg version="1.1" id="Capa_1" xmlns="http://www.w3.org/2000/svg" xmlns:xlink="http://www.w3.org/1999/xlink" x="0px" y="0px"
	 viewBox="0 0 512.001 512.001" style="enable-background:new 0 0 512.001 512.001;" xml:space="preserve">
<g>
	<g>
		<path d="M82.689,130.72H38.441c-11.581,0-21.002,9.422-21.002,21.002V285.44c0,11.58,9.422,21.002,21.002,21.002h44.248
			c11.581,0,21.002-9.422,21.002-21.002V151.722C103.692,140.142,94.27,130.72,82.689,130.72z M88.287,285.44
			c0,3.087-2.511,5.598-5.598,5.598H38.441c-3.087,0-5.598-2.511-5.598-5.598V151.722c0-3.087,2.511-5.598,5.598-5.598h44.248
			c3.087,0,5.598,2.511,5.598,5.598V285.44z"/>
	</g>
</g>
<g>
	<g>
		<path d="M494.438,343.016l-1.986-15.769c-0.523-4.153-2.633-7.855-5.94-10.422c-3.308-2.566-7.417-3.694-11.569-3.169
			l-0.918,0.116l-11.073-68.89c-6.468-40.25-40.752-69.464-81.519-69.464h-58.515c-7.247,0-14.625-1.681-21.315-4.852l-0.078-0.037
			c-0.023-0.01-0.045-0.021-0.068-0.032c-4.977-2.337-8.193-7.332-8.193-12.725v-16.138h9.476c8.203,0,14.876-6.674,14.876-14.877
			v-13.274c0-8.203-6.674-14.877-14.876-14.877h-24.856V77.071h3.96c7.02,0,12.732-5.711,12.732-12.732v-0.461l53.523,5.807
			c1.125,0.122,2.249,0.183,3.371,0.183c7.682,0,15.165-2.833,20.935-8.011c6.614-5.934,10.407-14.434,10.407-23.321
			c0-8.886-3.793-17.385-10.406-23.319c-6.612-5.934-15.468-8.792-24.306-7.831l-53.524,5.807v-0.461
			c0-7.02-5.711-12.732-12.732-12.732h-69.49c-7.02,0-12.732,5.711-12.732,12.732v0.461l-53.524-5.807
			c-8.834-0.961-17.694,1.895-24.307,7.831c-6.613,5.934-10.406,14.433-10.406,23.319c0,8.887,3.793,17.386,10.407,23.321
			c5.772,5.179,13.253,8.011,20.935,8.011c1.12,0,2.246-0.06,3.371-0.183l53.524-5.807v0.461c0,7.02,5.711,12.732,12.732,12.732
			h3.96v21.535h-24.856c-8.203,0-14.877,6.674-14.877,14.877v13.274c0,8.203,6.674,14.877,14.877,14.877h9.476v16.131
			c0,5.389-3.217,10.385-8.204,12.73l-0.201,0.095c-6.776,3.203-13.794,4.828-20.858,4.828h-39.668
			c-4.254,0-7.702,3.448-7.702,7.702c0,4.254,3.448,7.702,7.702,7.702h39.668c9.359,0,18.592-2.122,27.435-6.302l0.186-0.088
			c10.355-4.869,17.046-15.337,17.046-26.667v-16.131h61.521v16.138c0,11.337,6.692,21.805,17.05,26.669v-0.001l0.075,0.036
			c8.76,4.152,18.419,6.346,27.933,6.346h58.515c33.161,0,61.049,23.763,66.31,56.504l10.99,68.371l-20.975,2.642l-33.338,4.198
			l-7.918-49.267c-2.532-15.745-15.944-27.201-31.909-27.239h-0.119c-17.356,0-34.013,5.197-48.168,15.028
			c-17.392,12.076-42.616,19.002-69.205,19.002c-26.747,0-52.067-6.992-69.467-19.183c-13.234-9.272-28.817-14.507-45.067-15.139
			c-4.262-0.168-7.831,3.146-7.995,7.397c-0.165,4.25,3.147,7.829,7.397,7.995c13.287,0.517,26.021,4.792,36.826,12.363
			c19.929,13.963,48.47,21.971,78.306,21.971c29.654,0,58.081-7.929,77.991-21.754c11.564-8.031,25.182-12.276,39.382-12.276h0.101
			c8.361,0.02,15.392,6.025,16.719,14.28l7.834,48.748l-1.262,0.159c-8.574,1.081-14.671,8.936-13.592,17.509l1.986,15.769
			c0.997,7.913,7.762,13.715,15.54,13.715c0.65,0,1.307-0.04,1.968-0.123l87.077-10.967
			C489.42,359.444,495.517,351.59,494.438,343.016z M294.576,28.687l55.186-5.988c4.559-0.488,8.945,0.92,12.356,3.98
			c3.411,3.062,5.29,7.272,5.29,11.855c0,4.584-1.879,8.794-5.29,11.856s-7.802,4.471-12.356,3.979l-55.186-5.987V28.687z
			 M199.623,48.383l-55.186,5.987c-4.556,0.49-8.945-0.919-12.356-3.979c-3.411-3.062-5.29-7.272-5.29-11.856
			c0-4.583,1.879-8.793,5.29-11.854c2.966-2.662,6.669-4.078,10.58-4.078c0.588,0,1.181,0.032,1.776,0.096l55.186,5.988V48.383z
			 M215.027,61.666V15.404h64.145v46.262H215.027z M262.48,77.071v21.535h-30.761V77.071H262.48z M191.986,126.229V114.01h110.226
			v12.219H191.986z M478.921,345.242l-87.077,10.967c-0.144,0.033-0.282-0.086-0.3-0.234l-1.986-15.769
			c-0.019-0.146,0.086-0.282,0.233-0.3l87.078-10.966c0.012-0.002,0.026-0.004,0.043-0.004c0.04,0,0.093,0.01,0.155,0.058
			c0.088,0.068,0.097,0.142,0.101,0.178l1.986,15.769C479.172,345.088,479.068,345.223,478.921,345.242z"/>
	</g>
</g>
<g>
	<g>
		<path d="M469.13,411.683c-6.251-11.134-11.671-19.823-14.346-24.011c-6.707-10.503-8.732-13.673-13.643-13.673
			s-6.936,3.17-13.643,13.673c-2.675,4.188-8.095,12.877-14.345,24.011c-13.946,24.842-21.016,42.106-21.016,51.313
			c0,27.022,21.983,49.005,49.004,49.005s49.005-21.983,49.005-49.005C490.146,453.79,483.075,436.526,469.13,411.683z
			 M441.141,496.596c-18.527,0-33.6-15.073-33.6-33.601c0-11.388,22.519-50.922,33.6-68.173
			c11.082,17.25,33.601,56.784,33.601,68.173C474.741,481.522,459.668,496.596,441.141,496.596z"/>
	</g>
</g>
<g>
</g>
<g>
</g>
<g>
</g>
<g>
</g>
<g>
</g>
<g>
</g>
<g>
</g>
<g>
</g>
<g>
</g>
<g>
</g>
<g>
</g>
<g>
</g>
<g>
</g>
<g>
</g>
<g>
</g>
</svg>
