<svg id="Layer_1" enable-background="new 0 0 512 512" height="512" viewBox="0 0 512 512" width="512" xmlns="http://www.w3.org/2000/svg"><g><path d="m46.691 425.958c-2.925-2.933-7.673-2.938-10.606-.013-4.318 4.308-6.697 10.036-6.697 16.131 0 6.094 2.378 11.822 6.697 16.13 1.464 1.461 3.38 2.19 5.297 2.19 1.922 0 3.845-.734 5.31-2.203 2.926-2.933 2.92-7.682-.013-10.606-1.477-1.474-2.291-3.431-2.291-5.511 0-2.081.813-4.038 2.291-5.512 2.932-2.925 2.938-7.674.012-10.606z"/><path d="m25.239 406.852c-2.925-2.934-7.674-2.939-10.606-.015-9.437 9.412-14.633 21.926-14.633 35.238 0 13.313 5.196 25.827 14.632 35.238 1.464 1.46 3.38 2.189 5.296 2.189 1.923 0 3.845-.734 5.31-2.204 2.925-2.933 2.919-7.681-.014-10.606-6.593-6.576-10.224-15.318-10.224-24.617 0-9.298 3.631-18.04 10.225-24.616 2.933-2.926 2.939-7.674.014-10.607z"/><path d="m465.308 425.958c-2.925 2.933-2.919 7.682.014 10.606 1.477 1.474 2.29 3.431 2.29 5.512 0 2.08-.813 4.037-2.29 5.511-2.933 2.925-2.939 7.674-.014 10.606 1.465 1.469 3.387 2.203 5.31 2.203 1.916 0 3.833-.729 5.296-2.19 4.319-4.308 6.697-10.036 6.697-16.13 0-6.095-2.378-11.823-6.697-16.131-2.933-2.927-7.682-2.921-10.606.013z"/><path d="m486.761 406.852c-2.925 2.933-2.919 7.681.014 10.606 6.594 6.576 10.225 15.318 10.225 24.616 0 9.299-3.631 18.041-10.225 24.617-2.933 2.926-2.939 7.674-.014 10.606 1.465 1.47 3.387 2.204 5.31 2.204 1.916 0 3.833-.729 5.296-2.189 9.436-9.411 14.632-21.926 14.632-35.238s-5.196-25.826-14.632-35.237c-2.933-2.924-7.681-2.92-10.606.015z"/><path d="m256.019 165.208c-2.094 0-4.093.875-5.513 2.415-5.029 5.451-49.138 54.077-49.138 82.235 0 30.135 24.516 54.65 54.65 54.65s54.65-24.516 54.65-54.65c0-28.158-44.108-76.784-49.138-82.235-1.419-1.54-3.417-2.415-5.511-2.415zm0 124.301c-21.863 0-39.65-17.787-39.65-39.65 0-15.131 22.434-46.053 39.65-65.894 17.216 19.841 39.65 50.763 39.65 65.894 0 21.863-17.787 39.65-39.65 39.65z"/><path d="m489.522 133.949c-9.765 0-18.096 6.26-21.191 14.978h-116.986c-18.82-20.62-44.223-35.133-72.849-40.181v-31.293h84.118c12.394 0 22.478-10.083 22.478-22.478s-10.083-22.478-22.478-22.478h-158.446c-4.142 0-7.5 3.357-7.5 7.5s3.358 7.5 7.5 7.5h158.446c4.123 0 7.478 3.354 7.478 7.478s-3.354 7.478-7.478 7.478h-213.191c-4.123 0-7.478-3.354-7.478-7.478s3.354-7.478 7.478-7.478h19.548c4.142 0 7.5-3.357 7.5-7.5s-3.358-7.5-7.5-7.5h-19.548c-12.394 0-22.478 10.083-22.478 22.478s10.083 22.478 22.478 22.478h84.118v31.293c-28.626 5.048-54.029 19.561-72.849 40.181h-60.753c-4.142 0-7.5 3.357-7.5 7.5s3.358 7.5 7.5 7.5h48.957c-13.856 20.567-21.951 45.323-21.951 71.933 0 27.006 8.337 52.102 22.573 72.849h-104.563v-144.783h19.973c4.142 0 7.5-3.357 7.5-7.5s-3.358-7.5-7.5-7.5h-21.26c-3.095-8.718-11.425-14.978-21.191-14.978-12.394.001-22.477 10.084-22.477 22.478v159.781c0 12.395 10.083 22.478 22.478 22.478 9.765 0 18.096-6.26 21.191-14.978h117.867c21.99 23.635 52.717 39.036 86.983 41.009v39.931h-22.505c-4.142 0-7.5 3.357-7.5 7.5v22.428h-150.362c-4.142 0-7.5 3.357-7.5 7.5s3.358 7.5 7.5 7.5h150.361v22.427c0 4.143 3.358 7.5 7.5 7.5h60.011c4.142 0 7.5-3.357 7.5-7.5v-22.427h150.324c4.142 0 7.5-3.357 7.5-7.5s-3.358-7.5-7.5-7.5h-150.324v-22.428c0-4.143-3.358-7.5-7.5-7.5h-22.505v-39.931c34.267-1.973 64.993-17.375 86.983-41.009h58.548c4.142 0 7.5-3.357 7.5-7.5s-3.358-7.5-7.5-7.5h-46.531c14.236-20.747 22.573-45.842 22.573-72.849 0-26.61-8.095-51.365-21.951-71.933h103.904v144.781h-23.318c-4.142 0-7.5 3.357-7.5 7.5s3.358 7.5 7.5 7.5h24.605c3.095 8.718 11.425 14.978 21.191 14.978 12.394 0 22.478-10.083 22.478-22.478v-159.78c-.001-12.394-10.084-22.477-22.479-22.477zm-467.044 189.736c-4.123 0-7.478-3.354-7.478-7.478v-159.781c0-4.123 3.354-7.478 7.478-7.478s7.478 3.354 7.478 7.478v159.781c-.001 4.124-3.355 7.478-7.478 7.478zm256.046 140.817h-45.011v-44.854h45.011zm-29.983-387.049h14.955v29.547c-2.475-.142-4.968-.214-7.478-.214s-5.003.072-7.478.214v-29.547zm7.478 272.479c-62.9 0-114.073-51.173-114.073-114.073s51.173-114.073 114.073-114.073 114.073 51.173 114.073 114.073-51.173 114.073-114.073 114.073zm240.981-33.724c0 4.123-3.354 7.478-7.478 7.478s-7.478-3.354-7.478-7.478v-159.782c0-4.123 3.354-7.478 7.478-7.478s7.478 3.354 7.478 7.478z"/></g></svg>