<?xml version="1.0" encoding="UTF-8" standalone="no"?>
<!-- Created with Inkscape (http://www.inkscape.org/) -->

<svg
   version="1.1"
   id="svg3048"
   xml:space="preserve"
   width="682.66669"
   height="682.66669"
   viewBox="0 0 682.66669 682.66669"
   xmlns="http://www.w3.org/2000/svg"><defs
     id="defs3052"><clipPath
       clipPathUnits="userSpaceOnUse"
       id="clipPath3062"><path
         d="M 0,512 H 512 V 0 H 0 Z"
         id="path3060" /></clipPath></defs><g
     id="g3054"
     transform="matrix(1.3333333,0,0,-1.3333333,0,682.66667)"><g
       id="g3056"><g
         id="g3058"
         clip-path="url(#clipPath3062)"><g
           id="g3064"
           transform="translate(256,502)"><path
             d="m 0,0 52,-90.04 c 5.09,-8.81 8,-19.05 8,-29.96 0,-33.14 -26.86,-60 -60,-60 -33.14,0 -60,26.86 -60,60 0,10.91 2.91,21.15 8,29.96 z"
             style="fill:none;stroke:#000000;stroke-width:20;stroke-linecap:round;stroke-linejoin:round;stroke-miterlimit:10;stroke-dasharray:none;stroke-opacity:1"
             id="path3066" /></g><g
           id="g3068"
           transform="translate(412,400)"><path
             d="M 0,0 77.99,-135.06 C 85.63,-148.28 90,-163.63 90,-180 c 0,-49.71 -40.29,-90 -90,-90 -49.71,0 -90,40.29 -90,90 0,16.37 4.37,31.72 12.01,44.94 z"
             style="fill:none;stroke:#000000;stroke-width:20;stroke-linecap:round;stroke-linejoin:round;stroke-miterlimit:10;stroke-dasharray:none;stroke-opacity:1"
             id="path3070" /></g><g
           id="g3072"
           transform="translate(412,190)"><path
             d="m 0,0 c 16.57,0 30,13.43 30,30 v 0.15 c 0,5.18 -1.36,10.27 -3.96,14.76"
             style="fill:none;stroke:#000000;stroke-width:20;stroke-linecap:round;stroke-linejoin:round;stroke-miterlimit:10;stroke-dasharray:none;stroke-opacity:1"
             id="path3074" /></g><g
           id="g3076"
           transform="translate(130,70)"><path
             d="m 0,0 c 33.14,0 60,26.86 60,60 v 0.16 c 0,10.45 -2.75,20.71 -7.97,29.77"
             style="fill:none;stroke:#000000;stroke-width:20;stroke-linecap:round;stroke-linejoin:round;stroke-miterlimit:10;stroke-dasharray:none;stroke-opacity:1"
             id="path3078" /></g><g
           id="g3080"
           transform="translate(139.999,10)"><path
             d="m 0,0 c 0,-5.522 -4.478,-10 -10,-10 -5.522,0 -10,4.478 -10,10 0,5.522 4.478,10 10,10 C -4.478,10 0,5.522 0,0"
             style="fill:#000000;fill-opacity:1;fill-rule:nonzero;stroke:none"
             id="path3082" /></g><g
           id="g3084"
           transform="translate(85.7871,18.4092)"><path
             d="m 0,0 c -44.393,17.604 -75.787,60.935 -75.787,111.591 0,21.83 5.83,42.29 16.01,59.92 l 103.99,180.08 103.99,-180.08 c 10.18,-17.63 16.01,-38.09 16.01,-59.92 0,-50.657 -31.396,-93.987 -75.788,-111.592"
             style="fill:none;stroke:#000000;stroke-width:20;stroke-linecap:round;stroke-linejoin:round;stroke-miterlimit:10;stroke-dasharray:none;stroke-opacity:1"
             id="path3086" /></g></g></g></g></svg>
