<?xml version="1.0" encoding="UTF-8" standalone="no"?>
<!-- Created with Inkscape (http://www.inkscape.org/) -->

<svg
   version="1.1"
   id="svg3426"
   xml:space="preserve"
   width="682.66669"
   height="682.66669"
   viewBox="0 0 682.66669 682.66669"
   xmlns="http://www.w3.org/2000/svg"><defs
     id="defs3430"><clipPath
       clipPathUnits="userSpaceOnUse"
       id="clipPath3440"><path
         d="M 0,512 H 512 V 0 H 0 Z"
         id="path3438" fill="currentColor" /></clipPath></defs><g
     id="g3432"
     transform="matrix(1.3333333,0,0,-1.3333333,0,682.66667)"><g
       id="g3434"><g
         id="g3436"
         clip-path="url(#clipPath3440)"><g
           id="g3442"
           transform="translate(280.2471,327.9429)"><path
             d="m 0,0 v -27.45 c 0,-13.391 -10.855,-24.247 -24.247,-24.247 -13.392,0 -24.248,10.856 -24.248,24.247 V 0"
             style="fill:none;stroke:#000000;stroke-width:15;stroke-linecap:round;stroke-linejoin:round;stroke-miterlimit:10;stroke-dasharray:none;stroke-opacity:1"
             id="path3444" fill="currentColor" /></g><g
           id="g3446"
           transform="translate(280.25,324.7402)"><path
             d="m 0,0 56.57,-20.45 -10.1,-130.25 10.1,-57.43 h -161.64 l 10.1,57.43 -4.28,55.16"
             style="fill:none;stroke:#000000;stroke-width:15;stroke-linecap:round;stroke-linejoin:round;stroke-miterlimit:10;stroke-dasharray:none;stroke-opacity:1"
             id="path3448" fill="currentColor" /></g><g
           id="g3450"
           transform="translate(178.2998,264.0898)"><path
             d="M 0,0 -3.12,40.2 53.45,60.65"
             style="fill:none;stroke:#000000;stroke-width:15;stroke-linecap:round;stroke-linejoin:round;stroke-miterlimit:10;stroke-dasharray:none;stroke-opacity:1"
             id="path3452" fill="currentColor" /></g><g
           id="g3454"
           transform="translate(104.4487,91.0986)"><path
             d="m 0,0 c -22.881,3.835 -43.725,-13.806 -43.725,-37.006 v -9.07 c 0,-20.723 16.799,-37.523 37.522,-37.523 H 39.04"
             style="fill:none;stroke:#000000;stroke-width:15;stroke-linecap:round;stroke-linejoin:round;stroke-miterlimit:10;stroke-dasharray:none;stroke-opacity:1"
             id="path3456" fill="currentColor" /></g><g
           id="g3458"
           transform="translate(143.4888,7.5)"><path
             d="m 0,0 h -45.239 c -20.73,0 -37.53,16.8 -37.53,37.52 v 9.07 c 0,23.2 20.85,40.84 43.73,37.01 l 151.55,-25.41"
             style="fill:none;stroke:#000000;stroke-width:15;stroke-linecap:round;stroke-linejoin:round;stroke-miterlimit:10;stroke-dasharray:none;stroke-opacity:1"
             id="path3460" fill="currentColor" /></g><g
           id="g3462"
           transform="translate(336.8203,304.29)"><path
             d="M 0,0 16.479,-7.35 C 31.04,-13.85 40.42,-28.31 40.42,-44.25 V -68.44"
             style="fill:none;stroke:#000000;stroke-width:15;stroke-linecap:round;stroke-linejoin:round;stroke-miterlimit:10;stroke-dasharray:none;stroke-opacity:1"
             id="path3464" fill="currentColor" /></g><g
           id="g3466"
           transform="translate(377.2402,200.8501)"><path
             d="m 0,0 v -24.63 l 53.979,-47.48 5.681,4.54 c 2.86,2.29 6.43,3.54 10.1,3.54 h 14.53 c 5.58,0 10.109,-4.52 10.109,-10.1 v -28.29 c 0,-5.58 -4.529,-10.11 -10.109,-10.11 H 53.979 L -46.16,-51.61"
             style="fill:none;stroke:#000000;stroke-width:15;stroke-linecap:round;stroke-linejoin:round;stroke-miterlimit:10;stroke-dasharray:none;stroke-opacity:1"
             id="path3468" fill="currentColor" /></g><g
           id="g3470"
           transform="translate(180.916,149.2412)"><path
             d="m 0,0 -100.139,-60.917 h -30.309 c -5.58,0 -10.103,4.523 -10.103,10.104 v 28.288 c 0,5.58 4.523,10.103 10.103,10.103 h 14.535 c 3.671,0 7.232,-1.249 10.099,-3.542 l 5.675,-4.54 53.986,47.479 v 83.82 c 0,15.946 9.377,30.401 23.937,36.902 l 16.475,7.356"
             style="fill:none;stroke:#000000;stroke-width:15;stroke-linecap:round;stroke-linejoin:round;stroke-miterlimit:10;stroke-dasharray:none;stroke-opacity:1"
             id="path3472" fill="currentColor" /></g><g
           id="g3474"
           transform="translate(336.8242,116.6133)"><path
             d="M 0,0 6.729,-36.242"
             style="fill:none;stroke:#000000;stroke-width:15;stroke-linecap:round;stroke-linejoin:round;stroke-miterlimit:10;stroke-dasharray:none;stroke-opacity:1"
             id="path3476" fill="currentColor" /></g><g
           id="g3478"
           transform="translate(168.4468,80.3716)"><path
             d="M 0,0 6.729,36.242"
             style="fill:none;stroke:#000000;stroke-width:15;stroke-linecap:round;stroke-linejoin:round;stroke-miterlimit:10;stroke-dasharray:none;stroke-opacity:1"
             id="path3480" fill="currentColor" /></g><g
           id="g3482"
           transform="translate(300.3203,7.5)"><path
             d="m 0,0 h 113.43 c 20.73,0 37.53,16.8 37.53,37.52 v 9.07 c 0,23.2 -20.851,40.84 -43.731,37.01 L -102.2,48.49 V 0 H -35"
             style="fill:none;stroke:#000000;stroke-width:15;stroke-linecap:round;stroke-linejoin:round;stroke-miterlimit:10;stroke-dasharray:none;stroke-opacity:1"
             id="path3484" fill="currentColor" /></g><g
           id="g3486"
           transform="translate(198.1177,55.9946)"><path
             d="m 0,0 -61.144,-10.549 c -9.166,-1.581 -15.862,-9.532 -15.862,-18.834 0,-10.555 8.556,-19.112 19.111,-19.112 H 0 Z"
             style="fill:none;stroke:#000000;stroke-width:15;stroke-linecap:round;stroke-linejoin:round;stroke-miterlimit:10;stroke-dasharray:none;stroke-opacity:1"
             id="path3488" fill="currentColor" /></g><g
           id="g3490"
           transform="translate(134.7632,176.2158)"><path
             d="M 0,0 8.726,-4.457"
             style="fill:none;stroke:#000000;stroke-width:15;stroke-linecap:round;stroke-linejoin:round;stroke-miterlimit:10;stroke-dasharray:none;stroke-opacity:1"
             id="path3492" fill="currentColor" /></g><g
           id="g3494"
           transform="translate(377.2363,176.2158)"><path
             d="M 0,0 -8.726,-4.457"
             style="fill:none;stroke:#000000;stroke-width:15;stroke-linecap:round;stroke-linejoin:round;stroke-miterlimit:10;stroke-dasharray:none;stroke-opacity:1"
             id="path3496" fill="currentColor" /></g><g
           id="g3498"
           transform="translate(278.1357,470.3721)"><path
             d="m 0,0 c 1.364,3.01 2.111,6.354 2.111,9.88 0,13.387 -10.86,24.248 -24.247,24.248 -13.386,0 -24.247,-10.861 -24.247,-24.248 0,-3.526 0.748,-6.87 2.112,-9.88"
             style="fill:none;stroke:#000000;stroke-width:15;stroke-linecap:round;stroke-linejoin:round;stroke-miterlimit:10;stroke-dasharray:none;stroke-opacity:1"
             id="path3500" fill="currentColor" /></g><g
           id="g3502"
           transform="translate(191.3403,389.4004)"><path
             d="M 0,0 C 83.618,0 114.691,41.233 121.182,51.602"
             style="fill:none;stroke:#000000;stroke-width:15;stroke-linecap:round;stroke-linejoin:round;stroke-miterlimit:10;stroke-dasharray:none;stroke-opacity:1"
             id="path3504" fill="currentColor" /></g><g
           id="g3506"
           transform="translate(191.3403,389.4004)"><path
             d="m 0,0 c 0,-35.997 29.414,-65.123 65.518,-64.654 35.533,0.461 63.801,30.082 63.801,65.618 v 19.238 c 0,35.71 -28.948,64.659 -64.659,64.659 C 28.949,84.861 0,55.912 0,20.202 Z"
             style="fill:none;stroke:#000000;stroke-width:15;stroke-linecap:round;stroke-linejoin:round;stroke-miterlimit:10;stroke-dasharray:none;stroke-opacity:1"
             id="path3508" fill="currentColor" /></g><g
           id="g3510"
           transform="translate(290.2666,464.4395)"><path
             d="M 0,0 C 0,0 -18.96,-25.177 -48.165,-32.608"
             style="fill:none;stroke:#000000;stroke-width:15;stroke-linecap:round;stroke-linejoin:round;stroke-miterlimit:10;stroke-dasharray:none;stroke-opacity:1"
             id="path3512" fill="currentColor" /></g><g
           id="g3514"
           transform="translate(139.126,398.6211)"><path
             d="M 0,0 V -32.33"
             style="fill:none;stroke:#000000;stroke-width:15;stroke-linecap:round;stroke-linejoin:round;stroke-miterlimit:10;stroke-dasharray:none;stroke-opacity:1"
             id="path3516" fill="currentColor" /></g><g
           id="g3518"
           transform="translate(149.229,382.4561)"><path
             d="M 0,0 H -20.206"
             style="fill:none;stroke:#000000;stroke-width:15;stroke-linecap:round;stroke-linejoin:round;stroke-miterlimit:10;stroke-dasharray:none;stroke-opacity:1"
             id="path3520" fill="currentColor" /></g><g
           id="g3522"
           transform="translate(365.1133,486.5366)"><path
             d="M 0,0 V -32.33"
             style="fill:none;stroke:#000000;stroke-width:15;stroke-linecap:round;stroke-linejoin:round;stroke-miterlimit:10;stroke-dasharray:none;stroke-opacity:1"
             id="path3524" fill="currentColor" /></g><g
           id="g3526"
           transform="translate(375.2158,470.3721)"><path
             d="M 0,0 H -20.206"
             style="fill:none;stroke:#000000;stroke-width:15;stroke-linecap:round;stroke-linejoin:round;stroke-miterlimit:10;stroke-dasharray:none;stroke-opacity:1"
             id="path3528" fill="currentColor" /></g><g
           id="g3530"
           transform="translate(401.3594,362.9497)"><path
             d="M 0,0 V -32.33"
             style="fill:none;stroke:#000000;stroke-width:15;stroke-linecap:round;stroke-linejoin:round;stroke-miterlimit:10;stroke-dasharray:none;stroke-opacity:1"
             id="path3532" fill="currentColor" /></g><g
           id="g3534"
           transform="translate(411.4629,346.7852)"><path
             d="M 0,0 H -20.206"
             style="fill:none;stroke:#000000;stroke-width:15;stroke-linecap:round;stroke-linejoin:round;stroke-miterlimit:10;stroke-dasharray:none;stroke-opacity:1"
             id="path3536" fill="currentColor" /></g><g
           id="g3538"
           transform="translate(211.6772,211.4521)"><path
             d="M 0,0 C 14.826,-9.653 34.669,-5.46 44.323,9.365 53.976,-5.46 73.82,-9.653 88.646,0"
             style="fill:none;stroke:#000000;stroke-width:15;stroke-linecap:round;stroke-linejoin:round;stroke-miterlimit:10;stroke-dasharray:none;stroke-opacity:1"
             id="path3540" fill="currentColor" /></g></g></g></g></svg>
