<?xml version="1.0" encoding="UTF-8"?>
<svg xmlns="http://www.w3.org/2000/svg" xmlns:xlink="http://www.w3.org/1999/xlink" version="1.1" id="Capa_1" x="0px" y="0px" viewBox="0 0 511.999 511.999" style="enable-background:new 0 0 511.999 511.999;" xml:space="preserve" width="512" height="512">
<g>
	
		<ellipse transform="matrix(0.5 -0.866 0.866 0.5 102.8108 373.7198)" style="fill:none;stroke:#000000;stroke-width:20;stroke-linecap:round;stroke-linejoin:round;stroke-miterlimit:10;" cx="375.056" cy="97.823" rx="42.325" ry="39.052"/>
	<path style="fill:none;stroke:#000000;stroke-width:20;stroke-linecap:round;stroke-linejoin:round;stroke-miterlimit:10;" d="&#10;&#9;&#9;M293.609,155.525L293.609,155.525L235.342,46.976c-6.692-12.467-0.909-27.978,12.313-33.019l0,0&#10;&#9;&#9;c10.489-3.999,22.342-0.009,28.275,9.521l52.464,84.254c12.697,20.39,32.481,35.37,55.551,42.06l100.453,29.13&#10;&#9;&#9;c12.64,3.665,20.091,16.699,16.837,29.451v0c-3.342,13.095-16.684,20.984-29.768,17.601c-33.846-8.752-91.956-23.815-91.956-23.815&#10;&#9;&#9;l0,0c-6.173,26.521-1.634,54.406,12.629,77.601l89.663,145.807c7.319,11.903,3.172,27.509-9.09,34.208l0,0&#10;&#9;&#9;c-11.165,6.099-25.142,2.6-32.117-8.039L340.68,299.309l22.914,172.581c1.947,14.666-9.464,27.693-24.259,27.693h0&#10;&#9;&#9;c-12.028,0-22.273-8.741-24.167-20.618l-23.41-146.803C282.419,273.599,283.045,213.879,293.609,155.525z"/>
	
		<line style="fill:none;stroke:#000000;stroke-width:20;stroke-linecap:round;stroke-linejoin:round;stroke-miterlimit:10;" x1="285.223" y1="243.554" x2="373.469" y2="243.554"/>
	
		<ellipse transform="matrix(0.866 -0.5 0.5 0.866 -30.5648 81.5769)" style="fill:none;stroke:#000000;stroke-width:20;stroke-linecap:round;stroke-linejoin:round;stroke-miterlimit:10;" cx="136.942" cy="97.823" rx="39.052" ry="42.325"/>
	<path style="fill:none;stroke:#000000;stroke-width:20;stroke-linecap:round;stroke-linejoin:round;stroke-miterlimit:10;" d="&#10;&#9;&#9;M236.068,23.478l-52.464,84.254c-12.697,20.39-32.481,35.37-55.551,42.06l-100.453,29.13c-12.64,3.665-20.091,16.699-16.837,29.451&#10;&#9;&#9;l0,0c3.342,13.095,16.684,20.984,29.768,17.601c33.846-8.752,91.956-23.815,91.956-23.815l0,0&#10;&#9;&#9;c6.173,26.521,1.634,54.406-12.629,77.601L30.193,425.566c-7.319,11.903-3.172,27.509,9.09,34.208l0,0&#10;&#9;&#9;c11.165,6.099,25.142,2.6,32.117-8.039l99.918-152.425L148.404,471.89c-1.947,14.666,9.464,27.693,24.259,27.693h0&#10;&#9;&#9;c12.028,0,22.273-8.741,24.167-20.618l12.582-78.899"/>
	<path style="fill:none;stroke:#000000;stroke-width:20;stroke-linecap:round;stroke-linejoin:round;stroke-miterlimit:10;" d="&#10;&#9;&#9;M223.163,311.112c6.125-51.773,4.527-104.209-4.774-155.587l0,0l37.477-69.818"/>
	
		<line style="fill:none;stroke:#000000;stroke-width:20;stroke-linecap:round;stroke-linejoin:round;stroke-miterlimit:10;" x1="226.775" y1="243.554" x2="138.529" y2="243.554"/>
	
		<line style="fill:none;stroke:#000000;stroke-width:20;stroke-linecap:round;stroke-linejoin:round;stroke-miterlimit:10;" x1="216.501" y1="355.622" x2="216.501" y2="355.622"/>
</g>















</svg>
