<svg width="18" height="18" viewBox="0 0 18 18" fill="none" xmlns="http://www.w3.org/2000/svg">
<g clip-path="url(#clip0_20_13)">
<path d="M18 2.25C18 2.6625 17.6625 3 17.25 3H0.75C0.3375 3 0 2.6625 0 2.25C0 1.8375 0.3375 1.5 0.75 1.5H17.25C17.6625 1.5 18 1.8375 18 2.25ZM11.25 15H6.75C6.3375 15 6 15.3375 6 15.75C6 16.1625 6.3375 16.5 6.75 16.5H11.25C11.6625 16.5 12 16.1625 12 15.75C12 15.3375 11.6625 15 11.25 15ZM14.25 8.25H3.75C3.3375 8.25 3 8.5875 3 9C3 9.4125 3.3375 9.75 3.75 9.75H14.25C14.6625 9.75 15 9.4125 15 9C15 8.5875 14.6625 8.25 14.25 8.25Z" fill="#213502"/>
</g>
<defs>
<clipPath id="clip0_20_13">
<rect width="18" height="18" fill="white"/>
</clipPath>
</defs>
</svg>
