<svg width="51" height="51" viewBox="0 0 51 51" fill="none" xmlns="http://www.w3.org/2000/svg">
<path fill-rule="evenodd" clip-rule="evenodd" d="M25.305 0C32.2519 0 38.5412 2.81586 43.0938 7.36845C47.6464 11.921 50.4623 18.2104 50.4623 25.1573C50.4623 32.1042 47.6464 38.3936 43.0938 42.9462C38.5412 47.4987 32.2519 50.3146 25.305 50.3146C18.358 50.3146 12.0687 47.4987 7.51609 42.9462C2.96351 38.3936 0.147644 32.1042 0.147644 25.1573C0.147644 18.2103 2.96353 11.921 7.51609 7.36845C12.0687 2.81586 18.358 0 25.305 0ZM42.2601 8.20216C37.9209 3.86299 31.9264 1.17918 25.305 1.17918C18.6835 1.17918 12.6889 3.86302 8.34978 8.20216C4.01061 12.5413 1.3268 18.5359 1.3268 25.1573C1.3268 31.7788 4.01064 37.7733 8.34978 42.1125C12.6889 46.4516 18.6835 49.1355 25.305 49.1355C31.9264 49.1355 37.921 46.4516 42.2601 42.1125C46.5993 37.7733 49.2831 31.7788 49.2831 25.1573C49.2831 18.5359 46.5993 12.5413 42.2601 8.20216Z" fill="#B2D45C"/>
<path fill-rule="evenodd" clip-rule="evenodd" d="M16.9999 23.8413C17.1347 22.9787 17.4008 22.1598 17.7771 21.4054L5.97455 14.5912C5.5687 15.3323 5.20432 16.0993 4.88443 16.8892C4.98361 16.8835 5.10544 16.9785 5.13517 17.0971C5.00995 17.1029 4.88346 17.1118 4.82601 17.0347C4.38694 18.1415 4.03506 19.2923 3.77879 20.4788C3.82014 20.4957 3.86747 20.5055 3.94474 20.4789C3.9489 20.5248 3.8549 20.5673 3.75701 20.5807C3.64873 21.0938 3.55831 21.6135 3.48651 22.1392C7.99592 21.6167 12.608 22.1775 16.8472 23.7829C16.8982 23.8022 16.9491 23.8216 16.9999 23.8413ZM9.69937 21.4629C9.57056 21.4458 9.41972 21.4658 9.42168 21.2915C9.58897 21.2575 9.70425 21.2913 9.69937 21.4629ZM9.70402 20.0895C9.61425 20.0774 9.63659 19.9324 9.61459 19.8338C9.74606 19.7932 9.79044 19.8637 9.88084 19.8769C9.9149 20.0235 9.70055 19.9647 9.70402 20.0895ZM8.46384 20.0687C8.42305 20.0469 8.38096 20.0258 8.32435 20.0217L8.31542 19.9232C8.31831 19.9129 8.31944 19.9012 8.31764 19.8874C8.36095 19.8835 8.40614 19.8794 8.44649 19.8757C8.45209 19.9394 8.45831 20.0061 8.46384 20.0687ZM9.12247 19.4202C9.14517 19.5615 8.89568 19.4716 8.80591 19.5162C8.78199 19.3746 9.03161 19.465 9.12247 19.4202ZM10.3512 19.2474L10.3421 19.2433C10.37 19.1969 10.4002 19.176 10.4277 19.1706C10.4007 19.1957 10.3752 19.2212 10.3512 19.2474ZM5.69039 19.4133C5.5946 19.4163 5.48071 19.4038 5.41314 19.43C5.4213 19.2801 5.5509 19.2731 5.67933 19.2913L5.69039 19.4133ZM10.726 18.1006C10.7172 18.0987 10.7073 18.098 10.696 18.099L10.6946 18.0845C10.7051 18.09 10.7155 18.0949 10.726 18.1006ZM5.36495 17.4699C5.23101 17.5096 5.18924 17.4405 5.1016 17.4274C5.07109 17.3155 5.45176 17.2809 5.36495 17.4699ZM9.98522 19.6036C10.0618 19.8318 9.66181 19.6246 9.65074 19.5026C9.8461 19.4369 9.79106 19.6691 9.98522 19.6036Z" fill="#FEC45A"/>
<path fill-rule="evenodd" clip-rule="evenodd" d="M6.49182 13.697L18.2945 20.5113C18.6051 20.0435 18.9613 19.6086 19.3569 19.2131C19.7524 18.8176 20.1872 18.4613 20.655 18.1508L17.6247 12.9022C17.6129 13.0735 17.4853 13.2614 17.342 13.3229C17.0487 13.2458 17.4541 12.8351 17.4531 12.6191C17.4569 12.6206 17.4605 12.6223 17.4641 12.6239L13.8407 6.34808C12.3428 7.26236 10.9625 8.35047 9.72835 9.58466C8.49416 10.8189 7.40612 12.1991 6.49182 13.697ZM13.2268 16.0839C13.313 15.9518 13.5229 16.0879 13.5849 15.9177C13.9324 16.1072 13.4458 16.3387 13.2268 16.0839ZM12.1496 14.4835C11.8062 13.9058 12.7083 14.1821 12.1496 14.4835V14.4835ZM9.43219 10.9831C9.53808 10.7417 9.90327 11.056 9.97307 10.7338C10.327 11.1123 9.46776 11.3628 9.43219 10.9831ZM11.7652 15.7121L12.0299 15.8085C11.9709 15.849 11.9113 15.8856 11.863 15.9169C11.7706 15.8721 11.7486 15.7965 11.7652 15.7121Z" fill="#F89A34"/>
<path fill-rule="evenodd" clip-rule="evenodd" d="M14.7349 5.83081L16.1822 8.33779C16.2377 8.22586 16.2582 8.13015 16.1026 8.1153C16.1784 7.96908 16.3796 8.08757 16.5479 8.12626C16.5292 8.40557 16.3945 8.43101 16.2889 8.52249L18.7285 12.748C18.8382 12.572 19.0985 12.4279 19.1864 12.3622C19.4124 12.5451 19.052 12.789 18.8639 12.9826L21.5491 17.6334C22.5299 17.144 23.62 16.8411 24.7729 16.7709V3.14487C21.1411 3.22872 17.7269 4.1923 14.7349 5.83081ZM19.8892 7.07717C19.8128 7.07421 19.8228 6.9663 19.8058 6.888C19.9845 6.81812 19.9806 6.96392 20.1347 6.92537C20.1962 7.09821 19.8279 6.90643 19.8892 7.07717ZM21.1688 6.10949C21.1038 6.11539 21.0381 6.12136 20.9751 6.12709C20.9712 6.08422 20.9673 6.04125 20.9634 5.99787C21.0264 5.99213 21.0921 5.98619 21.1574 5.98025C21.1611 6.02365 21.1652 6.06662 21.1688 6.10949ZM21.831 5.52803C21.8565 5.66639 21.604 5.57736 21.5135 5.62042C21.5064 5.45581 21.7397 5.44702 21.831 5.52803ZM21.4545 4.9709C21.3839 5.16978 21.136 4.98202 21.0632 4.94336C21.1024 4.78398 21.3508 4.97104 21.4545 4.9709ZM20.9792 5.47232C20.9434 5.58365 20.6238 5.42811 20.6325 5.24311C20.8709 5.17359 20.7968 5.47857 20.9792 5.47232ZM20.4804 4.99632C20.4945 5.28589 19.9921 4.79196 20.4804 4.99625V4.99632ZM19.8534 4.52875C19.7612 4.43794 19.4999 4.44348 19.6358 4.28556C19.695 4.38514 19.849 4.36479 19.8534 4.52875ZM18.232 11.7131C18.0478 11.5411 18.6443 11.0605 18.997 11.2474C18.9139 11.7758 18.3872 11.3516 18.232 11.7131ZM19.6178 11.1771C19.0402 10.939 20.4643 10.4122 19.618 11.1771L19.6178 11.1771ZM21.1047 10.3834C21.3664 10.2869 21.5953 9.77236 21.7786 10.1821C21.5301 10.2062 21.4285 10.5252 21.1047 10.3834Z" fill="#F68B36"/>
<path fill-rule="evenodd" clip-rule="evenodd" d="M25.8083 3.14484V13.5401C25.8212 13.5034 25.829 13.4691 25.8287 13.4387C26.2075 13.5134 25.7742 13.9713 26.0263 14.1094C25.9401 14.2449 25.8799 14.0812 25.8083 14.0654V16.7709C26.9613 16.8411 28.0513 17.1441 29.0321 17.6334L35.8463 5.8308C34.9524 5.34129 34.0208 4.91204 33.0569 4.54844C33.0312 4.61953 32.9676 4.70801 32.9687 4.76714C32.8643 4.7371 32.9472 4.62191 32.9923 4.52428C30.7482 3.6859 28.3308 3.20309 25.8083 3.14484ZM26.8916 4.2964C26.9495 4.17183 27.113 4.35357 26.8735 4.41591V4.41598C26.8724 4.37329 26.8767 4.34071 26.8841 4.31618L26.9345 4.33243C26.9206 4.31964 26.9063 4.30766 26.8916 4.2964ZM26.4137 3.8598C26.5018 3.96527 26.2677 4.03587 26.3132 3.79264L26.3131 3.7926C26.3523 3.80976 26.38 3.82743 26.399 3.84463L26.3628 3.88336C26.3803 3.87624 26.3972 3.86836 26.4137 3.8598ZM28.9944 5.5398C29.0207 5.44868 29.0976 5.36192 29.1768 5.45588C29.1367 5.47949 29.1025 5.51801 29.0744 5.56891L28.9944 5.5398ZM30.8747 4.41966C30.945 4.31035 30.9911 4.16533 31.148 4.24132C31.1076 4.40717 31.0279 4.49706 30.8747 4.41966ZM32.1154 5.00847C32.1646 4.93239 32.2863 5.01432 32.3848 5.03641C32.3656 5.17264 32.283 5.18279 32.2326 5.25896C32.0854 5.22738 32.2299 5.05847 32.1154 5.00847ZM32.6019 5.95256L32.6096 5.94611C32.6396 5.99108 32.6457 6.02728 32.6389 6.05452C32.6277 6.01939 32.6154 5.98542 32.6019 5.95256ZM33.4801 6.77991C33.4856 6.77274 33.4904 6.76414 33.4943 6.75341L33.508 6.7584C33.4986 6.76555 33.4897 6.77283 33.4801 6.77991ZM32.4354 5.46978C32.1964 5.44191 32.5541 5.1682 32.6692 5.2101C32.6455 5.41488 32.4588 5.26623 32.4354 5.46978ZM33.2111 4.90971C33.1386 4.89962 33.1543 4.78455 33.0706 4.79216C33.0815 4.6088 33.2748 4.76739 33.2111 4.90971ZM31.7912 10.4789C31.7693 10.4276 31.7479 10.3758 31.7276 10.3233C31.8165 10.314 31.9419 10.3355 32.0091 10.3063C31.9712 10.4639 31.8923 10.5015 31.7912 10.4789ZM32.7519 5.67818C32.515 5.5031 32.5772 5.93644 32.7519 5.67818V5.67818ZM31.819 7.51064C31.6967 7.51388 31.7565 7.29844 31.6074 7.33278C31.6965 7.10942 31.9713 7.42071 31.819 7.51064ZM33.3437 5.59682L33.3319 5.46668C33.3606 5.4834 33.3877 5.50123 33.4104 5.51531C33.4098 5.56299 33.3825 5.58713 33.3437 5.59682ZM27.0926 11.2051L27.3368 11.294C27.3046 11.3924 27.2226 11.4831 27.1181 11.5334C27.0147 11.4669 27.0445 11.3411 27.0926 11.2051ZM30.1431 12.3159L30.371 12.3989C30.3318 12.6972 30.0209 13.0444 29.7495 12.9334C29.8695 12.7039 30.0382 12.5776 30.1431 12.3159Z" fill="#F68B36"/>
<path fill-rule="evenodd" clip-rule="evenodd" d="M36.7406 6.34808L32.0678 14.4415C32.1427 14.3829 32.2313 14.3774 32.3259 14.4695C32.2786 14.9059 31.9601 14.771 31.9125 15.2084C31.8216 15.1753 31.8224 14.9629 31.8817 14.7639L29.9263 18.1508C30.394 18.4614 30.8289 18.8176 31.2244 19.2131C31.62 19.6086 31.9762 20.0435 32.2868 20.5113L44.0895 13.697C43.1752 12.1991 42.0871 10.8189 40.8529 9.58466C39.6187 8.35047 38.2385 7.26236 36.7406 6.34808ZM39.388 13.4338C39.3116 13.4308 39.3216 13.323 39.3046 13.2447C39.4834 13.1748 39.4794 13.3206 39.6335 13.282C39.695 13.4548 39.3267 13.2631 39.388 13.4338ZM40.6677 12.4662C40.6026 12.472 40.537 12.478 40.4739 12.4837C40.47 12.4409 40.4661 12.3979 40.4622 12.3545C40.5252 12.3488 40.5909 12.3428 40.6562 12.3369C40.6598 12.3803 40.664 12.4233 40.6677 12.4662ZM41.3298 11.8847C41.3554 12.023 41.1028 11.934 41.0123 11.9771C41.0052 11.8124 41.2386 11.8037 41.3298 11.8847ZM40.9533 11.3275C40.8827 11.5264 40.6348 11.3387 40.5621 11.3C40.6012 11.1406 40.8496 11.3277 40.9533 11.3275ZM38.5144 8.20881L38.5035 8.08872C38.5512 8.08282 38.6054 8.09935 38.6472 8.13332C38.6397 8.1898 38.581 8.20215 38.5144 8.20881ZM40.478 11.829C40.4422 11.9403 40.1226 11.7847 40.1314 11.5997C40.3697 11.5302 40.2956 11.8352 40.478 11.829ZM39.9792 11.353C39.9934 11.6425 39.4909 11.1486 39.9792 11.3529V11.353ZM39.3522 10.8854C39.26 10.7946 38.9988 10.8001 39.1346 10.6422C39.1938 10.7418 39.3478 10.7214 39.3522 10.8854ZM32.3889 19.5899C32.4709 19.4004 32.5998 19.1898 32.6108 19.034C32.8956 19.1874 32.7904 19.4465 32.637 19.6803L32.3889 19.5899ZM34.6191 15.1542C34.37 15.1148 34.6537 14.3358 34.9452 14.6803C34.9021 14.9718 34.7253 14.9893 34.6191 15.1542ZM34.8231 15.8264C34.5335 15.7448 34.9375 15.3394 34.9348 15.124C35.2656 15.2554 35.0657 15.7233 34.8231 15.8264ZM36.7907 14.7351C36.8726 14.7626 36.953 14.7873 37.0324 14.8084C36.9713 14.8955 36.915 14.9886 36.8869 15.0906C36.6793 14.9603 36.7028 14.8611 36.7907 14.7351ZM37.5853 15.6416C37.9528 15.9956 37.1929 15.8654 37.212 16.2487C36.7311 15.8878 37.4024 15.8822 37.5853 15.6416Z" fill="#F89A34"/>
<path fill-rule="evenodd" clip-rule="evenodd" d="M44.6067 14.5912L32.8041 21.4054C33.2489 22.2969 33.5397 23.2786 33.6416 24.3158C33.6695 24.302 33.6975 24.2883 33.7254 24.2747C33.7413 24.267 33.7571 24.2592 33.773 24.2515C33.8107 24.2332 33.8484 24.215 33.8862 24.1969L33.9036 24.1886C33.949 24.1669 33.9945 24.1454 34.0401 24.124C37.0131 22.7285 40.3295 21.9487 43.8248 21.9487C44.4984 21.9487 45.1668 21.9778 45.8288 22.0349L45.8488 22.0366L45.8601 22.0376L45.8687 22.0384L45.8887 22.0401L45.8913 22.0404L45.9206 22.043L45.9226 22.0432L45.9287 22.0437L45.9486 22.0455L45.9539 22.046L45.9686 22.0474L45.9852 22.0489L45.9886 22.0492L46.0085 22.0511L46.0164 22.0519L46.0285 22.053L46.0476 22.0548L46.0484 22.0549L46.0552 22.0555L46.0775 22.0577L46.0788 22.0578L46.0883 22.0587L46.1082 22.0607L46.11 22.0609L46.1137 22.0612L46.1382 22.0637L46.1412 22.064L46.1481 22.0646L46.168 22.0666L46.1724 22.0671L46.1741 22.0673L46.2036 22.0703L46.2078 22.0707L46.2348 22.0735L46.2477 22.0749L46.266 22.0768L46.2676 22.0769L46.2875 22.079L46.2971 22.0801L46.3073 22.0812L46.3272 22.0833L46.3283 22.0834L46.3471 22.0855L46.3594 22.0868L46.367 22.0876L46.3869 22.0898L46.3905 22.0903L46.3921 22.0904L46.4185 22.0934L46.4216 22.0938L46.4266 22.0943L46.4465 22.0966L46.4527 22.0973L46.4571 22.0978L46.4839 22.1009L46.4863 22.1012L46.5135 22.1043L46.5167 22.1047L46.5459 22.1081L46.5461 22.1081L46.5754 22.1116L46.5786 22.112L46.6054 22.1152L46.6082 22.1155L46.6339 22.1186L46.6393 22.1193L46.6451 22.12L46.6649 22.1224L46.6703 22.1231L46.6756 22.1237L46.6971 22.1264L46.7013 22.1269L46.7045 22.1273L46.7243 22.1298L46.7394 22.1317L46.7442 22.1323L46.7634 22.1348L46.7639 22.1348L46.7837 22.1374L46.7944 22.1387C46.8146 22.1413 46.8348 22.144 46.855 22.1466L46.8564 22.1468L46.8629 22.1477L46.8827 22.1503L46.8873 22.1509L46.9025 22.1529L46.9183 22.1551L46.9223 22.1556L46.942 22.1582L46.9493 22.1592L46.9618 22.1609L46.9802 22.1634L46.9816 22.1636L47.0014 22.1663L47.0112 22.1677L47.012 22.1678L47.0399 22.1717L47.0409 22.1718L47.0421 22.172L47.0606 22.1746L47.073 22.1764L47.0803 22.1774L47.1001 22.1802C46.7339 19.4617 45.8714 16.9006 44.6067 14.5912ZM36.4771 20.7382C36.5226 20.4406 36.6955 20.4226 36.8015 20.2636C37.0477 20.3068 36.7659 21.0808 36.4771 20.7382ZM37.4148 20.6321C37.5509 20.3043 37.6786 19.9673 38.0452 20.1174C38.1799 20.4047 37.7627 20.7005 37.4148 20.6321Z" fill="#FEC45A"/>
<path fill-rule="evenodd" clip-rule="evenodd" d="M7.98455 38.7513C8.59772 39.5308 9.36767 40.3336 10.23 41.1113V40.0884C9.53338 39.5486 8.94392 38.1099 8.81886 35.7718C8.15408 35.6801 7.47517 35.6326 6.78509 35.6326C6.49839 35.6326 6.22995 35.6394 5.97957 35.6529L5.94537 35.6548C6.539 36.7464 7.22204 37.7818 7.98455 38.7513ZM11.5238 42.2048C12.468 42.9539 13.475 43.6542 14.479 44.2559V43.65C13.892 43.1952 13.4069 41.8859 13.4069 39.7213C13.4069 38.8078 13.4343 37.9803 13.4842 37.2386C13.2683 37.1283 13.0494 37.0233 12.8276 36.9235C12.5989 38.5887 12.0977 39.6434 11.5238 40.0883V42.2048ZM15.4452 44.8047C16.0963 45.1536 16.737 45.4536 17.3488 45.6907C18.5445 46.1541 19.7928 46.5162 21.0832 46.7664C21.0728 46.7249 21.0623 46.6837 21.0516 46.6428C20.9788 46.3636 20.8951 46.0794 20.8009 45.7909C20.0839 43.5961 18.8652 41.6278 17.2803 40.0213C16.9995 40.0872 16.6401 40.0498 16.7398 39.7611C16.8415 39.726 16.919 39.7204 16.9843 39.7296C16.8311 39.5828 16.6747 39.4392 16.5153 39.2991C16.5166 39.4377 16.5173 39.5784 16.5173 39.7213C16.5173 40.863 16.3823 41.7666 16.1686 42.4325C16.3207 42.4906 16.4389 42.598 16.4466 42.7462C16.3123 42.7406 16.1975 42.7112 16.0789 42.6865C15.9007 43.1458 15.6812 43.467 15.4452 43.65V44.8047H15.4452ZM19.2569 45.8809C19.3123 46.1793 18.7675 45.9848 18.5729 46.0789C18.4792 45.7043 19.0781 45.9015 19.0957 45.6145C19.3174 45.6428 18.9933 45.8722 19.2569 45.8809Z" fill="#569B49"/>
<path fill-rule="evenodd" clip-rule="evenodd" d="M4.38973 32.0634C4.68388 32.9536 5.03339 33.8187 5.43415 34.6548C5.59663 34.6411 5.76089 34.6297 5.9269 34.6208C6.22732 34.6047 6.51359 34.5965 6.78501 34.5965C7.46577 34.5965 8.13645 34.6397 8.79452 34.7234C8.79817 32.6151 8.91163 30.8519 9.09904 29.434C8.3393 29.3512 7.56724 29.3087 6.78501 29.3087C6.17504 29.3087 5.57291 29.3344 4.97963 29.3847C4.55389 29.4208 4.13322 29.4692 3.7179 29.5297C3.89224 30.3932 4.11724 31.2388 4.38973 32.0634ZM12.9312 35.8394C13.1505 35.9322 13.3673 36.0298 13.5814 36.1322C13.8542 33.6658 14.4081 32.4322 14.9621 32.4322C15.3866 32.4322 15.8112 33.1565 16.1092 34.6051C16.1592 34.6169 16.2126 34.6128 16.2697 34.5824C16.2399 34.7264 16.2 34.7989 16.1524 34.8254C16.2594 35.3959 16.3476 36.068 16.4106 36.8424C16.5702 36.7851 16.7901 36.8216 16.9045 36.9238C16.9409 37.1422 16.6586 37.0954 16.4298 37.0929C16.449 37.3591 16.4653 37.6369 16.4784 37.9259C18.9274 39.8356 20.7983 42.453 21.7844 45.4712C21.8798 45.7634 21.9689 46.0676 22.0513 46.3839C22.1016 46.5767 22.1475 46.7665 22.1891 46.9531C22.6352 47.0159 23.0923 47.0658 23.5601 47.1024C24.1313 47.1471 24.7131 47.1698 25.3049 47.1698C25.7316 47.1698 26.1404 47.159 26.5311 47.1376C26.8841 47.1182 27.2376 47.0901 27.5916 47.0536C27.5455 46.7618 27.4937 46.4732 27.4362 46.188C27.3474 45.7471 27.2388 45.2919 27.1113 44.8235C26.6909 43.2802 26.1025 41.8117 25.3672 40.4392C24.6197 39.0439 23.7153 37.7385 22.6766 36.5459C20.707 34.2842 18.2651 32.4475 15.506 31.191C14.6162 30.7857 13.6927 30.4407 12.7409 30.161C12.8791 31.4659 12.9594 33.0212 12.9594 34.8276C12.9594 35.182 12.9497 35.5192 12.9312 35.8394ZM7.22481 31.7833C7.30683 31.5938 7.43571 31.3832 7.44665 31.2274C7.7315 31.3808 7.62628 31.6399 7.47294 31.8737L7.22481 31.7833ZM21.3463 37.5242C21.1398 37.5307 20.8944 37.5038 20.7488 37.5602C20.7663 37.2371 21.0456 37.222 21.3224 37.2613L21.3463 37.5242Z" fill="#56A950"/>
<path fill-rule="evenodd" clip-rule="evenodd" d="M6.785 28.2726C7.62066 28.2726 8.44565 28.3192 9.2576 28.4099C9.33155 27.9986 9.41261 27.6254 9.49942 27.29C9.48372 27.3073 9.46875 27.3262 9.45499 27.3476C9.2462 27.3146 9.41184 26.7618 9.64265 26.787C10.0027 25.6403 10.4398 25.0669 10.8769 25.0669C11.4348 25.0669 11.9926 26.0013 12.3903 27.8693C12.4017 27.8584 12.4121 27.847 12.4212 27.835C12.5716 27.9799 12.5332 28.0436 12.4366 28.0947C12.4953 28.3906 12.5501 28.708 12.6005 29.0473C13.7516 29.3608 14.8659 29.765 15.9351 30.252C17.1617 30.8106 18.328 31.4777 19.4217 32.2409C19.4188 32.2222 19.4167 32.2025 19.4156 32.1816C19.6183 31.9373 20.0636 32.189 20.1498 32.5328C20.0433 32.5377 19.9363 32.5437 19.8383 32.5389C20.0709 32.7094 20.3 32.8842 20.5255 33.0634C20.592 33.0822 20.6447 33.1182 20.6644 33.1746C21.6727 33.9889 22.6077 34.8897 23.4578 35.8659C24.5402 37.1088 25.488 38.4791 26.2779 39.9535C27.054 41.4025 27.6726 42.943 28.111 44.5524C28.2342 45.0047 28.3467 45.4824 28.4481 45.9856C28.511 46.2976 28.5671 46.6106 28.6164 46.9246C29.4211 46.8029 30.2159 46.6365 30.998 46.4278C31.9399 46.1765 32.856 45.8647 33.7419 45.4971C33.7149 45.3478 33.6857 45.194 33.6545 45.0357C33.5958 44.7387 33.5352 44.4549 33.4727 44.184C33.4725 44.1834 33.4723 44.1827 33.4722 44.182C33.1346 42.7208 32.6809 41.306 32.1215 39.9478C31.5522 38.5656 30.8733 37.2408 30.096 35.9841C30.0958 35.9839 30.0957 35.9837 30.0955 35.9834C29.5353 35.0779 28.9203 34.2034 28.2545 33.3642C28.1817 33.2726 28.1085 33.1814 28.0347 33.0908C27.7975 32.7995 27.5548 32.5135 27.3067 32.2329C26.9236 31.7997 26.5277 31.3794 26.1195 30.9725C23.7743 28.6354 21.0088 26.721 17.9467 25.353C17.7124 25.2483 17.4763 25.1468 17.2385 25.0485C17.1297 25.0036 17.0204 24.9593 16.9109 24.9156C16.6621 24.8166 16.4115 24.7211 16.1592 24.6293C15.7773 24.4902 15.3913 24.3595 15.0016 24.2372C15.0284 24.2542 15.0509 24.2713 15.0695 24.2881L14.9916 24.3715C15.0292 24.3562 15.0657 24.3392 15.1012 24.3208C15.2881 24.5446 14.8017 24.6956 14.8806 24.1995C12.3235 23.41 9.60477 22.9849 6.78503 22.9849C6.13126 22.9849 5.49094 23.0069 4.86453 23.0503C4.35984 23.0852 3.86036 23.1335 3.36645 23.195C3.34386 23.4515 3.32575 23.7081 3.31218 23.9645C3.3008 24.1798 3.29266 24.4013 3.28778 24.6293C3.28415 24.7984 3.28235 24.9711 3.28235 25.1474C3.28235 25.8033 3.31093 26.452 3.36689 27.0921C3.4087 27.5702 3.46559 28.0431 3.5371 28.5104C3.69893 28.4865 3.86115 28.4644 4.0237 28.4441C4.01613 28.4085 4.01403 28.3658 4.00617 28.3295C4.18485 28.2597 4.18095 28.4055 4.33505 28.3669C4.34083 28.3832 4.3428 28.3963 4.34169 28.4067C4.52558 28.3864 4.70993 28.3684 4.89468 28.3527C5.51957 28.2996 6.15008 28.2726 6.785 28.2726ZM5.36917 27.5509C5.30411 27.5568 5.23848 27.5628 5.17544 27.5685C5.17156 27.5256 5.16768 27.4827 5.16372 27.4393C5.22674 27.4336 5.29241 27.4276 5.3577 27.4216C5.3614 27.4651 5.36554 27.508 5.36917 27.5509ZM6.03129 26.9694C6.05688 27.1078 5.80433 27.0188 5.71382 27.0618C5.70668 26.8972 5.94003 26.8885 6.03129 26.9694ZM5.65485 26.4123C5.58423 26.6112 5.3363 26.4235 5.26358 26.3848C5.30266 26.2254 5.55107 26.4125 5.65485 26.4123ZM5.17956 26.9137C5.14374 27.025 4.8241 26.8695 4.83289 26.6845C5.0712 26.615 4.99711 26.92 5.17956 26.9137ZM4.68073 26.4377C4.69483 26.7273 4.19235 26.2334 4.68073 26.4376V26.4377ZM4.05376 25.9701C3.96153 25.8793 3.70024 25.8849 3.8361 25.727C3.8953 25.8266 4.04932 25.8062 4.05376 25.9701ZM4.72085 23.2912C4.74657 23.4297 4.49378 23.3394 4.40346 23.3831C4.36001 23.2092 4.63788 23.3007 4.64609 23.1676C4.74892 23.1807 4.59849 23.2871 4.72085 23.2912ZM20.6625 27.9411C20.719 27.7447 20.8849 27.5577 21.0555 27.7602C20.9692 27.811 20.8954 27.8941 20.8349 28.0038L20.6625 27.9411ZM4.97907 24.5093L5.20692 24.5923C5.16777 24.8906 4.8568 25.2378 4.58536 25.1268C4.70545 24.8973 4.87415 24.771 4.97907 24.5093ZM7.10998 25.2853L7.49243 25.4245C7.38922 25.6977 7.2189 25.8265 7.00419 25.8625C6.86897 25.7256 6.95146 25.4575 7.10998 25.2853ZM6.7484 27.4018C6.54131 27.3264 6.81019 26.3204 7.16174 26.6629C7.11449 27.0993 6.79599 26.9645 6.7484 27.4018ZM29.9856 41.9409C29.708 41.9043 29.3828 41.9473 29.3871 41.5716C29.7476 41.4984 29.996 41.5713 29.9856 41.9409ZM29.9955 38.9815C29.8021 38.9554 29.8502 38.643 29.8029 38.4305C30.0861 38.343 30.1818 38.4947 30.3766 38.5233C30.4499 38.8393 29.9881 38.7124 29.9955 38.9815ZM27.323 38.9366C27.235 38.8896 27.1443 38.8441 27.0224 38.8353L27.0031 38.623C27.0094 38.6007 27.0118 38.5756 27.0079 38.5459C27.1012 38.5374 27.1986 38.5286 27.2856 38.5207C27.2977 38.6579 27.311 38.8015 27.323 38.9366ZM28.7423 37.539C28.7913 37.8436 28.2536 37.6498 28.0602 37.746C28.0086 37.4407 28.5465 37.6356 28.7423 37.539ZM30.6016 37.9344C30.7665 38.426 29.9046 37.9795 29.8807 37.7166C30.3018 37.5749 30.1832 38.0755 30.6016 37.9344Z" fill="#87C65B"/>
<path fill-rule="evenodd" clip-rule="evenodd" d="M32.6115 26.0468C30.5659 27.2592 28.7332 28.7934 27.1833 30.5795C27.5842 30.9926 27.9722 31.417 28.3467 31.8524C28.5792 32.1227 28.8065 32.3972 29.0284 32.6757C29.0403 32.6907 29.0521 32.7056 29.064 32.7206C29.5929 33.3872 30.094 34.0809 30.5654 34.7997C32.0484 32.8759 33.9385 31.2844 36.1058 30.1557C36.9979 29.6911 37.9371 29.3046 38.9141 29.005C38.8961 28.9742 38.885 28.9409 38.8842 28.9102C38.9328 28.8443 38.9895 28.8998 39.0469 28.9649C40.5611 28.5144 42.1648 28.2725 43.8248 28.2725C44.4625 28.2725 45.0969 28.3091 45.7257 28.3803C46.1768 28.4314 46.6227 28.5004 47.0626 28.5868C47.1374 28.1098 47.1969 27.6287 47.2404 27.1439C47.2981 26.5014 47.3275 25.8356 47.3275 25.1472C47.3275 24.9707 47.3257 24.798 47.3222 24.6291C47.3175 24.4124 47.3099 24.2021 47.2995 23.998C47.2866 23.7471 47.2695 23.4972 47.2483 23.2485C46.7534 23.1714 46.2517 23.1107 45.7439 23.0669C45.113 23.0125 44.473 22.9847 43.8249 22.9847C40.8593 22.9847 38.0327 23.5692 35.4542 24.6291C35.1244 24.7646 34.7987 24.908 34.4773 25.0588C34.2143 25.1823 33.9542 25.3108 33.697 25.4442C33.3289 25.6351 32.967 25.8361 32.6115 26.0468ZM34.5254 26.0595C34.3948 26.1024 34.4156 25.8587 34.6249 25.9909L34.6249 25.9908C34.5946 26.0208 34.5679 26.0401 34.5449 26.0514L34.5223 26.0035C34.5225 26.0223 34.5235 26.041 34.5254 26.0595ZM32.0112 27.8374C32.0862 27.8955 32.1384 27.999 32.0218 28.0379C32.0147 27.992 31.9915 27.9459 31.9546 27.901L32.0112 27.8374ZM32.3579 29.9985C32.4335 30.1042 32.5512 30.2006 32.4227 30.3183C32.2835 30.2195 32.2294 30.1122 32.3579 29.9985ZM31.3526 30.9341C31.4051 31.0079 31.284 31.0907 31.2271 31.1742C31.1076 31.106 31.1286 31.0255 31.0765 30.9504C31.1602 30.8253 31.2638 31.022 31.3526 30.9341ZM32.1853 31.8534C32.1973 31.898 32.2106 31.9432 32.2464 31.9873L32.1806 32.0611C32.1711 32.0661 32.1618 32.0732 32.153 32.084C32.1205 32.0551 32.0866 32.0249 32.0563 31.9979C32.099 31.9504 32.1433 31.9002 32.1853 31.8534ZM31.2617 31.8162C31.3493 31.7029 31.4543 31.9465 31.5483 31.9815C31.4612 32.0958 31.3565 31.8518 31.2617 31.8162ZM30.2955 31.0376L30.2987 31.0471C30.2458 31.0584 30.2099 31.0507 30.1871 31.0342C30.224 31.0368 30.26 31.038 30.2955 31.0376ZM29.2024 31.5483C29.207 31.556 29.2132 31.5636 29.2218 31.5712L29.2121 31.5821C29.2089 31.5707 29.2054 31.5597 29.2024 31.5483ZM30.8057 31.0611C30.9199 30.8493 31.0421 31.2828 30.9607 31.3743C30.7791 31.2767 30.9862 31.158 30.8057 31.0611ZM30.3291 30.6134C30.341 30.598 30.3513 30.5795 30.3597 30.5563L30.3893 30.5671C30.3689 30.5825 30.3498 30.5982 30.3291 30.6134ZM41.8297 25.7647C41.6735 25.743 41.7072 25.4951 41.5269 25.5114C41.5504 25.1162 41.9671 25.458 41.8297 25.7647ZM40.8402 27.4207C40.3295 27.0434 40.4636 27.9773 40.8402 27.4207V27.4207ZM42.1155 27.2454L42.0901 26.9649C42.1518 27.001 42.2102 27.0394 42.2592 27.0697C42.258 27.1725 42.199 27.2246 42.1155 27.2454Z" fill="#C6DC79"/>
<path fill-rule="evenodd" clip-rule="evenodd" d="M36.5833 31.0745C34.4323 32.1947 32.5744 33.7961 31.1532 35.7349C31.8862 36.9524 32.5304 38.2288 33.0767 39.5552C33.3846 40.3024 33.6614 41.0652 33.9056 41.8419C34.4679 40.0776 35.4874 38.5179 36.8247 37.3023C37.6358 36.565 38.5636 35.9541 39.5769 35.5004C39.6967 32.7845 40.1953 31.4263 40.6939 31.4263C41.1476 31.4263 41.6013 32.5509 41.7696 34.7996C42.4341 34.6664 43.1213 34.5965 43.8248 34.5965C44.1124 34.5965 44.4002 34.6085 44.6877 34.6322C44.8462 34.6452 45.0051 34.6621 45.1642 34.6827C45.5588 33.8622 45.9046 33.0116 46.1977 32.1348C46.4733 31.3104 46.7013 30.4658 46.8784 29.6043C46.4623 29.5223 46.0401 29.4568 45.6124 29.4084C45.0308 29.3425 44.4344 29.3087 43.8248 29.3087C42.3424 29.3087 40.9082 29.5141 39.549 29.8978C39.5381 29.9298 39.5208 29.9582 39.4957 29.9796C39.4685 29.9635 39.4493 29.947 39.436 29.9302C38.4407 30.2194 37.4862 30.6043 36.5833 31.0745ZM38.1267 33.4781L38.0465 33.5682C38.0096 33.5374 37.9845 33.4865 37.9808 33.4328C38.0272 33.3996 38.0763 33.434 38.1267 33.4781ZM37.125 34.6033L37.0501 34.6873C36.9282 34.6193 36.8318 34.4257 36.9261 34.3277C37.0045 34.4188 37.0301 34.5132 37.125 34.6033ZM36.4252 35.3892L36.2996 35.5303C36.1995 35.439 36.1731 35.3435 36.1944 35.2447C36.2766 35.2098 36.3781 35.2914 36.4252 35.3892ZM35.5744 34.8706C35.6424 34.7943 36.0302 35.0826 35.8223 35.1755C35.6422 35.0804 35.7549 34.9661 35.5744 34.8706ZM33.6033 34.3253C33.671 34.3932 33.7397 34.4849 33.805 34.5163C33.69 34.6128 33.5964 34.523 33.5218 34.4169L33.6033 34.3253ZM35.134 36.0472C35.1937 35.9465 35.4811 36.2023 35.2825 36.269C35.1642 36.2005 35.187 36.1212 35.134 36.0472ZM34.8092 36.02C34.894 35.909 34.9996 36.1527 35.093 36.1885C34.9796 36.3087 34.8121 36.1423 34.8092 36.02ZM34.9427 37.0555C34.9168 37.0861 34.8924 37.1165 34.8697 37.1472C34.8426 37.1059 34.8121 37.0657 34.7729 37.0361C34.8647 36.9689 34.9034 36.996 34.9427 37.0555ZM34.4156 37.2428C34.2 37.3406 34.3863 37.0352 34.2178 36.9778C34.4558 36.8322 34.3432 37.1227 34.4156 37.2428ZM32.4076 35.8916C32.5281 35.9623 32.5063 36.0399 32.5567 36.1128C32.4958 36.2116 32.2103 35.9574 32.4076 35.8916ZM32.2927 36.3142C32.4107 36.429 32.5341 36.5419 32.4067 36.6742C32.2596 36.6831 32.2036 36.4525 32.2927 36.3142ZM39.4195 30.2594C39.6212 30.0511 39.6043 30.7555 39.4195 30.2594L39.4195 30.2594ZM39.5071 31.0366C39.5038 31.166 39.6865 31.3529 39.4784 31.3617C39.5106 31.2504 39.3904 31.1519 39.5071 31.0366ZM37.096 32.3815C37.1795 32.2681 37.2864 32.5142 37.3801 32.5503C37.2829 32.7009 37.1597 32.4355 37.0569 32.5206C36.9961 32.4365 37.1767 32.4735 37.096 32.3815ZM32.1979 34.6953C32.1788 34.6911 32.1577 34.6897 32.1332 34.6919L32.1303 34.6606C32.1529 34.6725 32.1752 34.6831 32.1979 34.6953ZM38.8296 31.3697C38.566 31.3767 38.695 30.9124 38.3737 30.9864C38.5656 30.505 39.158 31.1759 38.8296 31.3697Z" fill="#B2D45C"/>
<path fill-rule="evenodd" clip-rule="evenodd" d="M37.5209 38.0672C35.8591 39.5777 34.742 41.6757 34.4985 44.0317C34.5617 44.3084 34.619 44.577 34.6704 44.8373C34.6852 44.912 34.6998 44.9882 34.7144 45.0659C36.1077 44.4065 37.4208 43.6052 38.6351 42.6805L38.6336 42.677C38.653 42.6286 38.6945 42.6033 38.744 42.597C39.2969 42.1705 39.8291 41.7183 40.3385 41.2422V39.6788C39.9067 39.3442 39.5498 38.3811 39.5498 36.7886C39.5498 36.7458 39.55 36.7034 39.5501 36.6611C38.8113 37.0401 38.1295 37.5141 37.5209 38.0672ZM41.0493 40.5474C42.4657 39.0997 43.6835 37.4589 44.6589 35.6687L44.6067 35.6643C44.3834 35.6459 44.1555 35.6354 43.9234 35.6331C43.8858 35.6651 43.8657 35.6568 43.8533 35.6326L43.8249 35.6326C43.1381 35.6326 42.4686 35.7064 41.824 35.8465C41.8332 36.1454 41.8381 36.4593 41.8381 36.7886C41.8381 37.6296 41.7385 38.295 41.581 38.785C41.6832 38.8495 41.7697 38.8972 41.7345 38.6998C42.074 38.9177 41.7922 38.9653 41.5319 38.9268C41.4318 39.1967 41.3128 39.4048 41.1835 39.5513C41.2244 39.5543 41.2551 39.558 41.2654 39.5594C41.5049 39.6018 41.2495 39.6658 41.0493 39.7043L41.0493 40.5474ZM39.3453 39.6037C39.3875 39.6635 39.2928 39.7307 39.3555 39.7866C39.2143 39.904 39.1979 39.6545 39.3453 39.6037ZM42.1951 38.8413C42.2811 38.9283 42.083 39.0319 42.21 39.1173C41.9861 39.205 42.0253 38.7916 42.1951 38.8413ZM39.756 39.0371L39.6691 39.1347C39.6617 39.1024 39.6562 39.0704 39.6509 39.0442C39.6861 39.012 39.7224 39.0154 39.756 39.0371ZM38.7698 37.7661C38.7227 37.6556 38.6766 37.544 38.6327 37.4308C38.8243 37.4109 39.0947 37.4571 39.2393 37.3942C39.1576 37.7339 38.9878 37.8148 38.7698 37.7661Z" fill="#95C94E"/>
<path fill-rule="evenodd" clip-rule="evenodd" d="M20.0999 19.9421C18.9673 21.0747 18.2021 22.5747 17.9983 24.248C21.1512 25.603 24.0092 27.5114 26.4498 29.8506C28.2062 27.8387 30.3066 26.1346 32.6592 24.8299C32.5784 22.9234 31.7723 21.2046 30.51 19.9422C29.1779 18.6101 27.3377 17.7862 25.3049 17.7862C23.2722 17.7862 21.4319 18.6101 20.0999 19.9421ZM24.7146 25.5271C24.8659 25.2915 24.9654 24.9791 25.3035 25.1428C25.2163 25.5002 25.0446 25.694 24.7146 25.5271ZM27.3883 26.796C27.4942 26.6321 27.7564 26.8086 27.9688 26.8562C27.9275 27.1498 27.7494 27.1717 27.6407 27.3358C27.3235 27.2677 27.6348 26.9037 27.3883 26.796ZM28.5666 24.3968C28.6466 24.3372 28.7264 24.2745 28.7862 24.1679L28.9865 24.2409C29.004 24.256 29.0257 24.2688 29.0542 24.278C29.0222 24.3661 28.9887 24.4579 28.9588 24.54C28.8295 24.4925 28.6939 24.4435 28.5666 24.3968ZM29.227 26.276C28.9306 26.1907 29.3349 25.7867 29.3301 25.5707C29.6282 25.654 29.223 26.0578 29.227 26.276ZM28.0778 27.7901C27.5627 27.7301 28.3336 27.1402 28.5816 27.2306C28.5306 27.6719 28.1281 27.3515 28.0778 27.7901Z" fill="#FFD500"/>
</svg>
